M48
; DRILL file {KiCad 7.0.1} date Mon Apr  1 21:03:36 2024
; FORMAT={-:-/ absolute / inch / decimal}
; #@! TF.CreationDate,2024-04-01T21:03:36-06:00
; #@! TF.GenerationSoftware,Kicad,Pcbnew,7.0.1
; #@! TF.FileFunction,Plated,1,2,PTH
FMAT,2
INCH
; #@! TA.AperFunction,Plated,PTH,ViaDrill
T1C0.0118
; #@! TA.AperFunction,Plated,PTH,ComponentDrill
T2C0.0236
; #@! TA.AperFunction,Plated,PTH,ComponentDrill
T3C0.0394
%
G90
G05
T1
X0.8081Y-1.878
X0.8435Y-3.7045
X0.8543Y-3.4764
X0.8622Y-1.4577
X0.8622Y-1.8159
X0.8642Y-1.5768
X0.8996Y-3.2992
X0.9075Y-1.8583
X0.9094Y-1.5266
X0.9154Y-1.9951
X0.9183Y-2.0935
X0.9459Y-2.9626
X0.9665Y-1.4498
X0.9675Y-1.1378
X0.9675Y-1.2884
X0.9961Y-2.8543
X1.0207Y-1.9931
X1.0226Y-2.1004
X1.0325Y-1.8002
X1.0837Y-1.9301
X1.0866Y-1.2913
X1.0866Y-1.4478
X1.0876Y-1.1378
X1.1033Y-1.5915
X1.127Y-2.9656
X1.127Y-3.0551
X1.1309Y-2.7461
X1.1319Y-2.6703
X1.1329Y-2.1841
X1.1329Y-2.4833
X1.1339Y-2.2854
X1.1339Y-2.3819
X1.1339Y-2.5738
X1.1378Y-1.9843
X1.1398Y-2.0886
X1.1555Y-3.7343
X1.1565Y-3.4833
X1.1585Y-3.2372
X1.1831Y-1.4587
X1.2432Y-1.4723
X1.2815Y-3.2854
X1.3041Y-1.4911
X1.314Y-2.3533
X1.3287Y-2.5817
X1.3445Y-2.7461
X1.3455Y-2.6604
X1.3484Y-1.3553
X1.3504Y-2.4646
X1.3789Y-1.6152
X1.4154Y-2.1467
X1.4193Y-3.4232
X1.4478Y-2.0217
X1.4508Y-1.7067
X1.4813Y-2.1388
X1.4823Y-1.2303
X1.4852Y-2.8031
X1.4892Y-1.6949
X1.4902Y-2.313
X1.4902Y-2.626
X1.4902Y-3.0778
X1.4902Y-3.1388
X1.4911Y-3.2421
X1.5118Y-2.4902
X1.5295Y-1.0817
X1.5295Y-1.5581
X1.5325Y-1.4695
X1.5394Y-2.0276
X1.5453Y-3.372
X1.5837Y-3.3041
X1.6152Y-3.0778
X1.6161Y-3.4902
X1.626Y-1.4222
X1.628Y-1.9006
X1.628Y-2.373
X1.628Y-2.8504
X1.687Y-1.8051
X1.688Y-3.2293
X1.689Y-2.2785
X1.6909Y-2.7421
X1.6919Y-1.3248
X1.7579Y-1.1348
X1.7589Y-1.6132
X1.7608Y-2.0846
X1.7618Y-1.4744
X1.8012Y-3.4508
X1.8081Y-2.2776
X1.8091Y-2.4104
X1.81Y-2.7421
X1.811Y-1.8051
X1.8622Y-1.562
X1.8632Y-1.0837
X1.8642Y-2.0335
X1.8642Y-2.4941
X1.8848Y-1.187
X1.9331Y-2.6004
X1.937Y-3.1171
X1.9626Y-1.188
X1.9803Y-3.1634
X2.001Y-3.2923
X2.0384Y-2.9537
X2.061Y-2.8514
X2.062Y-2.7451
X2.064Y-2.4144
X2.0659Y-1.4734
X2.0659Y-1.8071
X2.0659Y-2.0817
X2.0728Y-1.2795
X2.0738Y-1.187
X2.1201Y-3.501
X2.126Y-3.625
X2.1427Y-1.4035
X2.1427Y-1.748
X2.1427Y-2.3947
X2.1683Y-1.061
X2.1693Y-2.8238
X2.1722Y-2.9537
X2.2156Y-3.4518
X2.2195Y-2.6289
X2.2461Y-2.2677
X2.2461Y-2.4094
X2.2539Y-2.7215
X2.2569Y-1.4724
X2.2766Y-1.6427
X2.2795Y-1.7343
X2.3012Y-1.1506
X2.3169Y-2.501
X2.3169Y-3.4163
X2.3209Y-3.7343
X2.3219Y-3.2923
X2.3228Y-3.0472
X2.3238Y-2.6388
X2.3484Y-1.9852
X2.3533Y-2.0325
X2.3553Y-1.0482
X2.3573Y-2.3159
X2.373Y-2.8297
X2.378Y-1.1585
X2.3819Y-1.8868
X2.3839Y-1.6467
X2.3839Y-1.7333
X2.3888Y-3.1093
X2.3888Y-3.3278
X2.4035Y-3.6201
X2.4183Y-1.1575
X2.4222Y-2.4094
X2.4734Y-1.747
X2.4764Y-2.0876
X2.4764Y-2.189
X2.4793Y-1.9301
X2.4823Y-2.9301
X2.4843Y-1.4754
X2.4931Y-1.3907
X2.5Y-2.7362
X2.5256Y-1.0886
X2.5295Y-3.6201
X2.5335Y-2.876
X2.5384Y-2.6781
X2.5522Y-2.5394
X2.5591Y-3.0207
X2.5659Y-1.3947
X2.5699Y-1.7343
X2.5787Y-3.3031
X2.6112Y-1.3376
X2.6142Y-2.3238
X2.6211Y-3.5561
X2.6319Y-1.6132
X2.6417Y-2.938
X2.6535Y-1.7756
X2.6654Y-2.4902
X2.688Y-1.4764
X2.688Y-3.3022
X2.7382Y-1.7766
X2.7392Y-1.8484
X2.75Y-1.6102
X2.752Y-1.4222
X2.752Y-3.0138
X2.7569Y-2.3258
X2.7579Y-2.0659
X2.7785Y-3.4409
X2.7825Y-2.8819
X2.8317Y-3.1476
X2.8563Y-1.3406
X2.8642Y-2.8002
X2.9045Y-3.5581
X2.9075Y-2.9498
X2.9163Y-1.2884
X2.9301Y-1.4213
X2.9301Y-1.7392
X2.9626Y-1.9459
X2.9774Y-2.6722
X2.9783Y-1.8435
X2.9813Y-2.0482
X3.0226Y-2.1654
X3.0512Y-1.6722
X3.0571Y-3.2421
X3.0581Y-3.374
X3.065Y-2.8238
X3.0669Y-2.9419
X3.0748Y-1.5502
X3.1004Y-1.6201
X3.1368Y-1.4685
X3.1398Y-1.56
X3.1703Y-3.2116
X3.1703Y-3.2884
X3.1713Y-1.3642
X3.185Y-1.5108
X3.2018Y-3.5492
X3.2096Y-1.2096
X3.2156Y-1.4567
X3.2421Y-3.1929
X3.2569Y-1.6673
X3.3278Y-1.3297
X3.3406Y-1.1791
X3.3445Y-2.8307
X3.3455Y-2.9419
X3.3848Y-1.2018
X3.3858Y-3.3179
X3.3986Y-1.5797
X3.3996Y-1.6772
X3.4469Y-3.5522
X3.4685Y-3.1467
X3.5059Y-1.2067
X3.5335Y-3.3465
X3.5571Y-1.5787
X3.5581Y-1.6929
X3.5719Y-2.8258
X3.5748Y-2.9488
X3.5876Y-3.5522
X3.5896Y-3.7343
X3.6368Y-1.3189
X3.6713Y-1.3622
X3.6811Y-3.2195
X3.6841Y-2.939
X3.686Y-3.0472
X3.69Y-2.8799
X3.6919Y-1.1978
X3.7028Y-2.5315
X3.7106Y-2.6959
X3.7175Y-1.4016
X3.7579Y-1.4439
X3.8002Y-1.4892
X3.8031Y-3.5177
X3.8455Y-1.5266
X3.8583Y-1.3898
X3.8602Y-3.1614
X3.8642Y-2.9222
X3.8701Y-2.5315
X3.874Y-2.4134
X3.8957Y-2.0157
X3.939Y-3.4941
X3.9449Y-1.2047
X3.9823Y-3.2283
X3.9872Y-2.4065
X3.9931Y-2.1142
X3.998Y-2.5217
X4.0748Y-1.3465
X4.0915Y-2.7323
X4.1171Y-2.8248
X4.1181Y-1.9774
X4.128Y-3.5098
X4.1378Y-2.7323
X4.1388Y-3.313
X4.1427Y-3.1841
X4.1644Y-2.7785
X4.1831Y-3.6732
X4.2392Y-1.8327
X4.2411Y-1.9577
X4.2451Y-2.2746
X4.251Y-2.8504
X4.2549Y-2.6969
X4.2549Y-2.9616
X4.2579Y-2.5285
X4.2756Y-1.3583
X4.2756Y-1.8022
X4.3661Y-1.2933
X4.4429Y-1.4114
X4.4439Y-1.5256
X4.4459Y-1.6722
X4.4469Y-1.2963
X4.4488Y-3.2421
X4.4528Y-3.3927
X4.4557Y-3.4606
X4.4833Y-2.5295
X4.4843Y-2.627
X4.4843Y-2.8622
X4.4852Y-2.9577
X4.4872Y-2.7175
X4.4911Y-2.4154
X4.5325Y-1.2982
X4.5325Y-1.7618
X4.562Y-3.3858
X4.5659Y-1.7628
X4.5807Y-2.6289
X4.5984Y-1.6772
X4.6004Y-3.2431
X4.6329Y-1.3022
X4.6634Y-3.4675
X4.7087Y-2.4587
X4.7175Y-3.3386
X4.7283Y-2.2825
X4.7343Y-1.3012
X4.751Y-1.6703
X4.7559Y-1.4094
X4.7559Y-1.5246
X4.7697Y-2.5098
X4.7943Y-2.628
X4.7963Y-2.7844
X4.8071Y-2.7037
X4.8189Y-2.0404
X4.8228Y-1.2963
X4.8642Y-2.7776
X4.9193Y-2.935
X4.9232Y-2.7923
X4.9439Y-1.56
X4.9567Y-1.8947
X4.9606Y-1.3386
X4.9626Y-3.3317
X4.9705Y-2.19
X4.9705Y-2.6683
X5.002Y-1.6171
X5.003Y-1.8022
X5.0039Y-1.4941
X5.0049Y-1.4596
X5.0167Y-2.4213
X5.0197Y-2.6634
X5.0295Y-2.5335
X5.0512Y-2.8504
X5.0752Y-2.6374
X5.0961Y-2.6165
X5.1289Y-2.753
X5.1378Y-2.4242
X5.1437Y-2.5325
X5.1457Y-2.2805
X5.1545Y-1.5443
X5.188Y-1.062
X5.1949Y-1.2096
X5.1998Y-2.6575
X5.2274Y-2.2795
X5.311Y-1.1781
X5.3317Y-2.5276
X5.3337Y-2.4016
X5.3386Y-2.628
X5.3553Y-1.5138
X5.4577Y-2.6969
X5.4606Y-2.3465
X5.4606Y-2.5285
X5.4843Y-3.3327
X5.4862Y-2.9459
X5.4872Y-3.128
X5.4951Y-2.6083
X5.5266Y-3.4144
X5.5276Y-2.0974
X5.5285Y-3.6614
X5.565Y-3.4144
X5.5965Y-3.312
X5.5974Y-2.5089
X5.6043Y-2.3858
X5.6053Y-3.1417
X5.6063Y-2.9498
X5.6083Y-2.6604
X5.6142Y-1.372
X5.6152Y-1.5492
X5.6486Y-1.2756
X5.6486Y-2.5581
X5.6742Y-3.3809
X5.688Y-2.56
X5.6909Y-1.7303
X5.6939Y-1.8661
X5.7451Y-2.5118
X5.747Y-3.0256
X5.75Y-1.064
X5.752Y-1.373
X5.7598Y-1.5374
X5.8258Y-2.9547
X5.8278Y-2.1831
X5.8278Y-2.3976
X5.8622Y-1.6024
X5.872Y-3.5049
X5.873Y-3.2274
X5.875Y-3.3888
X5.8789Y-1.7835
X5.8809Y-1.9606
X5.9124Y-1.5689
X5.9272Y-3.0522
X5.9429Y-1.4852
X5.9587Y-1.0699
X5.9596Y-1.5699
X5.9596Y-2.5
X5.9882Y-1.3907
X5.9892Y-2.563
X6.0039Y-2.2146
X6.0039Y-2.3346
X6.0049Y-2.4341
X6.0472Y-1.3622
X6.0719Y-3.3839
X6.0738Y-3.6988
X6.0758Y-3.498
X6.0984Y-2.5492
X6.1063Y-2.4006
X6.1142Y-2.0305
X6.1309Y-3.3307
X6.1339Y-1.2421
X6.1959Y-3.6988
X6.1978Y-2.5561
X6.1988Y-2.4085
X6.2195Y-1.061
X6.2195Y-3.0709
X6.2264Y-2.8051
X6.2274Y-1.7224
X6.2293Y-1.2421
X6.2303Y-2.9016
X6.2451Y-1.7923
X6.2451Y-1.873
X6.2451Y-2.2165
X6.3169Y-3.3327
X6.3179Y-2.815
X6.3307Y-2.6181
X6.3337Y-2.502
X6.3376Y-3.6988
X6.3386Y-3.6398
X6.3671Y-2.8455
X6.3681Y-3.4872
X6.4144Y-2.9055
X6.436Y-3.5571
X6.438Y-3.4833
X6.438Y-3.6447
X6.4469Y-2.8179
X6.4675Y-2.2165
X6.4764Y-3.2303
X6.4783Y-2.8848
X6.4843Y-1.06
X6.4852Y-2.7028
T3
X0.8563Y-2.2115
X0.8563Y-2.3115
X0.8563Y-2.4115
X0.8563Y-2.5115
X0.8563Y-2.6115
X0.8563Y-2.7115
X0.8563Y-2.8115
X0.8563Y-2.9115
X0.8563Y-3.0115
X0.8563Y-3.1115
X2.5827Y-3.2234
X2.5837Y-3.3839
X2.6827Y-3.2234
X2.6837Y-3.3839
X3.2382Y-1.7414
X3.2382Y-1.8457
X3.2382Y-1.9498
X3.2382Y-2.0544
X3.2963Y-2.2581
X3.2963Y-2.3581
X3.2963Y-2.4581
X3.2963Y-2.5581
X3.2963Y-2.6581
X3.2963Y-2.7581
X3.3382Y-1.7414
X3.3382Y-1.8457
X3.3382Y-1.9498
X3.3382Y-2.0544
X3.3963Y-2.2581
X3.3963Y-2.3581
X3.3963Y-2.4581
X3.3963Y-2.5581
X3.3963Y-2.6581
X3.3963Y-2.7581
X3.4382Y-1.7414
X3.4382Y-1.8457
X3.4382Y-1.9498
X3.4382Y-2.0544
X4.1526Y-1.7589
X4.1526Y-1.8589
X4.2329Y-3.3228
X4.2339Y-3.4783
X4.3278Y-1.9537
X4.3329Y-3.3228
X4.3339Y-3.4783
X4.4278Y-1.9537
X4.5278Y-1.9537
X4.6278Y-1.9537
X4.6372Y-2.938
X4.7278Y-1.9537
X4.7372Y-2.938
X5.3376Y-1.6238
X5.3376Y-1.7238
X5.3376Y-1.8238
X5.3376Y-1.9238
X5.3376Y-2.0238
X5.3376Y-2.1238
X5.3376Y-2.2238
X5.4376Y-1.6238
X5.4376Y-1.7238
X5.4376Y-1.8238
X5.4376Y-1.9238
X5.4376Y-2.0238
X5.4376Y-2.1238
X5.4376Y-2.2238
X5.4409Y-1.1313
X5.4409Y-1.2313
X5.4409Y-1.3313
X5.4409Y-1.4313
X5.4719Y-2.7717
X5.5719Y-2.7717
X6.1398Y-2.9719
X6.1398Y-3.0719
X6.1398Y-3.1719
X6.2904Y-2.9719
X6.2904Y-3.0719
X6.2904Y-3.1719
T2
G00X5.3663Y-3.4915
M15
G01X5.3663Y-3.523
M16
G05
G00X5.3663Y-3.6561
M15
G01X5.3663Y-3.6876
M16
G05
G00X5.7065Y-3.4915
M15
G01X5.7065Y-3.523
M16
G05
G00X5.7065Y-3.6561
M15
G01X5.7065Y-3.6876
M16
G05
T0
M30
