%TF.GenerationSoftware,KiCad,Pcbnew,7.0.1*%
%TF.CreationDate,2024-05-02T17:31:46-06:00*%
%TF.ProjectId,Neural_Interface,4e657572-616c-45f4-996e-746572666163,1*%
%TF.SameCoordinates,Original*%
%TF.FileFunction,Copper,L2,Bot*%
%TF.FilePolarity,Positive*%
%FSLAX46Y46*%
G04 Gerber Fmt 4.6, Leading zero omitted, Abs format (unit mm)*
G04 Created by KiCad (PCBNEW 7.0.1) date 2024-05-02 17:31:46*
%MOMM*%
%LPD*%
G01*
G04 APERTURE LIST*
%TA.AperFunction,ComponentPad*%
%ADD10R,1.700000X1.700000*%
%TD*%
%TA.AperFunction,ComponentPad*%
%ADD11O,1.700000X1.700000*%
%TD*%
%TA.AperFunction,ComponentPad*%
%ADD12O,1.000000X1.800000*%
%TD*%
%TA.AperFunction,ViaPad*%
%ADD13C,0.500000*%
%TD*%
%TA.AperFunction,Conductor*%
%ADD14C,0.200000*%
%TD*%
%TA.AperFunction,Conductor*%
%ADD15C,0.500000*%
%TD*%
%TA.AperFunction,Conductor*%
%ADD16C,0.127000*%
%TD*%
G04 APERTURE END LIST*
D10*
%TO.P,J5,1,Pin_1*%
%TO.N,OUT_SEL*%
X155950000Y-75485000D03*
D11*
%TO.P,J5,2,Pin_2*%
%TO.N,5v_Sel*%
X155950000Y-78025000D03*
%TO.P,J5,3,Pin_3*%
%TO.N,5v_USB*%
X155950000Y-80565000D03*
%TD*%
D10*
%TO.P,J10,1,Pin_1*%
%TO.N,5v_Batt*%
X159775000Y-75485000D03*
D11*
%TO.P,J10,2,Pin_2*%
%TO.N,5v_Sys*%
X159775000Y-78025000D03*
%TO.P,J10,3,Pin_3*%
%TO.N,5v_Sel*%
X159775000Y-80565000D03*
%TD*%
D10*
%TO.P,J11,1,Pin_1*%
%TO.N,+9v*%
X110055000Y-84400000D03*
D11*
%TO.P,J11,2,Pin_2*%
%TO.N,Stim+*%
X107515000Y-84400000D03*
%TD*%
D10*
%TO.P,J12,1,Pin_1*%
%TO.N,-9v*%
X110080000Y-88350000D03*
D11*
%TO.P,J12,2,Pin_2*%
%TO.N,Stim-*%
X107540000Y-88350000D03*
%TD*%
D10*
%TO.P,J1,1,Pin_1*%
%TO.N,GPIO45*%
X135575000Y-41245000D03*
D11*
%TO.P,J1,2,Pin_2*%
%TO.N,Wireless_Status*%
X138115000Y-41245000D03*
%TO.P,J1,3,Pin_3*%
%TO.N,GPIO38*%
X135575000Y-43785000D03*
%TO.P,J1,4,Pin_4*%
%TO.N,SCL*%
X138115000Y-43785000D03*
%TO.P,J1,5,Pin_5*%
%TO.N,GPIO37*%
X135575000Y-46325000D03*
%TO.P,J1,6,Pin_6*%
%TO.N,SDA*%
X138115000Y-46325000D03*
%TO.P,J1,7,Pin_7*%
%TO.N,GPIO36*%
X135575000Y-48865000D03*
%TO.P,J1,8,Pin_8*%
%TO.N,Fuel_Status*%
X138115000Y-48865000D03*
%TO.P,J1,9,Pin_9*%
%TO.N,GPIO35*%
X135575000Y-51405000D03*
%TO.P,J1,10,Pin_10*%
%TO.N,HV_En*%
X138115000Y-51405000D03*
%TO.P,J1,11,Pin_11*%
%TO.N,GPIO34*%
X135575000Y-53945000D03*
%TO.P,J1,12,Pin_12*%
%TO.N,CHRG_STAT1*%
X138115000Y-53945000D03*
%TO.P,J1,13,Pin_13*%
%TO.N,GPIO33*%
X135575000Y-56485000D03*
%TO.P,J1,14,Pin_14*%
%TO.N,CHRG_STAT2*%
X138115000Y-56485000D03*
%TD*%
D10*
%TO.P,J6,1,Pin_1*%
%TO.N,V_Fuel*%
X138985000Y-70400000D03*
D11*
%TO.P,J6,2,Pin_2*%
%TO.N,V_Batt*%
X141525000Y-70400000D03*
%TD*%
D10*
%TO.P,J3,1,Pin_1*%
%TO.N,GPIO12*%
X109925000Y-49625000D03*
D11*
%TO.P,J3,2,Pin_2*%
%TO.N,GPIO13*%
X112465000Y-49625000D03*
%TO.P,J3,3,Pin_3*%
%TO.N,GPIO14*%
X115005000Y-49625000D03*
%TO.P,J3,4,Pin_4*%
%TO.N,GPIO15*%
X117545000Y-49625000D03*
%TO.P,J3,5,Pin_5*%
%TO.N,GPIO16*%
X120085000Y-49625000D03*
%TD*%
D10*
%TO.P,J2,1,Pin_1*%
%TO.N,GPIO5*%
X86265000Y-57356250D03*
D11*
%TO.P,J2,2,Pin_2*%
%TO.N,MCLK*%
X83725000Y-57356250D03*
%TO.P,J2,3,Pin_3*%
%TO.N,GPIO6*%
X86265000Y-59896250D03*
%TO.P,J2,4,Pin_4*%
%TO.N,~{IRQ}*%
X83725000Y-59896250D03*
%TO.P,J2,5,Pin_5*%
%TO.N,GPIO7*%
X86265000Y-62436250D03*
%TO.P,J2,6,Pin_6*%
%TO.N,SDO*%
X83725000Y-62436250D03*
%TO.P,J2,7,Pin_7*%
%TO.N,GPIO8*%
X86265000Y-64976250D03*
%TO.P,J2,8,Pin_8*%
%TO.N,SDI*%
X83725000Y-64976250D03*
%TO.P,J2,9,Pin_9*%
%TO.N,GPIO9*%
X86265000Y-67516250D03*
%TO.P,J2,10,Pin_10*%
%TO.N,SCK*%
X83725000Y-67516250D03*
%TO.P,J2,11,Pin_11*%
%TO.N,GPIO10*%
X86265000Y-70056250D03*
%TO.P,J2,12,Pin_12*%
%TO.N,~{CS}*%
X83725000Y-70056250D03*
%TD*%
D10*
%TO.P,J22,1,Pin_1*%
%TO.N,Istim*%
X105475000Y-47215000D03*
D11*
%TO.P,J22,2,Pin_2*%
%TO.N,ADC_5*%
X105475000Y-44675000D03*
%TD*%
D10*
%TO.P,J19,1,Pin_1*%
%TO.N,OADC_1*%
X82250000Y-44231250D03*
D11*
%TO.P,J19,2,Pin_2*%
%TO.N,P_1*%
X84790000Y-44231250D03*
%TO.P,J19,3,Pin_3*%
%TO.N,ADC_1*%
X87330000Y-44231250D03*
%TD*%
D10*
%TO.P,J21,1,Pin_1*%
%TO.N,OADC_4*%
X82250000Y-52181250D03*
D11*
%TO.P,J21,2,Pin_2*%
%TO.N,P_4*%
X84790000Y-52181250D03*
%TO.P,J21,3,Pin_3*%
%TO.N,ADC_4*%
X87330000Y-52181250D03*
%TD*%
D10*
%TO.P,J14,1,Pin_1*%
%TO.N,+3.3VA*%
X65625000Y-85950000D03*
D11*
%TO.P,J14,2,Pin_2*%
%TO.N,+3.3va*%
X68165000Y-85950000D03*
%TD*%
D10*
%TO.P,J4,1,Pin_1*%
%TO.N,+3.3V*%
X138200000Y-28735000D03*
D11*
%TO.P,J4,2,Pin_2*%
%TO.N,RX*%
X138200000Y-31275000D03*
%TO.P,J4,3,Pin_3*%
%TO.N,TX*%
X138200000Y-33815000D03*
%TO.P,J4,4,Pin_4*%
%TO.N,GND*%
X138200000Y-36355000D03*
%TD*%
D10*
%TO.P,J20,1,Pin_1*%
%TO.N,OADC_3*%
X82250000Y-49525000D03*
D11*
%TO.P,J20,2,Pin_2*%
%TO.N,P_3*%
X84790000Y-49525000D03*
%TO.P,J20,3,Pin_3*%
%TO.N,ADC_3*%
X87330000Y-49525000D03*
%TD*%
D10*
%TO.P,J15,1,Pin_1*%
%TO.N,-3V3*%
X65600000Y-81875000D03*
D11*
%TO.P,J15,2,Pin_2*%
%TO.N,-3.3va*%
X68140000Y-81875000D03*
%TD*%
D10*
%TO.P,J13,1,Pin_1*%
%TO.N,+3.3V*%
X117785000Y-74625000D03*
D11*
%TO.P,J13,2,Pin_2*%
%TO.N,+3v*%
X120325000Y-74625000D03*
%TD*%
D10*
%TO.P,J18,1,Pin_1*%
%TO.N,OADC_2*%
X82250000Y-46881250D03*
D11*
%TO.P,J18,2,Pin_2*%
%TO.N,P_2*%
X84790000Y-46881250D03*
%TO.P,J18,3,Pin_3*%
%TO.N,ADC_2*%
X87330000Y-46881250D03*
%TD*%
D12*
%TO.P,U3,13,GND*%
%TO.N,GND*%
X136305000Y-89085000D03*
X136305000Y-93265000D03*
X144945000Y-89085000D03*
X144945000Y-93265000D03*
%TD*%
D10*
%TO.P,J16,1,Pin_1*%
%TO.N,Probe_in_1-*%
X21750000Y-56171112D03*
D11*
%TO.P,J16,2,Pin_2*%
%TO.N,Probe_in_1+*%
X21750000Y-58711112D03*
%TO.P,J16,3,Pin_3*%
%TO.N,Probe_in_2-*%
X21750000Y-61251112D03*
%TO.P,J16,4,Pin_4*%
%TO.N,Probe_in_2+*%
X21750000Y-63791112D03*
%TO.P,J16,5,Pin_5*%
%TO.N,Probe_in_3-*%
X21750000Y-66331112D03*
%TO.P,J16,6,Pin_6*%
%TO.N,Probe_in_3+*%
X21750000Y-68871112D03*
%TO.P,J16,7,Pin_7*%
%TO.N,Probe_in_4-*%
X21750000Y-71411112D03*
%TO.P,J16,8,Pin_8*%
%TO.N,Probe_in_4+*%
X21750000Y-73951112D03*
%TO.P,J16,9,Pin_9*%
%TO.N,Stim_out*%
X21750000Y-76491112D03*
%TO.P,J16,10,Pin_10*%
%TO.N,Stim_gnd*%
X21750000Y-79031112D03*
%TD*%
D13*
%TO.N,GND*%
X108075000Y-68500000D03*
X126250000Y-55625000D03*
X28625000Y-75325000D03*
X90375000Y-43000000D03*
X20525000Y-47700000D03*
X65000000Y-76725000D03*
X58450000Y-29225000D03*
X113100000Y-86175000D03*
X60675000Y-78975000D03*
X149150000Y-89025000D03*
X91125000Y-90225000D03*
X143475000Y-32400000D03*
X28800000Y-65375000D03*
X63500000Y-69500000D03*
X113975000Y-69025000D03*
X38850000Y-39575000D03*
X60275000Y-71875000D03*
X27600000Y-32800000D03*
X116850000Y-82375000D03*
X108150000Y-64225000D03*
X44675000Y-40975000D03*
X108600000Y-45775000D03*
X121775000Y-66750000D03*
X28950000Y-53050000D03*
X91175000Y-94850000D03*
X42850000Y-45850000D03*
X113925000Y-75125000D03*
X58850000Y-63525000D03*
X157450000Y-61175000D03*
X105775000Y-70575000D03*
X100050000Y-88750000D03*
X69850000Y-40900000D03*
X75725000Y-52025000D03*
X65275000Y-44050000D03*
X28800000Y-58050000D03*
X37850000Y-79725000D03*
X68275000Y-37500000D03*
X77675000Y-85700000D03*
X23100000Y-38775000D03*
X144625000Y-47400000D03*
X132775000Y-57900000D03*
X23250000Y-50675000D03*
X70050000Y-52475000D03*
X146050000Y-27025000D03*
X34300000Y-62600000D03*
X117675000Y-33075000D03*
X27625000Y-28900000D03*
X130700000Y-57925000D03*
X148900000Y-40700000D03*
X52475000Y-45900000D03*
X158250000Y-73700000D03*
X72550000Y-34050000D03*
X101275000Y-61125000D03*
X107675000Y-46550000D03*
X25975000Y-53350000D03*
X157425000Y-64925000D03*
X75650000Y-46825000D03*
X28725000Y-69750000D03*
X52475000Y-37425000D03*
X121825000Y-70725000D03*
X64350000Y-73050000D03*
X158625000Y-56300000D03*
X57900000Y-44050000D03*
X55175000Y-75025000D03*
X98300000Y-64300000D03*
X93725000Y-73150000D03*
X44650000Y-28825000D03*
X125575000Y-39625000D03*
X28775000Y-63075000D03*
X51775000Y-75025000D03*
X126050000Y-84625000D03*
X45925000Y-57850000D03*
X142600000Y-34850000D03*
X62825000Y-44375000D03*
X21425000Y-94093750D03*
X28775000Y-55475000D03*
X113875000Y-64250000D03*
X142150000Y-84125000D03*
X82725000Y-42350000D03*
X120250000Y-33050000D03*
X107825000Y-57775000D03*
X29350000Y-94850000D03*
X131950000Y-30725000D03*
X122400000Y-51825000D03*
X79675000Y-37300000D03*
X78100000Y-39375000D03*
X144550000Y-43950000D03*
X37850000Y-66700000D03*
X52675000Y-30150000D03*
X127500000Y-67650000D03*
X105225000Y-80875000D03*
X80550000Y-34650000D03*
X104600000Y-50225000D03*
X65175000Y-35425000D03*
X134900000Y-29925000D03*
X130500000Y-61575000D03*
X160450000Y-84650000D03*
X149325000Y-45300000D03*
X49200000Y-79175000D03*
X57325000Y-37400000D03*
X101150000Y-82000000D03*
X147975000Y-75050000D03*
X116800000Y-42600000D03*
X67400000Y-45100000D03*
X28900000Y-50400000D03*
X127750000Y-64350000D03*
X66400000Y-59025000D03*
X44725000Y-52950000D03*
X164500000Y-82050000D03*
X50825000Y-83625000D03*
X66850000Y-40975000D03*
X71925000Y-79950000D03*
X29375000Y-88475000D03*
X24025000Y-75250000D03*
X140425000Y-93000000D03*
X59875000Y-58825000D03*
X23050000Y-47200000D03*
X158625000Y-47575000D03*
X90725000Y-71775000D03*
X120800000Y-38725000D03*
X29425000Y-82225000D03*
X162925000Y-73800000D03*
X100200000Y-30600000D03*
X84975000Y-74725000D03*
X115125000Y-32975000D03*
X142175000Y-63725000D03*
X63100000Y-37475000D03*
X61050000Y-91950000D03*
X25925000Y-50625000D03*
X94050000Y-64300000D03*
X113000000Y-82350000D03*
X47875000Y-30150000D03*
X120800000Y-35800000D03*
X154275000Y-93950000D03*
X104850000Y-89150000D03*
X120675000Y-42425000D03*
X58975000Y-83625000D03*
X114075000Y-61350000D03*
X60550000Y-44025000D03*
X112950000Y-32925000D03*
X42900000Y-57875000D03*
X42950000Y-69650000D03*
X25300000Y-72500000D03*
X52425000Y-61325000D03*
X93625000Y-77400000D03*
X113900000Y-72700000D03*
X37725000Y-71200000D03*
X74425000Y-36100000D03*
X45950000Y-61225000D03*
X164275000Y-56300000D03*
X66325000Y-33975000D03*
X60675000Y-84525000D03*
X58850000Y-86775000D03*
X39100000Y-51500000D03*
X112850000Y-35850000D03*
X64825000Y-64500000D03*
X37875000Y-82350000D03*
X127075000Y-45775000D03*
X73850000Y-74925000D03*
X37625000Y-54325000D03*
X24550000Y-36825000D03*
X61425000Y-29400000D03*
X115875000Y-86000000D03*
X28750000Y-67825000D03*
X96600000Y-89350000D03*
X148025000Y-55450000D03*
X81325000Y-90150000D03*
X163525000Y-88475000D03*
X37825000Y-43050000D03*
X157975000Y-26950000D03*
X44750000Y-37450000D03*
X69900000Y-76550000D03*
X164550000Y-73275000D03*
X23325000Y-53175000D03*
X142375000Y-79800000D03*
X45975000Y-69650000D03*
X149375000Y-49800000D03*
X164725000Y-68650000D03*
X28800000Y-60500000D03*
X157375000Y-93950000D03*
X139350000Y-74825000D03*
X98150000Y-74225000D03*
X58950000Y-94850000D03*
X34150000Y-69750000D03*
X57050000Y-61200000D03*
X57050000Y-57600000D03*
X77900000Y-74725000D03*
X120100000Y-57975000D03*
X68275000Y-83875000D03*
X60500000Y-47925000D03*
X151375000Y-39875000D03*
X164700000Y-26925000D03*
X64250000Y-91950000D03*
X37650000Y-31250000D03*
X27600000Y-36775000D03*
X161000000Y-92450000D03*
X63050000Y-74425000D03*
X155100000Y-60975000D03*
X98050000Y-80300000D03*
X142400000Y-74925000D03*
X158625000Y-45525000D03*
X28625000Y-77600000D03*
X146100000Y-34875000D03*
X131775000Y-26975000D03*
X60550000Y-41825000D03*
X151350000Y-27175000D03*
X72750000Y-71125000D03*
X128300000Y-72400000D03*
X154225000Y-85950000D03*
X135425000Y-64200000D03*
X94250000Y-68475000D03*
X34175000Y-67575000D03*
X148025000Y-60900000D03*
X158225000Y-31550000D03*
X62900000Y-53025000D03*
X54000000Y-92075000D03*
X24575000Y-28900000D03*
X113900000Y-66725000D03*
X163475000Y-90350000D03*
X101550000Y-64050000D03*
X86000000Y-84275000D03*
X87550000Y-90225000D03*
X82350000Y-81100000D03*
X142350000Y-60600000D03*
X21900000Y-37025000D03*
X93500000Y-81775000D03*
X163525000Y-92575000D03*
X121150000Y-63750000D03*
X21900000Y-46125000D03*
X27525000Y-49025000D03*
X38400000Y-63250000D03*
X69550000Y-45125000D03*
X77650000Y-82350000D03*
X150550000Y-77525000D03*
X90350000Y-40100000D03*
X138625000Y-68500000D03*
X158175000Y-43750000D03*
X50300000Y-80350000D03*
X21950000Y-40050000D03*
X130275000Y-69925000D03*
X145975000Y-76850000D03*
X37850000Y-58750000D03*
X32550000Y-83450000D03*
X125900000Y-48125000D03*
X93775000Y-30425000D03*
X61525000Y-61200000D03*
X57825000Y-41725000D03*
X73775000Y-90375000D03*
X55075000Y-26950000D03*
X36050000Y-86950000D03*
X155800000Y-31550000D03*
X149175000Y-81975000D03*
X55100000Y-71725000D03*
X52650000Y-32500000D03*
X101425000Y-53700000D03*
X139375000Y-79450000D03*
X112875000Y-38750000D03*
X112925000Y-42475000D03*
X70025000Y-59075000D03*
X136025000Y-38450000D03*
X66575000Y-90325000D03*
X37850000Y-78175000D03*
X67100000Y-74625000D03*
X75250000Y-49425000D03*
X107975000Y-72400000D03*
X108075000Y-75225000D03*
X24575000Y-32725000D03*
X154325000Y-88850000D03*
X138700000Y-64225000D03*
X130925000Y-39225000D03*
X46000000Y-45850000D03*
X127050000Y-41075000D03*
X41025000Y-78175000D03*
X161750000Y-88575000D03*
X107725000Y-49725000D03*
X59000000Y-77400000D03*
X154900000Y-64750000D03*
X90800000Y-74900000D03*
X122100000Y-68675000D03*
X52375000Y-69725000D03*
X145925000Y-63800000D03*
X52475000Y-52875000D03*
X142450000Y-67575000D03*
X33750000Y-65575000D03*
X62900000Y-55600000D03*
X118450000Y-88075000D03*
X138700000Y-59600000D03*
X126250000Y-67775000D03*
X57250000Y-69125000D03*
X70575000Y-87400000D03*
X124950000Y-74550000D03*
X28025000Y-40425000D03*
X98400000Y-61300000D03*
X77500000Y-42475000D03*
X150175000Y-39850000D03*
X89750000Y-85000000D03*
X77850000Y-71725000D03*
X155300000Y-51575000D03*
X104575000Y-71750000D03*
X49100000Y-66050000D03*
X119600000Y-62450000D03*
X139300000Y-84650000D03*
X142625000Y-39350000D03*
X84950000Y-71900000D03*
X144125000Y-85875000D03*
X152100000Y-35325000D03*
X86350000Y-42600000D03*
X42975000Y-33650000D03*
X106250000Y-93300000D03*
X22850000Y-83800000D03*
X127425000Y-61500000D03*
X132075000Y-67500000D03*
X76775000Y-55000000D03*
X84850000Y-29950000D03*
X59025000Y-67025000D03*
X157975000Y-78000000D03*
X38925000Y-37325000D03*
X110900000Y-32850000D03*
X130650000Y-64325000D03*
X105125000Y-84150000D03*
X89050000Y-30650000D03*
X74425000Y-44175000D03*
X74075000Y-32725000D03*
X88100000Y-79925000D03*
X84525000Y-33775000D03*
X42875000Y-82025000D03*
X149225000Y-86075000D03*
X59775000Y-51625000D03*
X113175000Y-87900000D03*
X98950000Y-51200000D03*
X160975000Y-93950000D03*
X116350000Y-66775000D03*
X80525000Y-83525000D03*
X158150000Y-71250000D03*
X135475000Y-61000000D03*
X59825000Y-26625000D03*
X31578213Y-37395316D03*
X69900000Y-36125000D03*
X38850000Y-27475000D03*
X21700000Y-88300000D03*
X86325000Y-40125000D03*
X75625000Y-67875000D03*
X34250000Y-34425000D03*
X85975000Y-30525000D03*
X69575000Y-46950000D03*
X60400000Y-29425000D03*
X125050000Y-70925000D03*
X49850000Y-30175000D03*
X93575000Y-74650000D03*
X122500000Y-32925000D03*
X70675000Y-73200000D03*
X65500000Y-83900000D03*
%TO.N,+3.3V*%
X160875000Y-63550000D03*
X140400000Y-53275000D03*
X146300000Y-39050000D03*
X103500000Y-34200000D03*
X139575000Y-66250000D03*
X108600000Y-34500000D03*
X98000000Y-35300000D03*
X163750000Y-71575000D03*
X135600000Y-66750000D03*
X126000000Y-34000000D03*
%TO.N,5v_Wireless*%
X151375000Y-63500000D03*
X153600000Y-34600000D03*
%TO.N,V_Batt*%
X155725000Y-84600000D03*
%TO.N,-9v*%
X80525000Y-81575000D03*
%TO.N,5v_Sys*%
X123550000Y-70550000D03*
X119825000Y-84800000D03*
%TO.N,-3V3*%
X41350000Y-48275000D03*
X41300000Y-36125000D03*
X41350000Y-72400000D03*
X41350000Y-60275000D03*
%TO.N,+3.3VA*%
X63325000Y-35325000D03*
X67700000Y-63250000D03*
X62975000Y-49025000D03*
X47350000Y-51650000D03*
X59650000Y-50425000D03*
X81525000Y-30725000D03*
X47300000Y-39675000D03*
X47325000Y-27525000D03*
X47350000Y-63350000D03*
%TO.N,Vref*%
X64475000Y-68025000D03*
X54425000Y-60825000D03*
X54425000Y-35650000D03*
X56375000Y-66775000D03*
X64150000Y-27650000D03*
X54425000Y-44400000D03*
%TO.N,Stim_gnd*%
X52350000Y-72425000D03*
%TO.N,Stim_out*%
X26225000Y-45725000D03*
%TO.N,Net-(IC14-+IN2)*%
X53850000Y-88925000D03*
X40225000Y-83925000D03*
%TO.N,OUT_SEL*%
X152500000Y-56250000D03*
X152500000Y-59300000D03*
X150950000Y-37725000D03*
%TO.N,V_Fuel*%
X160475000Y-71500000D03*
%TO.N,CHRG_STAT2*%
X161725000Y-72275000D03*
%TO.N,CHRG_STAT1*%
X160800000Y-66500000D03*
%TO.N,SDA*%
X103925000Y-69400000D03*
X143475000Y-64975000D03*
%TO.N,SCL*%
X144475000Y-65025000D03*
X105100000Y-69400000D03*
%TO.N,Net-(IC14-+IN1)*%
X56275000Y-87675000D03*
X45750000Y-87650000D03*
%TO.N,OADC_1*%
X81675000Y-37000000D03*
%TO.N,OADC_2*%
X80900000Y-38375000D03*
%TO.N,OADC_3*%
X79750000Y-39625000D03*
%TO.N,OADC_4*%
X78750000Y-41150000D03*
%TO.N,MCLK*%
X92375000Y-33500000D03*
%TO.N,~{IRQ}*%
X93250000Y-34600000D03*
%TO.N,SDO*%
X94425000Y-35600000D03*
%TO.N,SDI*%
X95450000Y-36675000D03*
%TO.N,SCK*%
X96525000Y-37825000D03*
%TO.N,~{CS}*%
X97675000Y-38775000D03*
%TO.N,RX*%
X127125000Y-37075000D03*
%TO.N,TX*%
X127100000Y-37950000D03*
%TO.N,Probe_in_1+*%
X33125000Y-37875000D03*
%TO.N,Probe_in_1-*%
X30050000Y-37050000D03*
%TO.N,Probe_in_2+*%
X36850000Y-43350000D03*
%TO.N,Probe_in_2-*%
X35025000Y-41025000D03*
%TO.N,Probe_in_3+*%
X35950000Y-54525000D03*
%TO.N,Probe_in_3-*%
X36775000Y-51350000D03*
%TO.N,Probe_in_4-*%
X33375000Y-59775000D03*
%TO.N,Stim_control+*%
X39250000Y-85650000D03*
X115975000Y-44775000D03*
%TO.N,Stim_control-*%
X41050000Y-88650000D03*
X115125000Y-44750000D03*
%TO.N,D-*%
X140375000Y-86725000D03*
X128909834Y-66990166D03*
%TO.N,D+*%
X141350000Y-86725000D03*
X129440166Y-66459834D03*
%TO.N,Net-(IC2-SS)*%
X152525000Y-61825000D03*
X152125000Y-65100000D03*
%TD*%
D14*
%TO.N,+3.3V*%
X146300000Y-36835000D02*
X138200000Y-28735000D01*
X98000000Y-35300000D02*
X99100000Y-34200000D01*
X146300000Y-39050000D02*
X146300000Y-36835000D01*
X135600000Y-66750000D02*
X136100000Y-66250000D01*
X160875000Y-63550000D02*
X158252000Y-66173000D01*
X99100000Y-34200000D02*
X103500000Y-34200000D01*
X163750000Y-66425000D02*
X163750000Y-71575000D01*
X146300000Y-47375000D02*
X146300000Y-39050000D01*
X140450000Y-55498000D02*
X140450000Y-53375000D01*
X125500000Y-34500000D02*
X126000000Y-34000000D01*
X158252000Y-66173000D02*
X151125000Y-66173000D01*
X136100000Y-66250000D02*
X139575000Y-66250000D01*
X108600000Y-34500000D02*
X125500000Y-34500000D01*
X140400000Y-53275000D02*
X146300000Y-47375000D01*
X151125000Y-66173000D02*
X140450000Y-55498000D01*
X140450000Y-53375000D02*
X140375000Y-53300000D01*
X160875000Y-63550000D02*
X163750000Y-66425000D01*
D15*
%TO.N,5v_Wireless*%
X151375000Y-61500000D02*
X153600000Y-59275000D01*
X153600000Y-59275000D02*
X153600000Y-34600000D01*
X151375000Y-63500000D02*
X151375000Y-61500000D01*
%TO.N,V_Batt*%
X155725000Y-84600000D02*
X141525000Y-70400000D01*
%TO.N,-9v*%
X109200000Y-86475000D02*
X85425000Y-86475000D01*
X110080000Y-88350000D02*
X110080000Y-87355000D01*
X85425000Y-86475000D02*
X80525000Y-81575000D01*
X110080000Y-87355000D02*
X109200000Y-86475000D01*
%TO.N,5v_Sys*%
X157950000Y-80300241D02*
X157950000Y-84325000D01*
X157950000Y-84325000D02*
X154800000Y-87475000D01*
X154800000Y-87475000D02*
X122500000Y-87475000D01*
X123550000Y-81075000D02*
X123550000Y-70550000D01*
X159775000Y-78475241D02*
X157950000Y-80300241D01*
X119825000Y-84800000D02*
X123550000Y-81075000D01*
X122500000Y-87475000D02*
X119825000Y-84800000D01*
%TO.N,-3V3*%
X41350000Y-60500000D02*
X41350000Y-48425000D01*
X41350000Y-36175000D02*
X41300000Y-36125000D01*
X41350000Y-60275000D02*
X41350000Y-60500000D01*
X41350000Y-72400000D02*
X41350000Y-60500000D01*
X41350000Y-48425000D02*
X41350000Y-36175000D01*
X41350000Y-48425000D02*
X41350000Y-48275000D01*
%TO.N,+3.3VA*%
X68375000Y-71300000D02*
X68375000Y-63250000D01*
X48650000Y-28850000D02*
X47325000Y-27525000D01*
X63325000Y-49375000D02*
X62975000Y-49025000D01*
X68375000Y-49375000D02*
X68375000Y-40375000D01*
X48650000Y-39675000D02*
X48650000Y-28850000D01*
X68375000Y-40375000D02*
X63325000Y-35325000D01*
X47350000Y-63350000D02*
X49600000Y-63350000D01*
X62975000Y-49025000D02*
X61050000Y-49025000D01*
X48550000Y-51650000D02*
X47350000Y-51650000D01*
X48650000Y-51400000D02*
X48650000Y-51550000D01*
X61050000Y-49025000D02*
X59650000Y-50425000D01*
X49550000Y-63350000D02*
X49550000Y-52525000D01*
X49550000Y-52525000D02*
X48650000Y-51625000D01*
X48650000Y-39675000D02*
X47300000Y-39675000D01*
X68375000Y-49375000D02*
X63325000Y-49375000D01*
X62975000Y-76700000D02*
X68375000Y-71300000D01*
X68375000Y-63250000D02*
X68375000Y-49375000D01*
X62975000Y-84500000D02*
X62975000Y-77550000D01*
X78025000Y-30725000D02*
X81525000Y-30725000D01*
X68375000Y-63250000D02*
X67700000Y-63250000D01*
X62975000Y-77550000D02*
X62975000Y-77250000D01*
X48650000Y-51550000D02*
X48550000Y-51650000D01*
X48650000Y-51400000D02*
X48650000Y-39675000D01*
X49600000Y-63350000D02*
X62975000Y-76725000D01*
X48650000Y-51625000D02*
X48650000Y-51400000D01*
X68375000Y-40375000D02*
X78025000Y-30725000D01*
X62975000Y-77250000D02*
X62975000Y-76700000D01*
X65625000Y-85950000D02*
X64425000Y-85950000D01*
X64425000Y-85950000D02*
X62975000Y-84500000D01*
X47350000Y-63350000D02*
X49550000Y-63350000D01*
D14*
%TO.N,Vref*%
X54425000Y-30425000D02*
X57200000Y-27650000D01*
X57625000Y-68025000D02*
X56375000Y-66775000D01*
X56375000Y-66775000D02*
X54425000Y-64825000D01*
X57200000Y-27650000D02*
X64150000Y-27650000D01*
X64475000Y-68025000D02*
X57625000Y-68025000D01*
X54425000Y-64825000D02*
X54425000Y-30425000D01*
D16*
%TO.N,Stim_gnd*%
X52350000Y-72425000D02*
X52350000Y-72450000D01*
X45768888Y-79031112D02*
X21750000Y-79031112D01*
X52350000Y-72450000D02*
X45768888Y-79031112D01*
D14*
%TO.N,Stim_out*%
X20941112Y-76491112D02*
X20225000Y-75775000D01*
X20225000Y-75775000D02*
X20225000Y-51725000D01*
X21750000Y-76491112D02*
X20941112Y-76491112D01*
X20225000Y-51725000D02*
X26225000Y-45725000D01*
%TO.N,Net-(IC14-+IN2)*%
X53850000Y-88925000D02*
X45225000Y-88925000D01*
X45225000Y-88925000D02*
X40225000Y-83925000D01*
D16*
%TO.N,OUT_SEL*%
X152500000Y-39275000D02*
X152500000Y-59300000D01*
X150950000Y-37725000D02*
X152500000Y-39275000D01*
D14*
%TO.N,V_Fuel*%
X158298000Y-69323000D02*
X140062000Y-69323000D01*
X140062000Y-69323000D02*
X138985000Y-70400000D01*
X160475000Y-71500000D02*
X158298000Y-69323000D01*
D16*
%TO.N,CHRG_STAT2*%
X161725000Y-70675000D02*
X161725000Y-72275000D01*
X157840500Y-66790500D02*
X161725000Y-70675000D01*
X138115000Y-56485000D02*
X140244170Y-56485000D01*
X150549670Y-66790500D02*
X157840500Y-66790500D01*
X140244170Y-56485000D02*
X150549670Y-66790500D01*
D14*
%TO.N,CHRG_STAT1*%
X160800000Y-66500000D02*
X150670000Y-66500000D01*
X150670000Y-66500000D02*
X138115000Y-53945000D01*
D16*
%TO.N,SDA*%
X143004000Y-65446000D02*
X107879000Y-65446000D01*
X143475000Y-64975000D02*
X143004000Y-65446000D01*
X107879000Y-65446000D02*
X103925000Y-69400000D01*
%TO.N,SCL*%
X143800000Y-65700000D02*
X108800000Y-65700000D01*
X144475000Y-65025000D02*
X143800000Y-65700000D01*
X108800000Y-65700000D02*
X105100000Y-69400000D01*
D14*
%TO.N,Net-(IC14-+IN1)*%
X45775000Y-87675000D02*
X45750000Y-87650000D01*
X56275000Y-87675000D02*
X45775000Y-87675000D01*
D16*
%TO.N,OADC_1*%
X81675000Y-37000000D02*
X81675000Y-43656250D01*
%TO.N,OADC_2*%
X80875000Y-45506250D02*
X82250000Y-46881250D01*
X80875000Y-38400000D02*
X80875000Y-45506250D01*
X80900000Y-38375000D02*
X80875000Y-38400000D01*
%TO.N,OADC_3*%
X79750000Y-39625000D02*
X79750000Y-47025000D01*
X79750000Y-47025000D02*
X82250000Y-49525000D01*
%TO.N,OADC_4*%
X78750000Y-48681250D02*
X82250000Y-52181250D01*
X78750000Y-41150000D02*
X78750000Y-48681250D01*
%TO.N,MCLK*%
X92375000Y-33500000D02*
X92375000Y-48607740D01*
X92375000Y-48607740D02*
X83725000Y-57257740D01*
%TO.N,~{IRQ}*%
X84765500Y-58855750D02*
X83725000Y-59896250D01*
X93250000Y-34600000D02*
X93250000Y-52452250D01*
X86846500Y-58855750D02*
X84765500Y-58855750D01*
X93250000Y-52452250D02*
X86846500Y-58855750D01*
%TO.N,SDO*%
X86236990Y-61395750D02*
X84765500Y-61395750D01*
X84765500Y-61395750D02*
X83725000Y-62436250D01*
X94425000Y-35600000D02*
X94425000Y-53207740D01*
X94425000Y-53207740D02*
X86236990Y-61395750D01*
%TO.N,SDI*%
X84765500Y-63935750D02*
X83725000Y-64976250D01*
X95450000Y-36675000D02*
X95450000Y-54722740D01*
X86236990Y-63935750D02*
X84765500Y-63935750D01*
X95450000Y-54722740D02*
X86236990Y-63935750D01*
%TO.N,SCK*%
X96525000Y-37825000D02*
X96525000Y-56646740D01*
X96525000Y-56646740D02*
X86695990Y-66475750D01*
X84765500Y-66475750D02*
X83725000Y-67516250D01*
X86695990Y-66475750D02*
X84765500Y-66475750D01*
%TO.N,~{CS}*%
X84765500Y-69015750D02*
X83725000Y-70056250D01*
X97675000Y-38775000D02*
X97675000Y-57577740D01*
X86236990Y-69015750D02*
X84765500Y-69015750D01*
X97675000Y-57577740D02*
X86236990Y-69015750D01*
%TO.N,RX*%
X132400000Y-37075000D02*
X138200000Y-31275000D01*
X127125000Y-37075000D02*
X132400000Y-37075000D01*
%TO.N,TX*%
X134065000Y-37950000D02*
X138200000Y-33815000D01*
X127100000Y-37950000D02*
X134065000Y-37950000D01*
%TO.N,Probe_in_1+*%
X22113888Y-58711112D02*
X33125000Y-47700000D01*
X33125000Y-47700000D02*
X33125000Y-37875000D01*
%TO.N,Probe_in_1-*%
X30050000Y-47871112D02*
X30050000Y-37050000D01*
X21750000Y-56171112D02*
X30050000Y-47871112D01*
%TO.N,Probe_in_2+*%
X21750000Y-63791112D02*
X36850000Y-48691112D01*
X36850000Y-48691112D02*
X36850000Y-43350000D01*
%TO.N,Probe_in_2-*%
X35025000Y-41025000D02*
X35000000Y-41050000D01*
X35000000Y-47875000D02*
X21750000Y-61125000D01*
X35000000Y-41050000D02*
X35000000Y-47875000D01*
%TO.N,Probe_in_3+*%
X21750000Y-68725000D02*
X35950000Y-54525000D01*
%TO.N,Probe_in_3-*%
X21793888Y-66331112D02*
X36775000Y-51350000D01*
%TO.N,Probe_in_4-*%
X33375000Y-59786112D02*
X21750000Y-71411112D01*
X33375000Y-59775000D02*
X33375000Y-59786112D01*
D14*
%TO.N,Stim_control+*%
X71662448Y-89600000D02*
X56675000Y-89600000D01*
X103102000Y-73385448D02*
X97610448Y-78877000D01*
X72052000Y-89210448D02*
X71662448Y-89600000D01*
X115975000Y-44775000D02*
X114956276Y-45793724D01*
X114956276Y-45793724D02*
X110268724Y-45793724D01*
X56675000Y-89600000D02*
X55298000Y-90977000D01*
X97610448Y-78877000D02*
X89300000Y-78877000D01*
X72368514Y-85793514D02*
X72052000Y-86110028D01*
X39250000Y-88375000D02*
X39250000Y-85650000D01*
X110268724Y-45793724D02*
X103102000Y-52960448D01*
X72052000Y-86110028D02*
X72052000Y-89210448D01*
X41852000Y-90977000D02*
X39250000Y-88375000D01*
X89300000Y-78877000D02*
X79285028Y-78877000D01*
X79285028Y-78877000D02*
X72368514Y-85793514D01*
X103102000Y-52960448D02*
X103102000Y-73385448D01*
X55298000Y-90977000D02*
X41852000Y-90977000D01*
%TO.N,Stim_control-*%
X71725000Y-89075000D02*
X56425000Y-89075000D01*
X71725000Y-85974580D02*
X71725000Y-89075000D01*
X79149580Y-78550000D02*
X71725000Y-85974580D01*
X43050000Y-90650000D02*
X41050000Y-88650000D01*
X97475000Y-78550000D02*
X79149580Y-78550000D01*
X115125000Y-44750000D02*
X110850000Y-44750000D01*
X102775000Y-52825000D02*
X102775000Y-73250000D01*
X56425000Y-89075000D02*
X54850000Y-90650000D01*
X102775000Y-73250000D02*
X97475000Y-78550000D01*
X54850000Y-90650000D02*
X43050000Y-90650000D01*
X110850000Y-44750000D02*
X102775000Y-52825000D01*
%TO.N,D-*%
X140637499Y-86462501D02*
X140637499Y-78505698D01*
X140637499Y-78505698D02*
X129121967Y-66990166D01*
X140375000Y-86725000D02*
X140637499Y-86462501D01*
X129121967Y-66990166D02*
X128909834Y-66990166D01*
%TO.N,D+*%
X141350000Y-86725000D02*
X141087501Y-86462501D01*
X141087501Y-78319302D02*
X129440166Y-66671967D01*
X129440166Y-66671967D02*
X129440166Y-66459834D01*
X141087501Y-86462501D02*
X141087501Y-78319302D01*
D16*
%TO.N,Net-(IC2-SS)*%
X152525000Y-64700000D02*
X152125000Y-65100000D01*
X152525000Y-61825000D02*
X152525000Y-64700000D01*
%TD*%
%TA.AperFunction,Conductor*%
%TO.N,GND*%
G36*
X98400000Y-95549500D02*
G01*
X93524500Y-95549500D01*
X91850000Y-93875000D01*
X91850000Y-87225500D01*
X98400000Y-87225500D01*
X98400000Y-95549500D01*
G37*
%TD.AperFunction*%
%TA.AperFunction,Conductor*%
G36*
X98400000Y-85724500D02*
G01*
X91850000Y-85724500D01*
X91850000Y-82750000D01*
X98400000Y-82750000D01*
X98400000Y-85724500D01*
G37*
%TD.AperFunction*%
%TD*%
%TA.AperFunction,Conductor*%
%TO.N,GND*%
G36*
X99150000Y-71800000D02*
G01*
X99125000Y-71825000D01*
X94500000Y-71825000D01*
X92600000Y-69925000D01*
X92600000Y-63450357D01*
X94150357Y-61900000D01*
X99150000Y-61900000D01*
X99150000Y-71800000D01*
G37*
%TD.AperFunction*%
%TD*%
%TA.AperFunction,Conductor*%
%TO.N,GND*%
G36*
X99075000Y-33597609D02*
G01*
X99064744Y-33598959D01*
X99060639Y-33599500D01*
X98943237Y-33614956D01*
X98797161Y-33675462D01*
X98746982Y-33713965D01*
X98671718Y-33771718D01*
X98671716Y-33771719D01*
X98671715Y-33771721D01*
X98652490Y-33796774D01*
X98641798Y-33808965D01*
X97924759Y-34526004D01*
X97890880Y-34550043D01*
X97850963Y-34561543D01*
X97831944Y-34563686D01*
X97831941Y-34563686D01*
X97831941Y-34563687D01*
X97672310Y-34619544D01*
X97672308Y-34619544D01*
X97672308Y-34619545D01*
X97584052Y-34675000D01*
X94425000Y-34675000D01*
X93115042Y-33365042D01*
X93111313Y-33331941D01*
X93055456Y-33172310D01*
X92965477Y-33029110D01*
X92845890Y-32909523D01*
X92702690Y-32819544D01*
X92543059Y-32763687D01*
X92543058Y-32763686D01*
X92543056Y-32763686D01*
X92525000Y-32761652D01*
X92525000Y-25025500D01*
X99075000Y-25025500D01*
X99075000Y-33597609D01*
G37*
%TD.AperFunction*%
%TD*%
%TA.AperFunction,Conductor*%
%TO.N,GND*%
G36*
X92525000Y-32761652D02*
G01*
X92375000Y-32744750D01*
X92206943Y-32763686D01*
X92047310Y-32819544D01*
X91904108Y-32909524D01*
X91784524Y-33029108D01*
X91694544Y-33172310D01*
X91638686Y-33331943D01*
X91619750Y-33499999D01*
X91638686Y-33668056D01*
X91638686Y-33668058D01*
X91638687Y-33668059D01*
X91694544Y-33827690D01*
X91784523Y-33970890D01*
X91784524Y-33970891D01*
X91791957Y-33982720D01*
X91789988Y-33983956D01*
X91801561Y-34001276D01*
X91811000Y-34048729D01*
X91811000Y-48322762D01*
X91801561Y-48370215D01*
X91774681Y-48410443D01*
X88681699Y-51503423D01*
X88636429Y-51532264D01*
X88583211Y-51539270D01*
X88532018Y-51523129D01*
X88492443Y-51486866D01*
X88488997Y-51481944D01*
X88368495Y-51309849D01*
X88201401Y-51142755D01*
X88007830Y-51007215D01*
X87918384Y-50965505D01*
X87866211Y-50919750D01*
X87846791Y-50853125D01*
X87866211Y-50786500D01*
X87918384Y-50740744D01*
X88007830Y-50699035D01*
X88201401Y-50563495D01*
X88368495Y-50396401D01*
X88504035Y-50202830D01*
X88603903Y-49988663D01*
X88665063Y-49760408D01*
X88685659Y-49525000D01*
X88665063Y-49289592D01*
X88603903Y-49061337D01*
X88504035Y-48847171D01*
X88368495Y-48653599D01*
X88201401Y-48486505D01*
X88007830Y-48350965D01*
X88007826Y-48350962D01*
X87939954Y-48319313D01*
X87931789Y-48315506D01*
X87879614Y-48269750D01*
X87860194Y-48203125D01*
X87879614Y-48136500D01*
X87931790Y-48090743D01*
X87935966Y-48088796D01*
X88007830Y-48055285D01*
X88201401Y-47919745D01*
X88368495Y-47752651D01*
X88504035Y-47559080D01*
X88603903Y-47344913D01*
X88665063Y-47116658D01*
X88685659Y-46881250D01*
X88665063Y-46645842D01*
X88603903Y-46417587D01*
X88504035Y-46203421D01*
X88368495Y-46009849D01*
X88201401Y-45842755D01*
X88007830Y-45707215D01*
X87925087Y-45668631D01*
X87872912Y-45622875D01*
X87853493Y-45556250D01*
X87872912Y-45489625D01*
X87925087Y-45443868D01*
X88007830Y-45405285D01*
X88201401Y-45269745D01*
X88368495Y-45102651D01*
X88504035Y-44909080D01*
X88603903Y-44694913D01*
X88665063Y-44466658D01*
X88685659Y-44231250D01*
X88665063Y-43995842D01*
X88603903Y-43767587D01*
X88504035Y-43553421D01*
X88368495Y-43359849D01*
X88201401Y-43192755D01*
X88007830Y-43057215D01*
X87793663Y-42957347D01*
X87732502Y-42940959D01*
X87565407Y-42896186D01*
X87330000Y-42875590D01*
X87094592Y-42896186D01*
X86866336Y-42957347D01*
X86652170Y-43057215D01*
X86458598Y-43192755D01*
X86291505Y-43359848D01*
X86161575Y-43545409D01*
X86117257Y-43584275D01*
X86060000Y-43598286D01*
X86002743Y-43584275D01*
X85958425Y-43545409D01*
X85828494Y-43359848D01*
X85661404Y-43192758D01*
X85661401Y-43192755D01*
X85467830Y-43057215D01*
X85253663Y-42957347D01*
X85192502Y-42940959D01*
X85025407Y-42896186D01*
X84790000Y-42875590D01*
X84554592Y-42896186D01*
X84326336Y-42957347D01*
X84112170Y-43057215D01*
X83918601Y-43192753D01*
X83796673Y-43314681D01*
X83743926Y-43345976D01*
X83682634Y-43348165D01*
X83627789Y-43320712D01*
X83592810Y-43270332D01*
X83585658Y-43251157D01*
X83543796Y-43138919D01*
X83457546Y-43023704D01*
X83342331Y-42937454D01*
X83207483Y-42887159D01*
X83147873Y-42880750D01*
X83147869Y-42880750D01*
X83147843Y-42880750D01*
X82362999Y-42880750D01*
X82301000Y-42864138D01*
X82255613Y-42818751D01*
X82239000Y-42756751D01*
X82239000Y-37548729D01*
X82248439Y-37501276D01*
X82260011Y-37483956D01*
X82258043Y-37482720D01*
X82265474Y-37470892D01*
X82265477Y-37470890D01*
X82355456Y-37327690D01*
X82411313Y-37168059D01*
X82430249Y-37000000D01*
X82411313Y-36831941D01*
X82355456Y-36672310D01*
X82265477Y-36529110D01*
X82145890Y-36409523D01*
X82002690Y-36319544D01*
X81843059Y-36263687D01*
X81843058Y-36263686D01*
X81843056Y-36263686D01*
X81675000Y-36244750D01*
X81506943Y-36263686D01*
X81347310Y-36319544D01*
X81204108Y-36409524D01*
X81084524Y-36529108D01*
X80994544Y-36672310D01*
X80938686Y-36831943D01*
X80919750Y-36999999D01*
X80938686Y-37168056D01*
X80994545Y-37327693D01*
X81062251Y-37435445D01*
X81081258Y-37501416D01*
X81062252Y-37567388D01*
X81011060Y-37613137D01*
X80943375Y-37624637D01*
X80900001Y-37619750D01*
X80731943Y-37638686D01*
X80572310Y-37694544D01*
X80429108Y-37784524D01*
X80309524Y-37904108D01*
X80219544Y-38047310D01*
X80163686Y-38206943D01*
X80144750Y-38375000D01*
X80163686Y-38543056D01*
X80219544Y-38702690D01*
X80274153Y-38789599D01*
X80293128Y-38852789D01*
X80277007Y-38916766D01*
X80230354Y-38963419D01*
X80166377Y-38979540D01*
X80103187Y-38960565D01*
X80077690Y-38944544D01*
X79918056Y-38888686D01*
X79750000Y-38869750D01*
X79581943Y-38888686D01*
X79422310Y-38944544D01*
X79279108Y-39034524D01*
X79159524Y-39154108D01*
X79069544Y-39297310D01*
X79013686Y-39456943D01*
X78994750Y-39624999D01*
X79013686Y-39793056D01*
X79013686Y-39793058D01*
X79013687Y-39793059D01*
X79069544Y-39952690D01*
X79159523Y-40095890D01*
X79159524Y-40095891D01*
X79166957Y-40107720D01*
X79164988Y-40108956D01*
X79176561Y-40126276D01*
X79186000Y-40173729D01*
X79186000Y-40332682D01*
X79172167Y-40389596D01*
X79133755Y-40433812D01*
X79079334Y-40455464D01*
X79021048Y-40449724D01*
X78918059Y-40413687D01*
X78918055Y-40413686D01*
X78918054Y-40413686D01*
X78750000Y-40394750D01*
X78581943Y-40413686D01*
X78422310Y-40469544D01*
X78279108Y-40559524D01*
X78159524Y-40679108D01*
X78069544Y-40822310D01*
X78013686Y-40981943D01*
X77994750Y-41149999D01*
X78013686Y-41318056D01*
X78013686Y-41318058D01*
X78013687Y-41318059D01*
X78069544Y-41477690D01*
X78159523Y-41620890D01*
X78159524Y-41620891D01*
X78166957Y-41632720D01*
X78164988Y-41633956D01*
X78176561Y-41651276D01*
X78186000Y-41698729D01*
X78186000Y-48636156D01*
X78184939Y-48652342D01*
X78181132Y-48681250D01*
X78198261Y-48811354D01*
X78200517Y-48828484D01*
X78257347Y-48965683D01*
X78311212Y-49035883D01*
X78347750Y-49083500D01*
X78360603Y-49093362D01*
X78370884Y-49101251D01*
X78383079Y-49111946D01*
X79630277Y-50359144D01*
X80863181Y-51592047D01*
X80890061Y-51632275D01*
X80899500Y-51679728D01*
X80899500Y-53079119D01*
X80905909Y-53138734D01*
X80917856Y-53170765D01*
X80956204Y-53273581D01*
X81042454Y-53388796D01*
X81157669Y-53475046D01*
X81292517Y-53525341D01*
X81352127Y-53531750D01*
X83147872Y-53531749D01*
X83207483Y-53525341D01*
X83342331Y-53475046D01*
X83457546Y-53388796D01*
X83543796Y-53273581D01*
X83592810Y-53142166D01*
X83627789Y-53091787D01*
X83682634Y-53064334D01*
X83743927Y-53066523D01*
X83796673Y-53097818D01*
X83918599Y-53219745D01*
X84112170Y-53355285D01*
X84326337Y-53455153D01*
X84554592Y-53516313D01*
X84790000Y-53536909D01*
X85025408Y-53516313D01*
X85253663Y-53455153D01*
X85467830Y-53355285D01*
X85661401Y-53219745D01*
X85828495Y-53052651D01*
X85958426Y-52867089D01*
X86002743Y-52828225D01*
X86060000Y-52814214D01*
X86117257Y-52828225D01*
X86161573Y-52867089D01*
X86291505Y-53052651D01*
X86458599Y-53219745D01*
X86635617Y-53343695D01*
X86671879Y-53383268D01*
X86688020Y-53434461D01*
X86681014Y-53487679D01*
X86652173Y-53532949D01*
X84171547Y-56013574D01*
X84115959Y-56045668D01*
X84051773Y-56045668D01*
X83995266Y-56030527D01*
X83960405Y-56021186D01*
X83725000Y-56000590D01*
X83489592Y-56021186D01*
X83261336Y-56082347D01*
X83047170Y-56182215D01*
X82853598Y-56317755D01*
X82686505Y-56484848D01*
X82550965Y-56678420D01*
X82451097Y-56892586D01*
X82389936Y-57120842D01*
X82369340Y-57356249D01*
X82389936Y-57591657D01*
X82425658Y-57724974D01*
X82451097Y-57819913D01*
X82550965Y-58034080D01*
X82686505Y-58227651D01*
X82853599Y-58394745D01*
X83039160Y-58524676D01*
X83078024Y-58568993D01*
X83092035Y-58626250D01*
X83078024Y-58683507D01*
X83039159Y-58727825D01*
X82853595Y-58857758D01*
X82686505Y-59024848D01*
X82550965Y-59218420D01*
X82451097Y-59432586D01*
X82389936Y-59660842D01*
X82369340Y-59896250D01*
X82389936Y-60131657D01*
X82420545Y-60245890D01*
X82451097Y-60359913D01*
X82550965Y-60574080D01*
X82686505Y-60767651D01*
X82853599Y-60934745D01*
X83039160Y-61064676D01*
X83078024Y-61108993D01*
X83092035Y-61166250D01*
X83078024Y-61223507D01*
X83039158Y-61267825D01*
X82876403Y-61381788D01*
X82853595Y-61397758D01*
X82686505Y-61564848D01*
X82550965Y-61758420D01*
X82451097Y-61972586D01*
X82389936Y-62200842D01*
X82369340Y-62436249D01*
X82389936Y-62671657D01*
X82434709Y-62838752D01*
X82451097Y-62899913D01*
X82550965Y-63114080D01*
X82686505Y-63307651D01*
X82853599Y-63474745D01*
X83039160Y-63604676D01*
X83078024Y-63648993D01*
X83092035Y-63706250D01*
X83078024Y-63763507D01*
X83039158Y-63807825D01*
X82896500Y-63907716D01*
X82853595Y-63937758D01*
X82686505Y-64104848D01*
X82550965Y-64298420D01*
X82451097Y-64512586D01*
X82389936Y-64740842D01*
X82369340Y-64976250D01*
X82389936Y-65211657D01*
X82425857Y-65345716D01*
X82451097Y-65439913D01*
X82550965Y-65654080D01*
X82686505Y-65847651D01*
X82853599Y-66014745D01*
X83039160Y-66144676D01*
X83078024Y-66188993D01*
X83092035Y-66246250D01*
X83078024Y-66303507D01*
X83039159Y-66347825D01*
X82853595Y-66477758D01*
X82686505Y-66644848D01*
X82550965Y-66838420D01*
X82451097Y-67052586D01*
X82389936Y-67280842D01*
X82369340Y-67516249D01*
X82389936Y-67751657D01*
X82425857Y-67885716D01*
X82451097Y-67979913D01*
X82550965Y-68194080D01*
X82686505Y-68387651D01*
X82853599Y-68554745D01*
X83039160Y-68684676D01*
X83078024Y-68728993D01*
X83092035Y-68786250D01*
X83078024Y-68843507D01*
X83039159Y-68887825D01*
X82853595Y-69017758D01*
X82686505Y-69184848D01*
X82550965Y-69378420D01*
X82451097Y-69592586D01*
X82389936Y-69820842D01*
X82369340Y-70056250D01*
X82389936Y-70291657D01*
X82425857Y-70425716D01*
X82451097Y-70519913D01*
X82550965Y-70734080D01*
X82686505Y-70927651D01*
X82853599Y-71094745D01*
X83047170Y-71230285D01*
X83261337Y-71330153D01*
X83489592Y-71391313D01*
X83725000Y-71411909D01*
X83960408Y-71391313D01*
X84188663Y-71330153D01*
X84402830Y-71230285D01*
X84596401Y-71094745D01*
X84763495Y-70927651D01*
X84893426Y-70742089D01*
X84937743Y-70703225D01*
X84995000Y-70689214D01*
X85052257Y-70703225D01*
X85096573Y-70742089D01*
X85226505Y-70927651D01*
X85393599Y-71094745D01*
X85587170Y-71230285D01*
X85801337Y-71330153D01*
X86029592Y-71391313D01*
X86265000Y-71411909D01*
X86500408Y-71391313D01*
X86728663Y-71330153D01*
X86942830Y-71230285D01*
X87136401Y-71094745D01*
X87303495Y-70927651D01*
X87439035Y-70734080D01*
X87538903Y-70519913D01*
X87600063Y-70291658D01*
X87620659Y-70056250D01*
X87600063Y-69820842D01*
X87538903Y-69592587D01*
X87439035Y-69378421D01*
X87303495Y-69184849D01*
X87172182Y-69053536D01*
X87140088Y-68997949D01*
X87140088Y-68933761D01*
X87172182Y-68878174D01*
X92600000Y-63450357D01*
X92600000Y-69925000D01*
X94500000Y-71825000D01*
X94850000Y-71825000D01*
X94850000Y-77825500D01*
X94833387Y-77887500D01*
X94788000Y-77932887D01*
X94726000Y-77949500D01*
X79197067Y-77949500D01*
X79180882Y-77948439D01*
X79176956Y-77947922D01*
X79149579Y-77944317D01*
X79114321Y-77948959D01*
X79110219Y-77949500D01*
X78992817Y-77964956D01*
X78846741Y-78025462D01*
X78796562Y-78063965D01*
X78721298Y-78121718D01*
X78721296Y-78121719D01*
X78721295Y-78121721D01*
X78702070Y-78146774D01*
X78691378Y-78158965D01*
X71333965Y-85516378D01*
X71321773Y-85527071D01*
X71296717Y-85546297D01*
X71217145Y-85650000D01*
X71217143Y-85650001D01*
X71200463Y-85671739D01*
X71139956Y-85817817D01*
X71119317Y-85974579D01*
X71123439Y-86005881D01*
X71124500Y-86022067D01*
X71124500Y-88350500D01*
X71107887Y-88412500D01*
X71062500Y-88457887D01*
X71000500Y-88474500D01*
X56836229Y-88474500D01*
X56779934Y-88460985D01*
X56735911Y-88423385D01*
X56713756Y-88369898D01*
X56718298Y-88312182D01*
X56748548Y-88262819D01*
X56748548Y-88262818D01*
X56865477Y-88145890D01*
X56955456Y-88002690D01*
X57011313Y-87843059D01*
X57030249Y-87675000D01*
X57011313Y-87506941D01*
X56955456Y-87347310D01*
X56865477Y-87204110D01*
X56745890Y-87084523D01*
X56602690Y-86994544D01*
X56443059Y-86938687D01*
X56443058Y-86938686D01*
X56443056Y-86938686D01*
X56274999Y-86919750D01*
X56106943Y-86938686D01*
X55947309Y-86994544D01*
X55850309Y-87055494D01*
X55784337Y-87074500D01*
X46280449Y-87074500D01*
X46214478Y-87055494D01*
X46077690Y-86969544D01*
X45918059Y-86913687D01*
X45918058Y-86913686D01*
X45918056Y-86913686D01*
X45750000Y-86894750D01*
X45581943Y-86913686D01*
X45422310Y-86969544D01*
X45279108Y-87059524D01*
X45159524Y-87179108D01*
X45069544Y-87322310D01*
X45013686Y-87481943D01*
X45003781Y-87569849D01*
X44977508Y-87633277D01*
X44921515Y-87673006D01*
X44852968Y-87676855D01*
X44792880Y-87643645D01*
X40998995Y-83849760D01*
X40974955Y-83815880D01*
X40963456Y-83775966D01*
X40961313Y-83756941D01*
X40905456Y-83597310D01*
X40815477Y-83454110D01*
X40695890Y-83334523D01*
X40552690Y-83244544D01*
X40393059Y-83188687D01*
X40393058Y-83188686D01*
X40393056Y-83188686D01*
X40225000Y-83169750D01*
X40056943Y-83188686D01*
X39897310Y-83244544D01*
X39754108Y-83334524D01*
X39634524Y-83454108D01*
X39544544Y-83597310D01*
X39488686Y-83756943D01*
X39469750Y-83925000D01*
X39488686Y-84093056D01*
X39488686Y-84093058D01*
X39488687Y-84093059D01*
X39544544Y-84252690D01*
X39634523Y-84395890D01*
X39754110Y-84515477D01*
X39897310Y-84605456D01*
X40056941Y-84661313D01*
X40075966Y-84663456D01*
X40115880Y-84674955D01*
X40149760Y-84698995D01*
X44766799Y-89316034D01*
X44777494Y-89328229D01*
X44796717Y-89353282D01*
X44839765Y-89386313D01*
X44922159Y-89449536D01*
X45068238Y-89510044D01*
X45193698Y-89526561D01*
X45224999Y-89530682D01*
X45224999Y-89530681D01*
X45225000Y-89530682D01*
X45256302Y-89526560D01*
X45272487Y-89525500D01*
X53359337Y-89525500D01*
X53425308Y-89544505D01*
X53522310Y-89605456D01*
X53681941Y-89661313D01*
X53850000Y-89680249D01*
X54018059Y-89661313D01*
X54177690Y-89605456D01*
X54320890Y-89515477D01*
X54440477Y-89395890D01*
X54530456Y-89252690D01*
X54586313Y-89093059D01*
X54605249Y-88925000D01*
X54586313Y-88756941D01*
X54530456Y-88597310D01*
X54447615Y-88465471D01*
X54428659Y-88402978D01*
X54444082Y-88339519D01*
X54489609Y-88292697D01*
X54552610Y-88275500D01*
X55784337Y-88275500D01*
X55850308Y-88294505D01*
X55947310Y-88355456D01*
X56025414Y-88382785D01*
X56079571Y-88420268D01*
X56106895Y-88480198D01*
X56099674Y-88545666D01*
X56059945Y-88598201D01*
X55996717Y-88646718D01*
X55977490Y-88671774D01*
X55966798Y-88683965D01*
X54637584Y-90013181D01*
X54597356Y-90040061D01*
X54549903Y-90049500D01*
X43350097Y-90049500D01*
X43302644Y-90040061D01*
X43262416Y-90013181D01*
X41823995Y-88574760D01*
X41799955Y-88540880D01*
X41788456Y-88500966D01*
X41786313Y-88481941D01*
X41730456Y-88322310D01*
X41640477Y-88179110D01*
X41520890Y-88059523D01*
X41377690Y-87969544D01*
X41218059Y-87913687D01*
X41218058Y-87913686D01*
X41218056Y-87913686D01*
X41050000Y-87894750D01*
X40881943Y-87913686D01*
X40722310Y-87969544D01*
X40579108Y-88059524D01*
X40459524Y-88179108D01*
X40369543Y-88322311D01*
X40350996Y-88375314D01*
X40316581Y-88426819D01*
X40261547Y-88455249D01*
X40199627Y-88453512D01*
X40146274Y-88422039D01*
X39886819Y-88162584D01*
X39859939Y-88122356D01*
X39850500Y-88074903D01*
X39850500Y-86140663D01*
X39869506Y-86074691D01*
X39930456Y-85977690D01*
X39986313Y-85818059D01*
X40005249Y-85650000D01*
X39986313Y-85481941D01*
X39930456Y-85322310D01*
X39840477Y-85179110D01*
X39720890Y-85059523D01*
X39577690Y-84969544D01*
X39418059Y-84913687D01*
X39418058Y-84913686D01*
X39418056Y-84913686D01*
X39250000Y-84894750D01*
X39081943Y-84913686D01*
X38922310Y-84969544D01*
X38779108Y-85059524D01*
X38659524Y-85179108D01*
X38569544Y-85322310D01*
X38513686Y-85481943D01*
X38494750Y-85649999D01*
X38513686Y-85818056D01*
X38569544Y-85977690D01*
X38630494Y-86074691D01*
X38649500Y-86140663D01*
X38649500Y-88327513D01*
X38648439Y-88343699D01*
X38644317Y-88375000D01*
X38649500Y-88414360D01*
X38649500Y-88414361D01*
X38664956Y-88531762D01*
X38725463Y-88677840D01*
X38821716Y-88803281D01*
X38846768Y-88822503D01*
X38858964Y-88833199D01*
X41393799Y-91368034D01*
X41404494Y-91380229D01*
X41423717Y-91405282D01*
X41528621Y-91485777D01*
X41549159Y-91501536D01*
X41695238Y-91562044D01*
X41820698Y-91578561D01*
X41851999Y-91582682D01*
X41851999Y-91582681D01*
X41852000Y-91582682D01*
X41883302Y-91578560D01*
X41899487Y-91577500D01*
X55250513Y-91577500D01*
X55266697Y-91578560D01*
X55298000Y-91582682D01*
X55454762Y-91562044D01*
X55569219Y-91514633D01*
X55638888Y-91485777D01*
X55662013Y-91454596D01*
X55726282Y-91405282D01*
X55745509Y-91380223D01*
X55756190Y-91368043D01*
X56887415Y-90236819D01*
X56927644Y-90209939D01*
X56975097Y-90200500D01*
X71614961Y-90200500D01*
X71631145Y-90201560D01*
X71662448Y-90205682D01*
X71819210Y-90185044D01*
X71965289Y-90124536D01*
X72042935Y-90064956D01*
X72090730Y-90028282D01*
X72109957Y-90003223D01*
X72120638Y-89991043D01*
X72443043Y-89668638D01*
X72455223Y-89657957D01*
X72480282Y-89638730D01*
X72576536Y-89513289D01*
X72637044Y-89367210D01*
X72652500Y-89249809D01*
X72657682Y-89210448D01*
X72653560Y-89179145D01*
X72652500Y-89162961D01*
X72652500Y-86410125D01*
X72661939Y-86362672D01*
X72688819Y-86322444D01*
X72752974Y-86258289D01*
X72820964Y-86190299D01*
X72820964Y-86190298D01*
X79497443Y-79513819D01*
X79537672Y-79486939D01*
X79585125Y-79477500D01*
X94726000Y-79477500D01*
X94788000Y-79494113D01*
X94833387Y-79539500D01*
X94850000Y-79601500D01*
X94850000Y-82750000D01*
X91850000Y-82750000D01*
X91850000Y-85724500D01*
X85787229Y-85724500D01*
X85739776Y-85715061D01*
X85699548Y-85688181D01*
X81019926Y-81008558D01*
X81019915Y-81008548D01*
X80995890Y-80984523D01*
X80964326Y-80964689D01*
X80953394Y-80956966D01*
X80921679Y-80931890D01*
X80891642Y-80917883D01*
X80878079Y-80910497D01*
X80852690Y-80894544D01*
X80828919Y-80886226D01*
X80814065Y-80881028D01*
X80802617Y-80876369D01*
X80762674Y-80857743D01*
X80733785Y-80851778D01*
X80717910Y-80847382D01*
X80693059Y-80838687D01*
X80693057Y-80838686D01*
X80693055Y-80838686D01*
X80648780Y-80833697D01*
X80637591Y-80831915D01*
X80590859Y-80822265D01*
X80565022Y-80823017D01*
X80547541Y-80822290D01*
X80525002Y-80819751D01*
X80525001Y-80819751D01*
X80477106Y-80825147D01*
X80466836Y-80825873D01*
X80415487Y-80827368D01*
X80394054Y-80833111D01*
X80375849Y-80836556D01*
X80356939Y-80838686D01*
X80308004Y-80855809D01*
X80299148Y-80858541D01*
X80246024Y-80872776D01*
X80229715Y-80881570D01*
X80211827Y-80889464D01*
X80197311Y-80894543D01*
X80150337Y-80924059D01*
X80143218Y-80928208D01*
X80091598Y-80956041D01*
X80080481Y-80965934D01*
X80064036Y-80978284D01*
X80054113Y-80984520D01*
X80012318Y-81026314D01*
X80007074Y-81031261D01*
X79960539Y-81072674D01*
X79954103Y-81081866D01*
X79940219Y-81098413D01*
X79934521Y-81104111D01*
X79901127Y-81157254D01*
X79897713Y-81162398D01*
X79859911Y-81216388D01*
X79857119Y-81223415D01*
X79846886Y-81243581D01*
X79844544Y-81247308D01*
X79822615Y-81309977D01*
X79820813Y-81314802D01*
X79795137Y-81379433D01*
X79794574Y-81383278D01*
X79788930Y-81406245D01*
X79788687Y-81406938D01*
X79780845Y-81476531D01*
X79780316Y-81480615D01*
X79769710Y-81553023D01*
X79769730Y-81553246D01*
X79769488Y-81572671D01*
X79777996Y-81648184D01*
X79778304Y-81651259D01*
X79785243Y-81730571D01*
X79786803Y-81737677D01*
X79814224Y-81816041D01*
X79814888Y-81817990D01*
X79841182Y-81897339D01*
X79887616Y-81971238D01*
X79888161Y-81972114D01*
X79932288Y-82043656D01*
X84849267Y-86960634D01*
X84861048Y-86974266D01*
X84875387Y-86993526D01*
X84875390Y-86993530D01*
X84913355Y-87025386D01*
X84921317Y-87032684D01*
X84925224Y-87036591D01*
X84949537Y-87055815D01*
X84952337Y-87058096D01*
X85010754Y-87107115D01*
X85027165Y-87117569D01*
X85028319Y-87118107D01*
X85028323Y-87118110D01*
X85096328Y-87149821D01*
X85099451Y-87151333D01*
X85166567Y-87185040D01*
X85167704Y-87185611D01*
X85186084Y-87191998D01*
X85187321Y-87192253D01*
X85187327Y-87192256D01*
X85260862Y-87207439D01*
X85264209Y-87208181D01*
X85337279Y-87225500D01*
X85337281Y-87225500D01*
X85338505Y-87225790D01*
X85357876Y-87227769D01*
X85359140Y-87227732D01*
X85359144Y-87227733D01*
X85434110Y-87225552D01*
X85437716Y-87225500D01*
X91850000Y-87225500D01*
X91850000Y-93875000D01*
X93524500Y-95549500D01*
X20064500Y-95549500D01*
X20002500Y-95532887D01*
X19957113Y-95487500D01*
X19940500Y-95425500D01*
X19940500Y-76639097D01*
X19954015Y-76582802D01*
X19991615Y-76538779D01*
X20045102Y-76516624D01*
X20102818Y-76521166D01*
X20152181Y-76551416D01*
X20423524Y-76822759D01*
X20455618Y-76878346D01*
X20476097Y-76954776D01*
X20504076Y-77014777D01*
X20575965Y-77168942D01*
X20711505Y-77362513D01*
X20878599Y-77529607D01*
X21064160Y-77659538D01*
X21103024Y-77703855D01*
X21117035Y-77761112D01*
X21103024Y-77818369D01*
X21064158Y-77862687D01*
X20947578Y-77944318D01*
X20878595Y-77992620D01*
X20711505Y-78159710D01*
X20575965Y-78353282D01*
X20476097Y-78567448D01*
X20414936Y-78795704D01*
X20394340Y-79031112D01*
X20414936Y-79266519D01*
X20425323Y-79305282D01*
X20476097Y-79494775D01*
X20575965Y-79708942D01*
X20711505Y-79902513D01*
X20878599Y-80069607D01*
X21072170Y-80205147D01*
X21286337Y-80305015D01*
X21514592Y-80366175D01*
X21750000Y-80386771D01*
X21985408Y-80366175D01*
X22213663Y-80305015D01*
X22427830Y-80205147D01*
X22621401Y-80069607D01*
X22788495Y-79902513D01*
X22924035Y-79708942D01*
X22943729Y-79666707D01*
X22989486Y-79614532D01*
X23056111Y-79595112D01*
X45723794Y-79595112D01*
X45739977Y-79596172D01*
X45768888Y-79599979D01*
X45916122Y-79580595D01*
X46053321Y-79523765D01*
X46141556Y-79456061D01*
X46141556Y-79456060D01*
X46171138Y-79433362D01*
X46188891Y-79410224D01*
X46199578Y-79398037D01*
X52395243Y-73202372D01*
X52429120Y-73178336D01*
X52469039Y-73166836D01*
X52518059Y-73161313D01*
X52677690Y-73105456D01*
X52820890Y-73015477D01*
X52940477Y-72895890D01*
X53030456Y-72752690D01*
X53086313Y-72593059D01*
X53105249Y-72425000D01*
X53086313Y-72256941D01*
X53030456Y-72097310D01*
X52940477Y-71954110D01*
X52820890Y-71834523D01*
X52677690Y-71744544D01*
X52518059Y-71688687D01*
X52518058Y-71688686D01*
X52518056Y-71688686D01*
X52350000Y-71669750D01*
X52181943Y-71688686D01*
X52022310Y-71744544D01*
X51879108Y-71834524D01*
X51759524Y-71954108D01*
X51669544Y-72097310D01*
X51613686Y-72256943D01*
X51601814Y-72362309D01*
X51590314Y-72402227D01*
X51566275Y-72436106D01*
X45571590Y-78430793D01*
X45531362Y-78457673D01*
X45483909Y-78467112D01*
X23056111Y-78467112D01*
X22989486Y-78447693D01*
X22943729Y-78395517D01*
X22924035Y-78353283D01*
X22788495Y-78159711D01*
X22621401Y-77992617D01*
X22435839Y-77862685D01*
X22396975Y-77818369D01*
X22382964Y-77761112D01*
X22396975Y-77703855D01*
X22435839Y-77659538D01*
X22621401Y-77529607D01*
X22788495Y-77362513D01*
X22924035Y-77168942D01*
X23023903Y-76954775D01*
X23085063Y-76726520D01*
X23105659Y-76491112D01*
X23085063Y-76255704D01*
X23023903Y-76027449D01*
X22924035Y-75813283D01*
X22788495Y-75619711D01*
X22621401Y-75452617D01*
X22435839Y-75322685D01*
X22396975Y-75278369D01*
X22382964Y-75221112D01*
X22396975Y-75163855D01*
X22435839Y-75119538D01*
X22621401Y-74989607D01*
X22788495Y-74822513D01*
X22924035Y-74628942D01*
X23023903Y-74414775D01*
X23085063Y-74186520D01*
X23105659Y-73951112D01*
X23085063Y-73715704D01*
X23023903Y-73487449D01*
X22924035Y-73273283D01*
X22788495Y-73079711D01*
X22621401Y-72912617D01*
X22435839Y-72782685D01*
X22396976Y-72738369D01*
X22382965Y-72681112D01*
X22396976Y-72623855D01*
X22435839Y-72579538D01*
X22621401Y-72449607D01*
X22788495Y-72282513D01*
X22924035Y-72088942D01*
X23023903Y-71874775D01*
X23085063Y-71646520D01*
X23105659Y-71411112D01*
X23085063Y-71175704D01*
X23063369Y-71094741D01*
X23039764Y-71006643D01*
X23039764Y-70942456D01*
X23071856Y-70886871D01*
X33404592Y-60554135D01*
X33438469Y-60530098D01*
X33478381Y-60518599D01*
X33543059Y-60511313D01*
X33702690Y-60455456D01*
X33845890Y-60365477D01*
X33965477Y-60245890D01*
X34055456Y-60102690D01*
X34111313Y-59943059D01*
X34130249Y-59775000D01*
X34111313Y-59606941D01*
X34055456Y-59447310D01*
X33965477Y-59304110D01*
X33845890Y-59184523D01*
X33702690Y-59094544D01*
X33543059Y-59038687D01*
X33543058Y-59038686D01*
X33543056Y-59038686D01*
X33375000Y-59019750D01*
X33206943Y-59038686D01*
X33047310Y-59094544D01*
X32904108Y-59184524D01*
X32784524Y-59304108D01*
X32694545Y-59447308D01*
X32638686Y-59606943D01*
X32628577Y-59696659D01*
X32617077Y-59736576D01*
X32593038Y-59770455D01*
X23309483Y-69054010D01*
X23258056Y-69084911D01*
X23198141Y-69088051D01*
X23143766Y-69062695D01*
X23107659Y-69014779D01*
X23098274Y-68955521D01*
X23105659Y-68871111D01*
X23085063Y-68635704D01*
X23023903Y-68407448D01*
X23010117Y-68377886D01*
X22998551Y-68329087D01*
X23007259Y-68279698D01*
X23034815Y-68237800D01*
X35967068Y-55305547D01*
X36000945Y-55281511D01*
X36040863Y-55270011D01*
X36049012Y-55269092D01*
X36118059Y-55261313D01*
X36277690Y-55205456D01*
X36420890Y-55115477D01*
X36540477Y-54995890D01*
X36630456Y-54852690D01*
X36686313Y-54693059D01*
X36705249Y-54525000D01*
X36686313Y-54356941D01*
X36630456Y-54197310D01*
X36540477Y-54054110D01*
X36420890Y-53934523D01*
X36277690Y-53844544D01*
X36118059Y-53788687D01*
X36118058Y-53788686D01*
X36118056Y-53788686D01*
X35950000Y-53769750D01*
X35781943Y-53788686D01*
X35622310Y-53844544D01*
X35479108Y-53934524D01*
X35359524Y-54054108D01*
X35284657Y-54173257D01*
X35269544Y-54197310D01*
X35226442Y-54320490D01*
X35213686Y-54356944D01*
X35204988Y-54434136D01*
X35193488Y-54474053D01*
X35169449Y-54507932D01*
X23313049Y-66364332D01*
X23252207Y-66397712D01*
X23182958Y-66393173D01*
X23126992Y-66352137D01*
X23101840Y-66287458D01*
X23089838Y-66150285D01*
X23085063Y-66095704D01*
X23049038Y-65961255D01*
X23049038Y-65897071D01*
X23081130Y-65841485D01*
X36792068Y-52130547D01*
X36825945Y-52106511D01*
X36865863Y-52095011D01*
X36874012Y-52094092D01*
X36943059Y-52086313D01*
X37102690Y-52030456D01*
X37245890Y-51940477D01*
X37365477Y-51820890D01*
X37455456Y-51677690D01*
X37511313Y-51518059D01*
X37530249Y-51350000D01*
X37511313Y-51181941D01*
X37455456Y-51022310D01*
X37365477Y-50879110D01*
X37245890Y-50759523D01*
X37102690Y-50669544D01*
X36943059Y-50613687D01*
X36943058Y-50613686D01*
X36943056Y-50613686D01*
X36775000Y-50594750D01*
X36606943Y-50613686D01*
X36447310Y-50669544D01*
X36304108Y-50759524D01*
X36184524Y-50879108D01*
X36096385Y-51019379D01*
X36094544Y-51022310D01*
X36052399Y-51142755D01*
X36038686Y-51181944D01*
X36029988Y-51259136D01*
X36018488Y-51299053D01*
X35994449Y-51332932D01*
X23305275Y-64022106D01*
X23253848Y-64053007D01*
X23193933Y-64056147D01*
X23139558Y-64030791D01*
X23103451Y-63982875D01*
X23094066Y-63923617D01*
X23097768Y-63881302D01*
X23105659Y-63791112D01*
X23104558Y-63778533D01*
X23085063Y-63555704D01*
X23039764Y-63386643D01*
X23039764Y-63322456D01*
X23071856Y-63266871D01*
X37216924Y-49121803D01*
X37229114Y-49111114D01*
X37241968Y-49101251D01*
X37252250Y-49093362D01*
X37276824Y-49061337D01*
X37342653Y-48975545D01*
X37399483Y-48838346D01*
X37418868Y-48691112D01*
X37415060Y-48662195D01*
X37414000Y-48646010D01*
X37414000Y-43898729D01*
X37423439Y-43851276D01*
X37435011Y-43833956D01*
X37433043Y-43832720D01*
X37440474Y-43820892D01*
X37440477Y-43820890D01*
X37530456Y-43677690D01*
X37586313Y-43518059D01*
X37605249Y-43350000D01*
X37586313Y-43181941D01*
X37530456Y-43022310D01*
X37440477Y-42879110D01*
X37320890Y-42759523D01*
X37177690Y-42669544D01*
X37018059Y-42613687D01*
X37018058Y-42613686D01*
X37018056Y-42613686D01*
X36850000Y-42594750D01*
X36681943Y-42613686D01*
X36522310Y-42669544D01*
X36379108Y-42759524D01*
X36259524Y-42879108D01*
X36169544Y-43022310D01*
X36113686Y-43181943D01*
X36094750Y-43349999D01*
X36113686Y-43518056D01*
X36113686Y-43518058D01*
X36113687Y-43518059D01*
X36169544Y-43677690D01*
X36259523Y-43820890D01*
X36259524Y-43820891D01*
X36266957Y-43832720D01*
X36264988Y-43833956D01*
X36276561Y-43851276D01*
X36286000Y-43898729D01*
X36286000Y-48406133D01*
X36276561Y-48453586D01*
X36249681Y-48493814D01*
X23309483Y-61434010D01*
X23258056Y-61464911D01*
X23198141Y-61468051D01*
X23143766Y-61442695D01*
X23107659Y-61394779D01*
X23098274Y-61335521D01*
X23105659Y-61251111D01*
X23085063Y-61015704D01*
X23023902Y-60787445D01*
X23016477Y-60771522D01*
X23004911Y-60722724D01*
X23013620Y-60673336D01*
X23041176Y-60631439D01*
X35366924Y-48305691D01*
X35379114Y-48295002D01*
X35387344Y-48288687D01*
X35402250Y-48277250D01*
X35427932Y-48243780D01*
X35492654Y-48159433D01*
X35549483Y-48022234D01*
X35568868Y-47875000D01*
X35565060Y-47846083D01*
X35564000Y-47829898D01*
X35564000Y-41598729D01*
X35573439Y-41551276D01*
X35600319Y-41511048D01*
X35600319Y-41511047D01*
X35615477Y-41495890D01*
X35705456Y-41352690D01*
X35761313Y-41193059D01*
X35780249Y-41025000D01*
X35761313Y-40856941D01*
X35705456Y-40697310D01*
X35615477Y-40554110D01*
X35495890Y-40434523D01*
X35352690Y-40344544D01*
X35193059Y-40288687D01*
X35193058Y-40288686D01*
X35193056Y-40288686D01*
X35025000Y-40269750D01*
X34856943Y-40288686D01*
X34697310Y-40344544D01*
X34554108Y-40434524D01*
X34434524Y-40554108D01*
X34344544Y-40697310D01*
X34288686Y-40856943D01*
X34269750Y-41024999D01*
X34288686Y-41193056D01*
X34288686Y-41193058D01*
X34288687Y-41193059D01*
X34344544Y-41352690D01*
X34416994Y-41467993D01*
X34436000Y-41533964D01*
X34436000Y-47590021D01*
X34426561Y-47637474D01*
X34399681Y-47677702D01*
X23314658Y-58762723D01*
X23253816Y-58796103D01*
X23184567Y-58791564D01*
X23128602Y-58750529D01*
X23103449Y-58685850D01*
X23095078Y-58590179D01*
X23102084Y-58536961D01*
X23130923Y-58491692D01*
X33491924Y-48130691D01*
X33504114Y-48120002D01*
X33527250Y-48102250D01*
X33617653Y-47984433D01*
X33674483Y-47847234D01*
X33689000Y-47736968D01*
X33693867Y-47700000D01*
X33690061Y-47671089D01*
X33689000Y-47654904D01*
X33689000Y-38423729D01*
X33698439Y-38376276D01*
X33710011Y-38358956D01*
X33708043Y-38357720D01*
X33715474Y-38345892D01*
X33715477Y-38345890D01*
X33805456Y-38202690D01*
X33861313Y-38043059D01*
X33880249Y-37875000D01*
X33861313Y-37706941D01*
X33805456Y-37547310D01*
X33715477Y-37404110D01*
X33595890Y-37284523D01*
X33452690Y-37194544D01*
X33293059Y-37138687D01*
X33293058Y-37138686D01*
X33293056Y-37138686D01*
X33125000Y-37119750D01*
X32956943Y-37138686D01*
X32797310Y-37194544D01*
X32654108Y-37284524D01*
X32534524Y-37404108D01*
X32444544Y-37547310D01*
X32388686Y-37706943D01*
X32369750Y-37875000D01*
X32388686Y-38043056D01*
X32388686Y-38043058D01*
X32388687Y-38043059D01*
X32444544Y-38202690D01*
X32534523Y-38345890D01*
X32534524Y-38345891D01*
X32541957Y-38357720D01*
X32539988Y-38358956D01*
X32551561Y-38376276D01*
X32561000Y-38423729D01*
X32561000Y-47415021D01*
X32551561Y-47462474D01*
X32524681Y-47502702D01*
X23312180Y-56715202D01*
X23262817Y-56745452D01*
X23205101Y-56749994D01*
X23151614Y-56727839D01*
X23114014Y-56683816D01*
X23100499Y-56627521D01*
X23100499Y-55669591D01*
X23109938Y-55622138D01*
X23136818Y-55581910D01*
X26744993Y-51973735D01*
X30416924Y-48301803D01*
X30429114Y-48291114D01*
X30440258Y-48282563D01*
X30452250Y-48273362D01*
X30484180Y-48231750D01*
X30542654Y-48155545D01*
X30590980Y-48038873D01*
X30599483Y-48018346D01*
X30603948Y-47984433D01*
X30605785Y-47970479D01*
X30605785Y-47970477D01*
X30605785Y-47970476D01*
X30618868Y-47871112D01*
X30615061Y-47842195D01*
X30614000Y-47826010D01*
X30614000Y-37598729D01*
X30623439Y-37551276D01*
X30635011Y-37533956D01*
X30633043Y-37532720D01*
X30640474Y-37520892D01*
X30640477Y-37520890D01*
X30730456Y-37377690D01*
X30786313Y-37218059D01*
X30805249Y-37050000D01*
X30786313Y-36881941D01*
X30730456Y-36722310D01*
X30640477Y-36579110D01*
X30520890Y-36459523D01*
X30377690Y-36369544D01*
X30218059Y-36313687D01*
X30218058Y-36313686D01*
X30218056Y-36313686D01*
X30050000Y-36294750D01*
X29881943Y-36313686D01*
X29722310Y-36369544D01*
X29579108Y-36459524D01*
X29459524Y-36579108D01*
X29369544Y-36722310D01*
X29313686Y-36881943D01*
X29294750Y-37050000D01*
X29313686Y-37218056D01*
X29313686Y-37218058D01*
X29313687Y-37218059D01*
X29369544Y-37377690D01*
X29459523Y-37520890D01*
X29459524Y-37520891D01*
X29466957Y-37532720D01*
X29464988Y-37533956D01*
X29476561Y-37551276D01*
X29486000Y-37598729D01*
X29486000Y-47586133D01*
X29476561Y-47633586D01*
X29449681Y-47673814D01*
X22339200Y-54784293D01*
X22298972Y-54811173D01*
X22251519Y-54820612D01*
X21801889Y-54820612D01*
X20949499Y-54820612D01*
X20887500Y-54804000D01*
X20842113Y-54758613D01*
X20825500Y-54696613D01*
X20825500Y-52025097D01*
X20834939Y-51977644D01*
X20861819Y-51937416D01*
X22206176Y-50593059D01*
X26300241Y-46498992D01*
X26334119Y-46474955D01*
X26374032Y-46463456D01*
X26393059Y-46461313D01*
X26552690Y-46405456D01*
X26695890Y-46315477D01*
X26815477Y-46195890D01*
X26905456Y-46052690D01*
X26961313Y-45893059D01*
X26980249Y-45725000D01*
X26961313Y-45556941D01*
X26905456Y-45397310D01*
X26815477Y-45254110D01*
X26695890Y-45134523D01*
X26552690Y-45044544D01*
X26393059Y-44988687D01*
X26393058Y-44988686D01*
X26393056Y-44988686D01*
X26225000Y-44969750D01*
X26056943Y-44988686D01*
X25897310Y-45044544D01*
X25754108Y-45134524D01*
X25634524Y-45254108D01*
X25634522Y-45254110D01*
X25634523Y-45254110D01*
X25544544Y-45397310D01*
X25488929Y-45556250D01*
X25488686Y-45556944D01*
X25486543Y-45575963D01*
X25475043Y-45615880D01*
X25451004Y-45649759D01*
X20152181Y-50948584D01*
X20102818Y-50978834D01*
X20045102Y-50983376D01*
X19991615Y-50961221D01*
X19954015Y-50917198D01*
X19940500Y-50860903D01*
X19940500Y-36122671D01*
X40544488Y-36122671D01*
X40552996Y-36198184D01*
X40553304Y-36201259D01*
X40560243Y-36280571D01*
X40561803Y-36287677D01*
X40589224Y-36366041D01*
X40589887Y-36367987D01*
X40593205Y-36377999D01*
X40599500Y-36417007D01*
X40599500Y-48225890D01*
X40598720Y-48239775D01*
X40594750Y-48274999D01*
X40598720Y-48310225D01*
X40599500Y-48324110D01*
X40599500Y-60225890D01*
X40598720Y-60239775D01*
X40594750Y-60275000D01*
X40598720Y-60310225D01*
X40599500Y-60324110D01*
X40599500Y-72350890D01*
X40598720Y-72364775D01*
X40594750Y-72399999D01*
X40598720Y-72435225D01*
X40598915Y-72438706D01*
X40604382Y-72485479D01*
X40604440Y-72485990D01*
X40614217Y-72572767D01*
X40642883Y-72651528D01*
X40643402Y-72652982D01*
X40672040Y-72734826D01*
X40672329Y-72735415D01*
X40674761Y-72739114D01*
X40674763Y-72739117D01*
X40699730Y-72777077D01*
X40717971Y-72804811D01*
X40719364Y-72806978D01*
X40761636Y-72874254D01*
X40770255Y-72884832D01*
X40771168Y-72885694D01*
X40771170Y-72885696D01*
X40799705Y-72912617D01*
X40825726Y-72937167D01*
X40828313Y-72939680D01*
X40879714Y-72991081D01*
X40897288Y-73004683D01*
X40898634Y-73005953D01*
X40898782Y-73006092D01*
X40960587Y-73041774D01*
X40964510Y-73044137D01*
X41022310Y-73080456D01*
X41024734Y-73081304D01*
X41045769Y-73090954D01*
X41050719Y-73093812D01*
X41050721Y-73093812D01*
X41050722Y-73093813D01*
X41115599Y-73113237D01*
X41120988Y-73114985D01*
X41181938Y-73136312D01*
X41181941Y-73136313D01*
X41188126Y-73137009D01*
X41209798Y-73141438D01*
X41218790Y-73144130D01*
X41275563Y-73147436D01*
X41282774Y-73147856D01*
X41289450Y-73148425D01*
X41350000Y-73155249D01*
X41359822Y-73154141D01*
X41380914Y-73153572D01*
X41393935Y-73154331D01*
X41453490Y-73143829D01*
X41461090Y-73142731D01*
X41518059Y-73136313D01*
X41530847Y-73131837D01*
X41550261Y-73126765D01*
X41566711Y-73123865D01*
X41618890Y-73101356D01*
X41627003Y-73098190D01*
X41677690Y-73080456D01*
X41692260Y-73071300D01*
X41709110Y-73062440D01*
X41727804Y-73054377D01*
X41770461Y-73022619D01*
X41778524Y-73017095D01*
X41820890Y-72990477D01*
X41835642Y-72975723D01*
X41849262Y-72963953D01*
X41868530Y-72949610D01*
X41900375Y-72911656D01*
X41907671Y-72903694D01*
X41940477Y-72870890D01*
X41953519Y-72850132D01*
X41963519Y-72836404D01*
X41981302Y-72815214D01*
X42001909Y-72774178D01*
X42007703Y-72763897D01*
X42030456Y-72727690D01*
X42039759Y-72701102D01*
X42045987Y-72686415D01*
X42060039Y-72658434D01*
X42060040Y-72658433D01*
X42069784Y-72617316D01*
X42073395Y-72604973D01*
X42086313Y-72568059D01*
X42089874Y-72536444D01*
X42092436Y-72521742D01*
X42100500Y-72487721D01*
X42100500Y-72449110D01*
X42101280Y-72435225D01*
X42105249Y-72400000D01*
X42101280Y-72364775D01*
X42100500Y-72350890D01*
X42100500Y-60324110D01*
X42101280Y-60310225D01*
X42105249Y-60275000D01*
X42101280Y-60239775D01*
X42100500Y-60225890D01*
X42100500Y-48324110D01*
X42101280Y-48310225D01*
X42105249Y-48274999D01*
X42101280Y-48239775D01*
X42100500Y-48225890D01*
X42100500Y-39674998D01*
X46544750Y-39674998D01*
X46545857Y-39684819D01*
X46546427Y-39705913D01*
X46545668Y-39718934D01*
X46556166Y-39778471D01*
X46557270Y-39786117D01*
X46563686Y-39843058D01*
X46568160Y-39855843D01*
X46573234Y-39875260D01*
X46576135Y-39891711D01*
X46598636Y-39943874D01*
X46601817Y-39952031D01*
X46606759Y-39966154D01*
X46619543Y-40002688D01*
X46628695Y-40017254D01*
X46637557Y-40034106D01*
X46645623Y-40052804D01*
X46677377Y-40095456D01*
X46682908Y-40103533D01*
X46709521Y-40145889D01*
X46724266Y-40160633D01*
X46736043Y-40174258D01*
X46750390Y-40193530D01*
X46788339Y-40225373D01*
X46796314Y-40232681D01*
X46829110Y-40265477D01*
X46849859Y-40278514D01*
X46863593Y-40288519D01*
X46884786Y-40306302D01*
X46925797Y-40326898D01*
X46936108Y-40332708D01*
X46972310Y-40355456D01*
X46998895Y-40364758D01*
X47013574Y-40370981D01*
X47041567Y-40385040D01*
X47082684Y-40394784D01*
X47095038Y-40398400D01*
X47108528Y-40403120D01*
X47131941Y-40411313D01*
X47163553Y-40414874D01*
X47178255Y-40417435D01*
X47212279Y-40425500D01*
X47250890Y-40425500D01*
X47264774Y-40426279D01*
X47300000Y-40430249D01*
X47335225Y-40426279D01*
X47349110Y-40425500D01*
X47775500Y-40425500D01*
X47837500Y-40442113D01*
X47882887Y-40487500D01*
X47899500Y-40549500D01*
X47899500Y-50775500D01*
X47882887Y-50837500D01*
X47837500Y-50882887D01*
X47775500Y-50899500D01*
X47399110Y-50899500D01*
X47385225Y-50898720D01*
X47350000Y-50894750D01*
X47314775Y-50898720D01*
X47311293Y-50898915D01*
X47264622Y-50904370D01*
X47264112Y-50904428D01*
X47177232Y-50914216D01*
X47098422Y-50942899D01*
X47096972Y-50943417D01*
X47015179Y-50972039D01*
X47014572Y-50972336D01*
X46945162Y-51017987D01*
X46942997Y-51019379D01*
X46875759Y-51061628D01*
X46865159Y-51070262D01*
X46812831Y-51125726D01*
X46810321Y-51128311D01*
X46758915Y-51179718D01*
X46745328Y-51197274D01*
X46743912Y-51198774D01*
X46708232Y-51260574D01*
X46705840Y-51264543D01*
X46669541Y-51322314D01*
X46668691Y-51324743D01*
X46659048Y-51345765D01*
X46656188Y-51350718D01*
X46636762Y-51415600D01*
X46635015Y-51420984D01*
X46613686Y-51481944D01*
X46612988Y-51488134D01*
X46608562Y-51509795D01*
X46605869Y-51518791D01*
X46602142Y-51582782D01*
X46601572Y-51589456D01*
X46594750Y-51649998D01*
X46595857Y-51659819D01*
X46596427Y-51680913D01*
X46595668Y-51693934D01*
X46606166Y-51753471D01*
X46607270Y-51761117D01*
X46613686Y-51818058D01*
X46618160Y-51830843D01*
X46623234Y-51850260D01*
X46626135Y-51866711D01*
X46648636Y-51918874D01*
X46651817Y-51927031D01*
X46669544Y-51977690D01*
X46678695Y-51992254D01*
X46687557Y-52009106D01*
X46695623Y-52027804D01*
X46716069Y-52055267D01*
X46727377Y-52070456D01*
X46732908Y-52078533D01*
X46759521Y-52120889D01*
X46774266Y-52135633D01*
X46786043Y-52149258D01*
X46800390Y-52168530D01*
X46833441Y-52196263D01*
X46838339Y-52200373D01*
X46846313Y-52207680D01*
X46879110Y-52240477D01*
X46899859Y-52253514D01*
X46913593Y-52263519D01*
X46934786Y-52281302D01*
X46975797Y-52301898D01*
X46986108Y-52307708D01*
X47022310Y-52330456D01*
X47048895Y-52339758D01*
X47063574Y-52345981D01*
X47091567Y-52360040D01*
X47132684Y-52369784D01*
X47145038Y-52373400D01*
X47158528Y-52378120D01*
X47181941Y-52386313D01*
X47213553Y-52389874D01*
X47228255Y-52392435D01*
X47262279Y-52400500D01*
X47300890Y-52400500D01*
X47314774Y-52401279D01*
X47350000Y-52405249D01*
X47385225Y-52401279D01*
X47399110Y-52400500D01*
X48312770Y-52400500D01*
X48360223Y-52409939D01*
X48400451Y-52436819D01*
X48763181Y-52799548D01*
X48790061Y-52839776D01*
X48799500Y-52887229D01*
X48799500Y-62475500D01*
X48782887Y-62537500D01*
X48737500Y-62582887D01*
X48675500Y-62599500D01*
X47399110Y-62599500D01*
X47385225Y-62598720D01*
X47350000Y-62594750D01*
X47314775Y-62598720D01*
X47311293Y-62598915D01*
X47264622Y-62604370D01*
X47264112Y-62604428D01*
X47177232Y-62614216D01*
X47098422Y-62642899D01*
X47096972Y-62643417D01*
X47015179Y-62672039D01*
X47014572Y-62672336D01*
X46945162Y-62717987D01*
X46942997Y-62719379D01*
X46875759Y-62761628D01*
X46865159Y-62770262D01*
X46812831Y-62825726D01*
X46810321Y-62828311D01*
X46758915Y-62879718D01*
X46745328Y-62897274D01*
X46743912Y-62898774D01*
X46708232Y-62960574D01*
X46705840Y-62964543D01*
X46669541Y-63022314D01*
X46668691Y-63024743D01*
X46659048Y-63045765D01*
X46656188Y-63050718D01*
X46636762Y-63115600D01*
X46635015Y-63120984D01*
X46613686Y-63181944D01*
X46612988Y-63188134D01*
X46608562Y-63209795D01*
X46605869Y-63218791D01*
X46602142Y-63282782D01*
X46601572Y-63289456D01*
X46594750Y-63349998D01*
X46595857Y-63359819D01*
X46596427Y-63380913D01*
X46595668Y-63393934D01*
X46606166Y-63453471D01*
X46607270Y-63461117D01*
X46613686Y-63518058D01*
X46618160Y-63530843D01*
X46623233Y-63550259D01*
X46626135Y-63566711D01*
X46640641Y-63600341D01*
X46648636Y-63618874D01*
X46651819Y-63627034D01*
X46669543Y-63677688D01*
X46678695Y-63692254D01*
X46687557Y-63709106D01*
X46695623Y-63727804D01*
X46725943Y-63768530D01*
X46727377Y-63770456D01*
X46732908Y-63778533D01*
X46759521Y-63820889D01*
X46774266Y-63835633D01*
X46786043Y-63849258D01*
X46800390Y-63868530D01*
X46831943Y-63895006D01*
X46838339Y-63900373D01*
X46846313Y-63907680D01*
X46879110Y-63940477D01*
X46887883Y-63945989D01*
X46899859Y-63953514D01*
X46913593Y-63963519D01*
X46934786Y-63981302D01*
X46975797Y-64001898D01*
X46986108Y-64007708D01*
X47022310Y-64030456D01*
X47048895Y-64039758D01*
X47063574Y-64045981D01*
X47091567Y-64060040D01*
X47132684Y-64069784D01*
X47145038Y-64073400D01*
X47158528Y-64078120D01*
X47181941Y-64086313D01*
X47213553Y-64089874D01*
X47228255Y-64092435D01*
X47262279Y-64100500D01*
X47300890Y-64100500D01*
X47314774Y-64101279D01*
X47350000Y-64105249D01*
X47385225Y-64101279D01*
X47399110Y-64100500D01*
X49237770Y-64100500D01*
X49285223Y-64109939D01*
X49325451Y-64136819D01*
X62188181Y-76999548D01*
X62215061Y-77039776D01*
X62224500Y-77087229D01*
X62224500Y-84436294D01*
X62223191Y-84454264D01*
X62219711Y-84478023D01*
X62224028Y-84527369D01*
X62224500Y-84538176D01*
X62224500Y-84543708D01*
X62228098Y-84574496D01*
X62228464Y-84578081D01*
X62231688Y-84614936D01*
X62235110Y-84654041D01*
X62239329Y-84673071D01*
X62239758Y-84674251D01*
X62239759Y-84674255D01*
X62265413Y-84744742D01*
X62266582Y-84748107D01*
X62290580Y-84820524D01*
X62299075Y-84838072D01*
X62340979Y-84901784D01*
X62342889Y-84904782D01*
X62382288Y-84968656D01*
X62382952Y-84969732D01*
X62395253Y-84984830D01*
X62396168Y-84985693D01*
X62396170Y-84985696D01*
X62446766Y-85033431D01*
X62450709Y-85037151D01*
X62453296Y-85039664D01*
X63849267Y-86435634D01*
X63861048Y-86449266D01*
X63875389Y-86468529D01*
X63913339Y-86500373D01*
X63921314Y-86507681D01*
X63925224Y-86511591D01*
X63943672Y-86526178D01*
X63949543Y-86530820D01*
X63952330Y-86533090D01*
X64009786Y-86581302D01*
X64009788Y-86581303D01*
X64010750Y-86582110D01*
X64027180Y-86592578D01*
X64028322Y-86593110D01*
X64028323Y-86593111D01*
X64096350Y-86624832D01*
X64099527Y-86626371D01*
X64166567Y-86660040D01*
X64167702Y-86660610D01*
X64188799Y-86667943D01*
X64200466Y-86673384D01*
X64199350Y-86675776D01*
X64226451Y-86688250D01*
X64261841Y-86731686D01*
X64274500Y-86786266D01*
X64274500Y-86847868D01*
X64280909Y-86907484D01*
X64292547Y-86938686D01*
X64331204Y-87042331D01*
X64417454Y-87157546D01*
X64532669Y-87243796D01*
X64667517Y-87294091D01*
X64727127Y-87300500D01*
X66522872Y-87300499D01*
X66582483Y-87294091D01*
X66717331Y-87243796D01*
X66832546Y-87157546D01*
X66918796Y-87042331D01*
X66967810Y-86910916D01*
X67002789Y-86860537D01*
X67057634Y-86833084D01*
X67118927Y-86835273D01*
X67171673Y-86866569D01*
X67293599Y-86988495D01*
X67487170Y-87124035D01*
X67701337Y-87223903D01*
X67929592Y-87285063D01*
X68165000Y-87305659D01*
X68400408Y-87285063D01*
X68628663Y-87223903D01*
X68842830Y-87124035D01*
X69036401Y-86988495D01*
X69203495Y-86821401D01*
X69339035Y-86627830D01*
X69438903Y-86413663D01*
X69500063Y-86185408D01*
X69520659Y-85950000D01*
X69500063Y-85714592D01*
X69438903Y-85486337D01*
X69339035Y-85272171D01*
X69203495Y-85078599D01*
X69036401Y-84911505D01*
X68842830Y-84775965D01*
X68628663Y-84676097D01*
X68567501Y-84659709D01*
X68400407Y-84614936D01*
X68165000Y-84594340D01*
X67929592Y-84614936D01*
X67701336Y-84676097D01*
X67487170Y-84775965D01*
X67293601Y-84911503D01*
X67171673Y-85033431D01*
X67118926Y-85064726D01*
X67057634Y-85066915D01*
X67002789Y-85039462D01*
X66967810Y-84989082D01*
X66939689Y-84913687D01*
X66918796Y-84857669D01*
X66832546Y-84742454D01*
X66717331Y-84656204D01*
X66582483Y-84605909D01*
X66522873Y-84599500D01*
X66522869Y-84599500D01*
X64727130Y-84599500D01*
X64667515Y-84605909D01*
X64532667Y-84656204D01*
X64424185Y-84737413D01*
X64370437Y-84760429D01*
X64312118Y-84756258D01*
X64262194Y-84725827D01*
X64014390Y-84478023D01*
X63761819Y-84225451D01*
X63734939Y-84185223D01*
X63725500Y-84137770D01*
X63725500Y-82772869D01*
X64249500Y-82772869D01*
X64255909Y-82832484D01*
X64281056Y-82899907D01*
X64306204Y-82967331D01*
X64392454Y-83082546D01*
X64507669Y-83168796D01*
X64642517Y-83219091D01*
X64702127Y-83225500D01*
X66497872Y-83225499D01*
X66557483Y-83219091D01*
X66692331Y-83168796D01*
X66807546Y-83082546D01*
X66893796Y-82967331D01*
X66942810Y-82835916D01*
X66977789Y-82785537D01*
X67032634Y-82758084D01*
X67093927Y-82760273D01*
X67146673Y-82791569D01*
X67268599Y-82913495D01*
X67462170Y-83049035D01*
X67676337Y-83148903D01*
X67904592Y-83210063D01*
X68139999Y-83230659D01*
X68139999Y-83230658D01*
X68140000Y-83230659D01*
X68375408Y-83210063D01*
X68603663Y-83148903D01*
X68817830Y-83049035D01*
X69011401Y-82913495D01*
X69178495Y-82746401D01*
X69314035Y-82552830D01*
X69413903Y-82338663D01*
X69475063Y-82110408D01*
X69495659Y-81875000D01*
X69475063Y-81639592D01*
X69413903Y-81411337D01*
X69314035Y-81197171D01*
X69178495Y-81003599D01*
X69011401Y-80836505D01*
X68817830Y-80700965D01*
X68603663Y-80601097D01*
X68542501Y-80584709D01*
X68375407Y-80539936D01*
X68139999Y-80519340D01*
X67904592Y-80539936D01*
X67676336Y-80601097D01*
X67462170Y-80700965D01*
X67268601Y-80836503D01*
X67146673Y-80958431D01*
X67093926Y-80989726D01*
X67032634Y-80991915D01*
X66977789Y-80964462D01*
X66942810Y-80914082D01*
X66922094Y-80858541D01*
X66893796Y-80782669D01*
X66807546Y-80667454D01*
X66692331Y-80581204D01*
X66557483Y-80530909D01*
X66497873Y-80524500D01*
X66497869Y-80524500D01*
X64702130Y-80524500D01*
X64642515Y-80530909D01*
X64507669Y-80581204D01*
X64392454Y-80667454D01*
X64306204Y-80782668D01*
X64264477Y-80894543D01*
X64255909Y-80917517D01*
X64250704Y-80965934D01*
X64249500Y-80977130D01*
X64249500Y-82772869D01*
X63725500Y-82772869D01*
X63725500Y-77062230D01*
X63734939Y-77014777D01*
X63761819Y-76974549D01*
X64480664Y-76255704D01*
X68860638Y-71875727D01*
X68874256Y-71863957D01*
X68893530Y-71849610D01*
X68925382Y-71811649D01*
X68932668Y-71803697D01*
X68936590Y-71799777D01*
X68955863Y-71775399D01*
X68958030Y-71772739D01*
X69006302Y-71715214D01*
X69006303Y-71715210D01*
X69007119Y-71714239D01*
X69017575Y-71697825D01*
X69018109Y-71696679D01*
X69018111Y-71696677D01*
X69049816Y-71628682D01*
X69051369Y-71625475D01*
X69085040Y-71558433D01*
X69085040Y-71558429D01*
X69085610Y-71557296D01*
X69091999Y-71538917D01*
X69092256Y-71537673D01*
X69107431Y-71464171D01*
X69108186Y-71460767D01*
X69125500Y-71387721D01*
X69125500Y-71387719D01*
X69125790Y-71386495D01*
X69127769Y-71367123D01*
X69127732Y-71365859D01*
X69127733Y-71365856D01*
X69125552Y-71290889D01*
X69125500Y-71287284D01*
X69125500Y-63275446D01*
X69125710Y-63268236D01*
X69129331Y-63206065D01*
X69127384Y-63195023D01*
X69125500Y-63173490D01*
X69125500Y-49400446D01*
X69125710Y-49393236D01*
X69129331Y-49331065D01*
X69127384Y-49320023D01*
X69125500Y-49298490D01*
X69125500Y-40737230D01*
X69134939Y-40689777D01*
X69161819Y-40649549D01*
X78299549Y-31511819D01*
X78339777Y-31484939D01*
X78387230Y-31475500D01*
X81475890Y-31475500D01*
X81489774Y-31476279D01*
X81525000Y-31480249D01*
X81560225Y-31476279D01*
X81563711Y-31476084D01*
X81568706Y-31475500D01*
X81568709Y-31475500D01*
X81610477Y-31470617D01*
X81693059Y-31461313D01*
X81693063Y-31461311D01*
X81697772Y-31460781D01*
X81729713Y-31449154D01*
X81776554Y-31432106D01*
X81777927Y-31431616D01*
X81852690Y-31405456D01*
X81852689Y-31405456D01*
X81859858Y-31402948D01*
X81860391Y-31402687D01*
X81864114Y-31400237D01*
X81864117Y-31400237D01*
X81929869Y-31356989D01*
X81931915Y-31355674D01*
X81995890Y-31315477D01*
X81995893Y-31315473D01*
X81999262Y-31313357D01*
X82009827Y-31304750D01*
X82010693Y-31303831D01*
X82010696Y-31303830D01*
X82062202Y-31249235D01*
X82064648Y-31246717D01*
X82115477Y-31195890D01*
X82115477Y-31195889D01*
X82116088Y-31195279D01*
X82129690Y-31177703D01*
X82131092Y-31176218D01*
X82166777Y-31114406D01*
X82169142Y-31110479D01*
X82205456Y-31052690D01*
X82206301Y-31050272D01*
X82215953Y-31029230D01*
X82218812Y-31024281D01*
X82238247Y-30959361D01*
X82239967Y-30954059D01*
X82261313Y-30893059D01*
X82262009Y-30886876D01*
X82266437Y-30865202D01*
X82269130Y-30856210D01*
X82272855Y-30792225D01*
X82273426Y-30785546D01*
X82280249Y-30725000D01*
X82279141Y-30715177D01*
X82278572Y-30694085D01*
X82279331Y-30681065D01*
X82268828Y-30621504D01*
X82267732Y-30613912D01*
X82261313Y-30556941D01*
X82256837Y-30544151D01*
X82251763Y-30524728D01*
X82248865Y-30508289D01*
X82226358Y-30456114D01*
X82223180Y-30447964D01*
X82205457Y-30397313D01*
X82205456Y-30397310D01*
X82196301Y-30382740D01*
X82187444Y-30365898D01*
X82179377Y-30347196D01*
X82147608Y-30304524D01*
X82142090Y-30296465D01*
X82115477Y-30254110D01*
X82115476Y-30254109D01*
X82115475Y-30254107D01*
X82100731Y-30239363D01*
X82088950Y-30225732D01*
X82074610Y-30206470D01*
X82036659Y-30174625D01*
X82028684Y-30167317D01*
X81995889Y-30134522D01*
X81975138Y-30121483D01*
X81961402Y-30111477D01*
X81940214Y-30093697D01*
X81899195Y-30073097D01*
X81888874Y-30067280D01*
X81852690Y-30044544D01*
X81826106Y-30035241D01*
X81811415Y-30029012D01*
X81783435Y-30014961D01*
X81783434Y-30014960D01*
X81783433Y-30014960D01*
X81742311Y-30005213D01*
X81729975Y-30001604D01*
X81693059Y-29988687D01*
X81693057Y-29988686D01*
X81693055Y-29988686D01*
X81661455Y-29985125D01*
X81646748Y-29982563D01*
X81612724Y-29974500D01*
X81612721Y-29974500D01*
X81574110Y-29974500D01*
X81560225Y-29973720D01*
X81525000Y-29969750D01*
X81489775Y-29973720D01*
X81475890Y-29974500D01*
X78088706Y-29974500D01*
X78070736Y-29973191D01*
X78056853Y-29971157D01*
X78046977Y-29969711D01*
X78046976Y-29969711D01*
X77997631Y-29974028D01*
X77986824Y-29974500D01*
X77981291Y-29974500D01*
X77950501Y-29978098D01*
X77946917Y-29978464D01*
X77870961Y-29985109D01*
X77851921Y-29989330D01*
X77780232Y-30015421D01*
X77776831Y-30016603D01*
X77704474Y-30040580D01*
X77686927Y-30049075D01*
X77623221Y-30090975D01*
X77620181Y-30092912D01*
X77555280Y-30132944D01*
X77540164Y-30145257D01*
X77487831Y-30200726D01*
X77485319Y-30203312D01*
X68462680Y-39225950D01*
X68407093Y-39258044D01*
X68342905Y-39258044D01*
X68287318Y-39225950D01*
X63819926Y-34758558D01*
X63819915Y-34758548D01*
X63795890Y-34734523D01*
X63764326Y-34714689D01*
X63753394Y-34706966D01*
X63721679Y-34681890D01*
X63691642Y-34667883D01*
X63678079Y-34660497D01*
X63652690Y-34644544D01*
X63628919Y-34636226D01*
X63614065Y-34631028D01*
X63602617Y-34626369D01*
X63562674Y-34607743D01*
X63533785Y-34601778D01*
X63517910Y-34597382D01*
X63493059Y-34588687D01*
X63493057Y-34588686D01*
X63493055Y-34588686D01*
X63448780Y-34583697D01*
X63437591Y-34581915D01*
X63390859Y-34572265D01*
X63365022Y-34573017D01*
X63347541Y-34572290D01*
X63325002Y-34569751D01*
X63325001Y-34569751D01*
X63277106Y-34575147D01*
X63266836Y-34575873D01*
X63215487Y-34577368D01*
X63194054Y-34583111D01*
X63175849Y-34586556D01*
X63156939Y-34588686D01*
X63108004Y-34605809D01*
X63099148Y-34608541D01*
X63046024Y-34622776D01*
X63029715Y-34631570D01*
X63011827Y-34639464D01*
X62997311Y-34644543D01*
X62950337Y-34674059D01*
X62943218Y-34678208D01*
X62891598Y-34706041D01*
X62880481Y-34715934D01*
X62864036Y-34728284D01*
X62854113Y-34734520D01*
X62812318Y-34776314D01*
X62807074Y-34781261D01*
X62760539Y-34822674D01*
X62754103Y-34831866D01*
X62740219Y-34848413D01*
X62734521Y-34854111D01*
X62701127Y-34907254D01*
X62697713Y-34912398D01*
X62659911Y-34966388D01*
X62657119Y-34973415D01*
X62646886Y-34993581D01*
X62644544Y-34997308D01*
X62622615Y-35059977D01*
X62620813Y-35064802D01*
X62595137Y-35129433D01*
X62594574Y-35133278D01*
X62588930Y-35156245D01*
X62588687Y-35156938D01*
X62580845Y-35226531D01*
X62580316Y-35230615D01*
X62569710Y-35303023D01*
X62569730Y-35303246D01*
X62569488Y-35322671D01*
X62577996Y-35398184D01*
X62578304Y-35401259D01*
X62585243Y-35480571D01*
X62586803Y-35487677D01*
X62614224Y-35566041D01*
X62614888Y-35567990D01*
X62641182Y-35647339D01*
X62644543Y-35652689D01*
X62644544Y-35652690D01*
X62645437Y-35654111D01*
X62687616Y-35721238D01*
X62688148Y-35722094D01*
X62719686Y-35773224D01*
X62732288Y-35793656D01*
X67588181Y-40649548D01*
X67615061Y-40689776D01*
X67624500Y-40737229D01*
X67624500Y-48500500D01*
X67607887Y-48562500D01*
X67562500Y-48607887D01*
X67500500Y-48624500D01*
X63687230Y-48624500D01*
X63639777Y-48615061D01*
X63599549Y-48588181D01*
X63550728Y-48539360D01*
X63538946Y-48525727D01*
X63524609Y-48506469D01*
X63486666Y-48474631D01*
X63478691Y-48467323D01*
X63469933Y-48458565D01*
X63469923Y-48458556D01*
X63445890Y-48434523D01*
X63445889Y-48434522D01*
X63445887Y-48434520D01*
X63425137Y-48421482D01*
X63411404Y-48411478D01*
X63389256Y-48392893D01*
X63372820Y-48382422D01*
X63370108Y-48381157D01*
X63341640Y-48367882D01*
X63328079Y-48360497D01*
X63302690Y-48344544D01*
X63302688Y-48344543D01*
X63302686Y-48344542D01*
X63276108Y-48335242D01*
X63261416Y-48329013D01*
X63233433Y-48314960D01*
X63233432Y-48314959D01*
X63232304Y-48314393D01*
X63213911Y-48307998D01*
X63195530Y-48304203D01*
X63183781Y-48301777D01*
X63167908Y-48297382D01*
X63144897Y-48289330D01*
X63143057Y-48288686D01*
X63111455Y-48285125D01*
X63096748Y-48282563D01*
X63061495Y-48274209D01*
X63042118Y-48272229D01*
X63015022Y-48273017D01*
X62997541Y-48272290D01*
X62981962Y-48270535D01*
X62975000Y-48269751D01*
X62974999Y-48269751D01*
X62939774Y-48273720D01*
X62925891Y-48274500D01*
X61113706Y-48274500D01*
X61095736Y-48273191D01*
X61081853Y-48271157D01*
X61071977Y-48269711D01*
X61071976Y-48269711D01*
X61022631Y-48274028D01*
X61011824Y-48274500D01*
X61006291Y-48274500D01*
X60975501Y-48278098D01*
X60971917Y-48278464D01*
X60895961Y-48285109D01*
X60876921Y-48289330D01*
X60805232Y-48315421D01*
X60801831Y-48316603D01*
X60729479Y-48340579D01*
X60711925Y-48349077D01*
X60648228Y-48390970D01*
X60645190Y-48392905D01*
X60580281Y-48432943D01*
X60565164Y-48445256D01*
X60512848Y-48500708D01*
X60510336Y-48503294D01*
X59088409Y-49925223D01*
X59088405Y-49925226D01*
X59088406Y-49925226D01*
X59059521Y-49954112D01*
X59039688Y-49985674D01*
X59031967Y-49996604D01*
X59006888Y-50028323D01*
X58992879Y-50058362D01*
X58985496Y-50071919D01*
X58969543Y-50097309D01*
X58956028Y-50135931D01*
X58951372Y-50147374D01*
X58932743Y-50187325D01*
X58926779Y-50216210D01*
X58922384Y-50232085D01*
X58913686Y-50256943D01*
X58908697Y-50301220D01*
X58906915Y-50312408D01*
X58897265Y-50359140D01*
X58898017Y-50384977D01*
X58897290Y-50402458D01*
X58894750Y-50425002D01*
X58900146Y-50472890D01*
X58900873Y-50483163D01*
X58902368Y-50534512D01*
X58908111Y-50555946D01*
X58911556Y-50574151D01*
X58913686Y-50593059D01*
X58930810Y-50641997D01*
X58933543Y-50650856D01*
X58947776Y-50703974D01*
X58956570Y-50720283D01*
X58964467Y-50738181D01*
X58969543Y-50752690D01*
X58999059Y-50799663D01*
X59003210Y-50806785D01*
X59031039Y-50858398D01*
X59040933Y-50869516D01*
X59053293Y-50885976D01*
X59059523Y-50895890D01*
X59101311Y-50937678D01*
X59106261Y-50942924D01*
X59147674Y-50989459D01*
X59156859Y-50995890D01*
X59173417Y-51009784D01*
X59179110Y-51015477D01*
X59189985Y-51022310D01*
X59232246Y-51048865D01*
X59237396Y-51052283D01*
X59291388Y-51090088D01*
X59298402Y-51092874D01*
X59318585Y-51103116D01*
X59322309Y-51105456D01*
X59384980Y-51127385D01*
X59389808Y-51129188D01*
X59454430Y-51154861D01*
X59454433Y-51154862D01*
X59458271Y-51155424D01*
X59481255Y-51161073D01*
X59481941Y-51161313D01*
X59551610Y-51169162D01*
X59555550Y-51169673D01*
X59628023Y-51180289D01*
X59628238Y-51180270D01*
X59647657Y-51180513D01*
X59650000Y-51180249D01*
X59723260Y-51171994D01*
X59726237Y-51171696D01*
X59802797Y-51164999D01*
X59802797Y-51164998D01*
X59805585Y-51164755D01*
X59812654Y-51163203D01*
X59818053Y-51161313D01*
X59818059Y-51161313D01*
X59891145Y-51135737D01*
X59892855Y-51135155D01*
X59969334Y-51109814D01*
X59969337Y-51109811D01*
X59972343Y-51108816D01*
X60046171Y-51062425D01*
X60047050Y-51061878D01*
X60075856Y-51044109D01*
X60118656Y-51017712D01*
X61324549Y-49811819D01*
X61364777Y-49784939D01*
X61412230Y-49775500D01*
X62612770Y-49775500D01*
X62660223Y-49784939D01*
X62700451Y-49811819D01*
X62749269Y-49860637D01*
X62761051Y-49874270D01*
X62775389Y-49893529D01*
X62813337Y-49925372D01*
X62821311Y-49932680D01*
X62825221Y-49936590D01*
X62849537Y-49955816D01*
X62852336Y-49958096D01*
X62910752Y-50007113D01*
X62927179Y-50017578D01*
X62996320Y-50049819D01*
X62999567Y-50051391D01*
X63067699Y-50085609D01*
X63086087Y-50092000D01*
X63087323Y-50092255D01*
X63087327Y-50092257D01*
X63160895Y-50107447D01*
X63164242Y-50108189D01*
X63237279Y-50125500D01*
X63237281Y-50125500D01*
X63238509Y-50125791D01*
X63257878Y-50127770D01*
X63259140Y-50127733D01*
X63259144Y-50127734D01*
X63331533Y-50125627D01*
X63334131Y-50125552D01*
X63337737Y-50125500D01*
X67500500Y-50125500D01*
X67562500Y-50142113D01*
X67607887Y-50187500D01*
X67624500Y-50249500D01*
X67624500Y-62392866D01*
X67610211Y-62450654D01*
X67570639Y-62495123D01*
X67538413Y-62507209D01*
X67539358Y-62509804D01*
X67448422Y-62542899D01*
X67446972Y-62543417D01*
X67365179Y-62572039D01*
X67364572Y-62572336D01*
X67295162Y-62617987D01*
X67292997Y-62619379D01*
X67225759Y-62661628D01*
X67215159Y-62670262D01*
X67162831Y-62725726D01*
X67160321Y-62728311D01*
X67108915Y-62779718D01*
X67095328Y-62797274D01*
X67093912Y-62798774D01*
X67058232Y-62860574D01*
X67055840Y-62864543D01*
X67019541Y-62922314D01*
X67018691Y-62924743D01*
X67009048Y-62945765D01*
X67006188Y-62950718D01*
X66986762Y-63015600D01*
X66985015Y-63020984D01*
X66963686Y-63081944D01*
X66962988Y-63088134D01*
X66958562Y-63109795D01*
X66955869Y-63118791D01*
X66952142Y-63182782D01*
X66951572Y-63189456D01*
X66944750Y-63249998D01*
X66945857Y-63259819D01*
X66946427Y-63280913D01*
X66945668Y-63293934D01*
X66956166Y-63353471D01*
X66957270Y-63361117D01*
X66963686Y-63418058D01*
X66968160Y-63430843D01*
X66973234Y-63450260D01*
X66976135Y-63466711D01*
X66998636Y-63518874D01*
X67001819Y-63527034D01*
X67019543Y-63577688D01*
X67028695Y-63592254D01*
X67037557Y-63609106D01*
X67045623Y-63627804D01*
X67061398Y-63648993D01*
X67077377Y-63670456D01*
X67082908Y-63678533D01*
X67109521Y-63720889D01*
X67124266Y-63735633D01*
X67136043Y-63749258D01*
X67150390Y-63768530D01*
X67177301Y-63791111D01*
X67188339Y-63800373D01*
X67196313Y-63807680D01*
X67229110Y-63840477D01*
X67243100Y-63849267D01*
X67249859Y-63853514D01*
X67263593Y-63863519D01*
X67284786Y-63881302D01*
X67325797Y-63901898D01*
X67336108Y-63907708D01*
X67372310Y-63930456D01*
X67398895Y-63939758D01*
X67413574Y-63945981D01*
X67441567Y-63960040D01*
X67482684Y-63969784D01*
X67495026Y-63973395D01*
X67531941Y-63986313D01*
X67531945Y-63986313D01*
X67541455Y-63989641D01*
X67584841Y-64015785D01*
X67614154Y-64057096D01*
X67624500Y-64106683D01*
X67624500Y-70937770D01*
X67615061Y-70985223D01*
X67588181Y-71025451D01*
X63050180Y-75563451D01*
X62994593Y-75595545D01*
X62930405Y-75595545D01*
X62874818Y-75563451D01*
X50336819Y-63025451D01*
X50309939Y-62985223D01*
X50300500Y-62937770D01*
X50300500Y-60825000D01*
X53669750Y-60825000D01*
X53688686Y-60993056D01*
X53744544Y-61152690D01*
X53805494Y-61249691D01*
X53824500Y-61315663D01*
X53824500Y-64777513D01*
X53823439Y-64793699D01*
X53819317Y-64825000D01*
X53824500Y-64864360D01*
X53824500Y-64864361D01*
X53839956Y-64981762D01*
X53900463Y-65127840D01*
X53996716Y-65253281D01*
X54021768Y-65272503D01*
X54033964Y-65283199D01*
X55601004Y-66850240D01*
X55625043Y-66884119D01*
X55636543Y-66924036D01*
X55638686Y-66943055D01*
X55638686Y-66943057D01*
X55638687Y-66943059D01*
X55694544Y-67102690D01*
X55784523Y-67245890D01*
X55904110Y-67365477D01*
X56047310Y-67455456D01*
X56206941Y-67511313D01*
X56225966Y-67513456D01*
X56265880Y-67524955D01*
X56299760Y-67548995D01*
X57166799Y-68416034D01*
X57177494Y-68428229D01*
X57196717Y-68453282D01*
X57286066Y-68521841D01*
X57322159Y-68549536D01*
X57322160Y-68549536D01*
X57322161Y-68549537D01*
X57355253Y-68563244D01*
X57468238Y-68610044D01*
X57593698Y-68626561D01*
X57624999Y-68630682D01*
X57624999Y-68630681D01*
X57625000Y-68630682D01*
X57656302Y-68626560D01*
X57672487Y-68625500D01*
X63984337Y-68625500D01*
X64050308Y-68644505D01*
X64147310Y-68705456D01*
X64306941Y-68761313D01*
X64475000Y-68780249D01*
X64643059Y-68761313D01*
X64802690Y-68705456D01*
X64945890Y-68615477D01*
X65065477Y-68495890D01*
X65155456Y-68352690D01*
X65211313Y-68193059D01*
X65230249Y-68025000D01*
X65211313Y-67856941D01*
X65155456Y-67697310D01*
X65065477Y-67554110D01*
X64945890Y-67434523D01*
X64802690Y-67344544D01*
X64643059Y-67288687D01*
X64643058Y-67288686D01*
X64643056Y-67288686D01*
X64475000Y-67269750D01*
X64306943Y-67288686D01*
X64147309Y-67344544D01*
X64050309Y-67405494D01*
X63984337Y-67424500D01*
X57925097Y-67424500D01*
X57877644Y-67415061D01*
X57837416Y-67388181D01*
X57148995Y-66699760D01*
X57124955Y-66665880D01*
X57113456Y-66625966D01*
X57111313Y-66606941D01*
X57055456Y-66447310D01*
X56965477Y-66304110D01*
X56845890Y-66184523D01*
X56702690Y-66094544D01*
X56543059Y-66038687D01*
X56543057Y-66038686D01*
X56543055Y-66038686D01*
X56524036Y-66036543D01*
X56484119Y-66025043D01*
X56450240Y-66001004D01*
X55061819Y-64612584D01*
X55034939Y-64572356D01*
X55025500Y-64524903D01*
X55025500Y-61315663D01*
X55044506Y-61249691D01*
X55105456Y-61152690D01*
X55161313Y-60993059D01*
X55180249Y-60825000D01*
X55161313Y-60656941D01*
X55105456Y-60497310D01*
X55044505Y-60400308D01*
X55025500Y-60334337D01*
X55025500Y-44890663D01*
X55044506Y-44824691D01*
X55105456Y-44727690D01*
X55161313Y-44568059D01*
X55180249Y-44400000D01*
X55161313Y-44231941D01*
X55105456Y-44072310D01*
X55044505Y-43975308D01*
X55025500Y-43909337D01*
X55025500Y-36140663D01*
X55044506Y-36074691D01*
X55067417Y-36038228D01*
X55105456Y-35977690D01*
X55161313Y-35818059D01*
X55180249Y-35650000D01*
X55161313Y-35481941D01*
X55105456Y-35322310D01*
X55044505Y-35225308D01*
X55025500Y-35159337D01*
X55025500Y-30725097D01*
X55034939Y-30677644D01*
X55061819Y-30637416D01*
X57412416Y-28286819D01*
X57452644Y-28259939D01*
X57500097Y-28250500D01*
X63659337Y-28250500D01*
X63725308Y-28269505D01*
X63822310Y-28330456D01*
X63981941Y-28386313D01*
X64093980Y-28398936D01*
X64149999Y-28405249D01*
X64149999Y-28405248D01*
X64150000Y-28405249D01*
X64318059Y-28386313D01*
X64477690Y-28330456D01*
X64620890Y-28240477D01*
X64740477Y-28120890D01*
X64830456Y-27977690D01*
X64886313Y-27818059D01*
X64905249Y-27650000D01*
X64886313Y-27481941D01*
X64830456Y-27322310D01*
X64740477Y-27179110D01*
X64620890Y-27059523D01*
X64477690Y-26969544D01*
X64318059Y-26913687D01*
X64318058Y-26913686D01*
X64318056Y-26913686D01*
X64150000Y-26894750D01*
X63981943Y-26913686D01*
X63822309Y-26969544D01*
X63725309Y-27030494D01*
X63659337Y-27049500D01*
X57247487Y-27049500D01*
X57231302Y-27048439D01*
X57227376Y-27047922D01*
X57199999Y-27044317D01*
X57164741Y-27048959D01*
X57160639Y-27049500D01*
X57043237Y-27064956D01*
X56897161Y-27125462D01*
X56846982Y-27163965D01*
X56771718Y-27221718D01*
X56771716Y-27221719D01*
X56771715Y-27221721D01*
X56752490Y-27246774D01*
X56741798Y-27258965D01*
X54033965Y-29966798D01*
X54021773Y-29977491D01*
X53996720Y-29996715D01*
X53996717Y-29996718D01*
X53996718Y-29996718D01*
X53948228Y-30059912D01*
X53948227Y-30059913D01*
X53948224Y-30059915D01*
X53900463Y-30122159D01*
X53839956Y-30268237D01*
X53825946Y-30374658D01*
X53819318Y-30425000D01*
X53823439Y-30456306D01*
X53824500Y-30472484D01*
X53824500Y-35159337D01*
X53805494Y-35225309D01*
X53744544Y-35322309D01*
X53688686Y-35481943D01*
X53669750Y-35650000D01*
X53688686Y-35818056D01*
X53688686Y-35818058D01*
X53688687Y-35818059D01*
X53744544Y-35977690D01*
X53771725Y-36020949D01*
X53805494Y-36074691D01*
X53824500Y-36140663D01*
X53824500Y-43909337D01*
X53805494Y-43975309D01*
X53744544Y-44072309D01*
X53688686Y-44231943D01*
X53669750Y-44399999D01*
X53688686Y-44568056D01*
X53744544Y-44727690D01*
X53805494Y-44824691D01*
X53824500Y-44890663D01*
X53824500Y-60334337D01*
X53805494Y-60400309D01*
X53744544Y-60497309D01*
X53688686Y-60656943D01*
X53669750Y-60825000D01*
X50300500Y-60825000D01*
X50300500Y-52588706D01*
X50301809Y-52570736D01*
X50302338Y-52567118D01*
X50305289Y-52546977D01*
X50300971Y-52497633D01*
X50300500Y-52486827D01*
X50300500Y-52481292D01*
X50300500Y-52481291D01*
X50296893Y-52450436D01*
X50296537Y-52446956D01*
X50291544Y-52389872D01*
X50289888Y-52370943D01*
X50285674Y-52351936D01*
X50285241Y-52350745D01*
X50259569Y-52280211D01*
X50258422Y-52276913D01*
X50234814Y-52205665D01*
X50234812Y-52205662D01*
X50234415Y-52204463D01*
X50225929Y-52186936D01*
X50225237Y-52185884D01*
X50225237Y-52185883D01*
X50184025Y-52123224D01*
X50182106Y-52120212D01*
X50142048Y-52055267D01*
X50129750Y-52040172D01*
X50074290Y-51987848D01*
X50071703Y-51985335D01*
X49436819Y-51350451D01*
X49409939Y-51310223D01*
X49400500Y-51262770D01*
X49400500Y-39700446D01*
X49400710Y-39693236D01*
X49404331Y-39631065D01*
X49402384Y-39620023D01*
X49400500Y-39598490D01*
X49400500Y-28913706D01*
X49401809Y-28895736D01*
X49402338Y-28892118D01*
X49405289Y-28871977D01*
X49400972Y-28822631D01*
X49400500Y-28811824D01*
X49400500Y-28806289D01*
X49396903Y-28775521D01*
X49396536Y-28771929D01*
X49389889Y-28695949D01*
X49385672Y-28676930D01*
X49359592Y-28605274D01*
X49358408Y-28601868D01*
X49334417Y-28529468D01*
X49325929Y-28511936D01*
X49325237Y-28510884D01*
X49325237Y-28510883D01*
X49283999Y-28448184D01*
X49282087Y-28445181D01*
X49242050Y-28380270D01*
X49229750Y-28365172D01*
X49174290Y-28312848D01*
X49171703Y-28310335D01*
X47819926Y-26958558D01*
X47819915Y-26958548D01*
X47795890Y-26934523D01*
X47764326Y-26914689D01*
X47753394Y-26906966D01*
X47721679Y-26881890D01*
X47691642Y-26867883D01*
X47678079Y-26860497D01*
X47652690Y-26844544D01*
X47628919Y-26836226D01*
X47614065Y-26831028D01*
X47602617Y-26826369D01*
X47562674Y-26807743D01*
X47533785Y-26801778D01*
X47517910Y-26797382D01*
X47493059Y-26788687D01*
X47493057Y-26788686D01*
X47493055Y-26788686D01*
X47448780Y-26783697D01*
X47437591Y-26781915D01*
X47390859Y-26772265D01*
X47365022Y-26773017D01*
X47347541Y-26772290D01*
X47325002Y-26769751D01*
X47325001Y-26769751D01*
X47277106Y-26775147D01*
X47266836Y-26775873D01*
X47215487Y-26777368D01*
X47194054Y-26783111D01*
X47175849Y-26786556D01*
X47156939Y-26788686D01*
X47108004Y-26805809D01*
X47099148Y-26808541D01*
X47046024Y-26822776D01*
X47029715Y-26831570D01*
X47011827Y-26839464D01*
X46997311Y-26844543D01*
X46950337Y-26874059D01*
X46943218Y-26878208D01*
X46891598Y-26906041D01*
X46880481Y-26915934D01*
X46864036Y-26928284D01*
X46854113Y-26934520D01*
X46812318Y-26976314D01*
X46807074Y-26981261D01*
X46760539Y-27022674D01*
X46754103Y-27031866D01*
X46740219Y-27048413D01*
X46734521Y-27054111D01*
X46701127Y-27107254D01*
X46697713Y-27112398D01*
X46659911Y-27166388D01*
X46657119Y-27173415D01*
X46646886Y-27193581D01*
X46644544Y-27197308D01*
X46622615Y-27259977D01*
X46620813Y-27264802D01*
X46595137Y-27329433D01*
X46594574Y-27333278D01*
X46588930Y-27356245D01*
X46588687Y-27356938D01*
X46580845Y-27426531D01*
X46580316Y-27430615D01*
X46569710Y-27503023D01*
X46569730Y-27503246D01*
X46569488Y-27522671D01*
X46577996Y-27598184D01*
X46578304Y-27601259D01*
X46585243Y-27680571D01*
X46586803Y-27687677D01*
X46614224Y-27766041D01*
X46614888Y-27767990D01*
X46641182Y-27847339D01*
X46687616Y-27921238D01*
X46688161Y-27922114D01*
X46732288Y-27993656D01*
X47863181Y-29124549D01*
X47890061Y-29164777D01*
X47899500Y-29212230D01*
X47899500Y-38800500D01*
X47882887Y-38862500D01*
X47837500Y-38907887D01*
X47775500Y-38924500D01*
X47349110Y-38924500D01*
X47335225Y-38923720D01*
X47300000Y-38919750D01*
X47264775Y-38923720D01*
X47261293Y-38923915D01*
X47214622Y-38929370D01*
X47214112Y-38929428D01*
X47127232Y-38939216D01*
X47048422Y-38967899D01*
X47046972Y-38968417D01*
X46965179Y-38997039D01*
X46964572Y-38997336D01*
X46895162Y-39042987D01*
X46892997Y-39044379D01*
X46825759Y-39086628D01*
X46815159Y-39095262D01*
X46762831Y-39150726D01*
X46760321Y-39153311D01*
X46708915Y-39204718D01*
X46695328Y-39222274D01*
X46693912Y-39223774D01*
X46658232Y-39285574D01*
X46655840Y-39289543D01*
X46619541Y-39347314D01*
X46618691Y-39349743D01*
X46609048Y-39370765D01*
X46606188Y-39375718D01*
X46586762Y-39440600D01*
X46585015Y-39445984D01*
X46563686Y-39506944D01*
X46562988Y-39513134D01*
X46558562Y-39534795D01*
X46555869Y-39543791D01*
X46552142Y-39607782D01*
X46551572Y-39614456D01*
X46544750Y-39674998D01*
X42100500Y-39674998D01*
X42100500Y-36238706D01*
X42101809Y-36220736D01*
X42102338Y-36217118D01*
X42105289Y-36196977D01*
X42100972Y-36147631D01*
X42100500Y-36136824D01*
X42100500Y-36131289D01*
X42097683Y-36107194D01*
X42096902Y-36100516D01*
X42096536Y-36096929D01*
X42094258Y-36070890D01*
X42089999Y-36022203D01*
X42089998Y-36022201D01*
X42089889Y-36020949D01*
X42085672Y-36001930D01*
X42069044Y-35956245D01*
X42059591Y-35930273D01*
X42058408Y-35926868D01*
X42037841Y-35864802D01*
X42034814Y-35855666D01*
X42034812Y-35855663D01*
X42034415Y-35854464D01*
X42025929Y-35836936D01*
X42025237Y-35835884D01*
X42025237Y-35835883D01*
X41984021Y-35773219D01*
X41982086Y-35770181D01*
X41980777Y-35768059D01*
X41942712Y-35706345D01*
X41942711Y-35706344D01*
X41942053Y-35705277D01*
X41929743Y-35690165D01*
X41874264Y-35637822D01*
X41871678Y-35635310D01*
X41794926Y-35558558D01*
X41794915Y-35558548D01*
X41770890Y-35534523D01*
X41739326Y-35514689D01*
X41728394Y-35506966D01*
X41696679Y-35481890D01*
X41696677Y-35481889D01*
X41666640Y-35467882D01*
X41653079Y-35460497D01*
X41627690Y-35444544D01*
X41591674Y-35431941D01*
X41589065Y-35431028D01*
X41577617Y-35426369D01*
X41537674Y-35407743D01*
X41508785Y-35401778D01*
X41492910Y-35397382D01*
X41468059Y-35388687D01*
X41468057Y-35388686D01*
X41468055Y-35388686D01*
X41423780Y-35383697D01*
X41412591Y-35381915D01*
X41365859Y-35372265D01*
X41340022Y-35373017D01*
X41322541Y-35372290D01*
X41300002Y-35369751D01*
X41300001Y-35369751D01*
X41252106Y-35375147D01*
X41241836Y-35375873D01*
X41190487Y-35377368D01*
X41169054Y-35383111D01*
X41150849Y-35386556D01*
X41131939Y-35388686D01*
X41083004Y-35405809D01*
X41074148Y-35408541D01*
X41021024Y-35422776D01*
X41004715Y-35431570D01*
X40986827Y-35439464D01*
X40972311Y-35444543D01*
X40925337Y-35474059D01*
X40918218Y-35478208D01*
X40866598Y-35506041D01*
X40855481Y-35515934D01*
X40839036Y-35528284D01*
X40829113Y-35534520D01*
X40787318Y-35576314D01*
X40782074Y-35581261D01*
X40735539Y-35622674D01*
X40729103Y-35631866D01*
X40715219Y-35648413D01*
X40709521Y-35654111D01*
X40676127Y-35707254D01*
X40672713Y-35712398D01*
X40634911Y-35766388D01*
X40632119Y-35773415D01*
X40621886Y-35793581D01*
X40619544Y-35797308D01*
X40597615Y-35859977D01*
X40595813Y-35864802D01*
X40570137Y-35929433D01*
X40569574Y-35933278D01*
X40563930Y-35956245D01*
X40563687Y-35956938D01*
X40555845Y-36026531D01*
X40555316Y-36030615D01*
X40544710Y-36103023D01*
X40544730Y-36103246D01*
X40544488Y-36122671D01*
X19940500Y-36122671D01*
X19940500Y-25149500D01*
X19957113Y-25087500D01*
X20002500Y-25042113D01*
X20064500Y-25025500D01*
X92525000Y-25025500D01*
X92525000Y-32761652D01*
G37*
%TD.AperFunction*%
%TA.AperFunction,Conductor*%
G36*
X94798885Y-61399401D02*
G01*
X94836485Y-61443424D01*
X94850000Y-61499719D01*
X94850000Y-61900000D01*
X94150357Y-61900000D01*
X94638319Y-61412038D01*
X94687682Y-61381788D01*
X94745398Y-61377246D01*
X94798885Y-61399401D01*
G37*
%TD.AperFunction*%
%TA.AperFunction,Conductor*%
G36*
X94425000Y-34675000D02*
G01*
X94850000Y-34675000D01*
X94850000Y-34778833D01*
X94836167Y-34835747D01*
X94797755Y-34879963D01*
X94743334Y-34901615D01*
X94685048Y-34895875D01*
X94593059Y-34863687D01*
X94593055Y-34863686D01*
X94593054Y-34863686D01*
X94425000Y-34844750D01*
X94256943Y-34863686D01*
X94207686Y-34880922D01*
X94150257Y-34901017D01*
X94088533Y-34906223D01*
X94031991Y-34880922D01*
X93994743Y-34831427D01*
X93986084Y-34770091D01*
X93986837Y-34763405D01*
X94005249Y-34600000D01*
X94002530Y-34575873D01*
X93986313Y-34431943D01*
X93986313Y-34431941D01*
X93930456Y-34272310D01*
X93840477Y-34129110D01*
X93720890Y-34009523D01*
X93577690Y-33919544D01*
X93418059Y-33863687D01*
X93418058Y-33863686D01*
X93418056Y-33863686D01*
X93250001Y-33844750D01*
X93237357Y-33846175D01*
X93176021Y-33837514D01*
X93126527Y-33800265D01*
X93101228Y-33743723D01*
X93106434Y-33682000D01*
X93111313Y-33668059D01*
X93130249Y-33500000D01*
X93115042Y-33365042D01*
X94425000Y-34675000D01*
G37*
%TD.AperFunction*%
%TD*%
%TA.AperFunction,Conductor*%
%TO.N,GND*%
G36*
X103838000Y-25042113D02*
G01*
X103883387Y-25087500D01*
X103900000Y-25149500D01*
X103900000Y-30800000D01*
X104050000Y-30950000D01*
X125525000Y-30950000D01*
X125575000Y-30900000D01*
X125575000Y-25149500D01*
X125591613Y-25087500D01*
X125637000Y-25042113D01*
X125699000Y-25025500D01*
X166065500Y-25025500D01*
X166127500Y-25042113D01*
X166172887Y-25087500D01*
X166189500Y-25149500D01*
X166189500Y-95425500D01*
X166172887Y-95487500D01*
X166127500Y-95532887D01*
X166065500Y-95549500D01*
X98400000Y-95549500D01*
X98400000Y-93640000D01*
X135555000Y-93640000D01*
X135555000Y-93708681D01*
X135570248Y-93839140D01*
X135630212Y-94003889D01*
X135726556Y-94150374D01*
X135854081Y-94270688D01*
X135929999Y-94314519D01*
X135930000Y-94314519D01*
X135930000Y-93640000D01*
X136680000Y-93640000D01*
X136680000Y-94320042D01*
X136682552Y-94318940D01*
X136823185Y-94214243D01*
X136935880Y-94079939D01*
X137014567Y-93923260D01*
X137055000Y-93752660D01*
X137055000Y-93640000D01*
X144195000Y-93640000D01*
X144195000Y-93708681D01*
X144210248Y-93839140D01*
X144270212Y-94003889D01*
X144366556Y-94150374D01*
X144494081Y-94270688D01*
X144569999Y-94314519D01*
X144570000Y-94314519D01*
X144570000Y-93640000D01*
X145320000Y-93640000D01*
X145320000Y-94320042D01*
X145322552Y-94318940D01*
X145463185Y-94214243D01*
X145575880Y-94079939D01*
X145654567Y-93923260D01*
X145695000Y-93752660D01*
X145695000Y-93640000D01*
X145320000Y-93640000D01*
X144570000Y-93640000D01*
X144195000Y-93640000D01*
X137055000Y-93640000D01*
X136680000Y-93640000D01*
X135930000Y-93640000D01*
X135555000Y-93640000D01*
X98400000Y-93640000D01*
X98400000Y-92890000D01*
X135555000Y-92890000D01*
X135930000Y-92890000D01*
X135930000Y-92215480D01*
X136680000Y-92215480D01*
X136680000Y-92890000D01*
X137055000Y-92890000D01*
X144195000Y-92890000D01*
X144570000Y-92890000D01*
X144570000Y-92215480D01*
X145320000Y-92215480D01*
X145320000Y-92890000D01*
X145695000Y-92890000D01*
X145695000Y-92821319D01*
X145679751Y-92690859D01*
X145619787Y-92526110D01*
X145523443Y-92379625D01*
X145395918Y-92259311D01*
X145320000Y-92215480D01*
X144570000Y-92215480D01*
X144570000Y-92209958D01*
X144567447Y-92211059D01*
X144426814Y-92315756D01*
X144314119Y-92450060D01*
X144235432Y-92606739D01*
X144195000Y-92777340D01*
X144195000Y-92890000D01*
X137055000Y-92890000D01*
X137055000Y-92821319D01*
X137039751Y-92690859D01*
X136979787Y-92526110D01*
X136883443Y-92379625D01*
X136755918Y-92259311D01*
X136680000Y-92215480D01*
X135930000Y-92215480D01*
X135930000Y-92209958D01*
X135927447Y-92211059D01*
X135786814Y-92315756D01*
X135674119Y-92450060D01*
X135595432Y-92606739D01*
X135555000Y-92777340D01*
X135555000Y-92890000D01*
X98400000Y-92890000D01*
X98400000Y-90140041D01*
X136680000Y-90140041D01*
X136682552Y-90138940D01*
X136823185Y-90034243D01*
X136935880Y-89899940D01*
X136993052Y-89786101D01*
X137038432Y-89736420D01*
X137103079Y-89717754D01*
X137167956Y-89735601D01*
X137213961Y-89784704D01*
X137277731Y-89907776D01*
X137381769Y-90019174D01*
X137381771Y-90019175D01*
X137381772Y-90019176D01*
X137512010Y-90098375D01*
X137658786Y-90139500D01*
X137772927Y-90139500D01*
X137886009Y-90123957D01*
X138025818Y-90063230D01*
X138144058Y-89967034D01*
X138231961Y-89842504D01*
X138283006Y-89698877D01*
X138288183Y-89623196D01*
X142956592Y-89623196D01*
X142972319Y-89698878D01*
X142987604Y-89772436D01*
X143057731Y-89907776D01*
X143161769Y-90019174D01*
X143161771Y-90019175D01*
X143161772Y-90019176D01*
X143292010Y-90098375D01*
X143438786Y-90139500D01*
X143552927Y-90139500D01*
X143666009Y-90123957D01*
X143805818Y-90063230D01*
X143924058Y-89967034D01*
X144011961Y-89842504D01*
X144027446Y-89798932D01*
X144060754Y-89748816D01*
X144113738Y-89720281D01*
X144173917Y-89720053D01*
X144227116Y-89748183D01*
X144260807Y-89798049D01*
X144270212Y-89823890D01*
X144366556Y-89970374D01*
X144494081Y-90090688D01*
X144569999Y-90134519D01*
X144570000Y-90134519D01*
X144570000Y-89460000D01*
X145320000Y-89460000D01*
X145320000Y-90140041D01*
X145322552Y-90138940D01*
X145463185Y-90034243D01*
X145575880Y-89899939D01*
X145654567Y-89743260D01*
X145695000Y-89572660D01*
X145695000Y-89460000D01*
X145320000Y-89460000D01*
X144570000Y-89460000D01*
X144150154Y-89460000D01*
X144085726Y-89441948D01*
X144040056Y-89393048D01*
X143972268Y-89262223D01*
X143868230Y-89150825D01*
X143848570Y-89138870D01*
X143737990Y-89071625D01*
X143591214Y-89030500D01*
X143477073Y-89030500D01*
X143363989Y-89046043D01*
X143224183Y-89106769D01*
X143105940Y-89202966D01*
X143018038Y-89327496D01*
X142966994Y-89471121D01*
X142961082Y-89557546D01*
X142956592Y-89623196D01*
X138288183Y-89623196D01*
X138293408Y-89546804D01*
X138262396Y-89397564D01*
X138192269Y-89262225D01*
X138192268Y-89262223D01*
X138088230Y-89150825D01*
X138068570Y-89138870D01*
X137957990Y-89071625D01*
X137811214Y-89030500D01*
X137697073Y-89030500D01*
X137583989Y-89046043D01*
X137444183Y-89106769D01*
X137325940Y-89202966D01*
X137238039Y-89327495D01*
X137220258Y-89377526D01*
X137194041Y-89420637D01*
X137152820Y-89449734D01*
X137103418Y-89460000D01*
X136680000Y-89460000D01*
X136680000Y-90140041D01*
X98400000Y-90140041D01*
X98400000Y-87225500D01*
X106455242Y-87225500D01*
X106511537Y-87239015D01*
X106555560Y-87276615D01*
X106577715Y-87330102D01*
X106573173Y-87387818D01*
X106542923Y-87437181D01*
X106501505Y-87478598D01*
X106365965Y-87672170D01*
X106266097Y-87886336D01*
X106204936Y-88114592D01*
X106184340Y-88350000D01*
X106204936Y-88585407D01*
X106219918Y-88641319D01*
X106266097Y-88813663D01*
X106365965Y-89027830D01*
X106501505Y-89221401D01*
X106668599Y-89388495D01*
X106862170Y-89524035D01*
X107076337Y-89623903D01*
X107304592Y-89685063D01*
X107540000Y-89705659D01*
X107775408Y-89685063D01*
X108003663Y-89623903D01*
X108217830Y-89524035D01*
X108411401Y-89388495D01*
X108533329Y-89266566D01*
X108586072Y-89235273D01*
X108647365Y-89233084D01*
X108702209Y-89260537D01*
X108737189Y-89310916D01*
X108786204Y-89442331D01*
X108872454Y-89557546D01*
X108987669Y-89643796D01*
X109122517Y-89694091D01*
X109182127Y-89700500D01*
X110977872Y-89700499D01*
X111037483Y-89694091D01*
X111172331Y-89643796D01*
X111287546Y-89557546D01*
X111360569Y-89460000D01*
X135555000Y-89460000D01*
X135555000Y-89528681D01*
X135570248Y-89659140D01*
X135630212Y-89823889D01*
X135726556Y-89970374D01*
X135854081Y-90090688D01*
X135929999Y-90134519D01*
X135930000Y-90134519D01*
X135930000Y-89460000D01*
X135555000Y-89460000D01*
X111360569Y-89460000D01*
X111373796Y-89442331D01*
X111424091Y-89307483D01*
X111430500Y-89247873D01*
X111430499Y-87452128D01*
X111424091Y-87392517D01*
X111373796Y-87257669D01*
X111287546Y-87142454D01*
X111172331Y-87056204D01*
X111037483Y-87005909D01*
X110977873Y-86999500D01*
X110977869Y-86999500D01*
X110811714Y-86999500D01*
X110751282Y-86983777D01*
X110706175Y-86940597D01*
X110672047Y-86885267D01*
X110659748Y-86870170D01*
X110604273Y-86817832D01*
X110601686Y-86815319D01*
X109775728Y-85989360D01*
X109763946Y-85975727D01*
X109743711Y-85948547D01*
X109719646Y-85885307D01*
X109732363Y-85818848D01*
X109778077Y-85768961D01*
X109843174Y-85750499D01*
X110952870Y-85750499D01*
X110952872Y-85750499D01*
X111012483Y-85744091D01*
X111147331Y-85693796D01*
X111262546Y-85607546D01*
X111348796Y-85492331D01*
X111399091Y-85357483D01*
X111405500Y-85297873D01*
X111405499Y-83502128D01*
X111399091Y-83442517D01*
X111348796Y-83307669D01*
X111262546Y-83192454D01*
X111147331Y-83106204D01*
X111012483Y-83055909D01*
X110952873Y-83049500D01*
X110952869Y-83049500D01*
X109157130Y-83049500D01*
X109097515Y-83055909D01*
X108962669Y-83106204D01*
X108847454Y-83192454D01*
X108761204Y-83307669D01*
X108712189Y-83439083D01*
X108677209Y-83489462D01*
X108622365Y-83516915D01*
X108561072Y-83514726D01*
X108508326Y-83483430D01*
X108386404Y-83361508D01*
X108386403Y-83361507D01*
X108386401Y-83361505D01*
X108192830Y-83225965D01*
X107978663Y-83126097D01*
X107917502Y-83109709D01*
X107750407Y-83064936D01*
X107515000Y-83044340D01*
X107279592Y-83064936D01*
X107051336Y-83126097D01*
X106837170Y-83225965D01*
X106643598Y-83361505D01*
X106476505Y-83528598D01*
X106340965Y-83722170D01*
X106241097Y-83936336D01*
X106179936Y-84164592D01*
X106159340Y-84399999D01*
X106179936Y-84635407D01*
X106205374Y-84730341D01*
X106241097Y-84863663D01*
X106340965Y-85077830D01*
X106476505Y-85271401D01*
X106643599Y-85438495D01*
X106729904Y-85498926D01*
X106770230Y-85546142D01*
X106782609Y-85606990D01*
X106763937Y-85666210D01*
X106718895Y-85708953D01*
X106658779Y-85724500D01*
X98400000Y-85724500D01*
X98400000Y-82750000D01*
X97075000Y-82750000D01*
X97075000Y-79601500D01*
X97091613Y-79539500D01*
X97137000Y-79494113D01*
X97199000Y-79477500D01*
X97562961Y-79477500D01*
X97579145Y-79478560D01*
X97610448Y-79482682D01*
X97767210Y-79462044D01*
X97913289Y-79401536D01*
X97927065Y-79390965D01*
X98038730Y-79305282D01*
X98057957Y-79280223D01*
X98068638Y-79268043D01*
X101813812Y-75522869D01*
X116434500Y-75522869D01*
X116440909Y-75582484D01*
X116466056Y-75649907D01*
X116491204Y-75717331D01*
X116577454Y-75832546D01*
X116692669Y-75918796D01*
X116827517Y-75969091D01*
X116887127Y-75975500D01*
X118682872Y-75975499D01*
X118742483Y-75969091D01*
X118877331Y-75918796D01*
X118992546Y-75832546D01*
X119078796Y-75717331D01*
X119127810Y-75585916D01*
X119162789Y-75535537D01*
X119217634Y-75508084D01*
X119278927Y-75510273D01*
X119331672Y-75541568D01*
X119453599Y-75663495D01*
X119647170Y-75799035D01*
X119861337Y-75898903D01*
X120089592Y-75960063D01*
X120325000Y-75980659D01*
X120560408Y-75960063D01*
X120788663Y-75898903D01*
X121002830Y-75799035D01*
X121196401Y-75663495D01*
X121363495Y-75496401D01*
X121499035Y-75302830D01*
X121598903Y-75088663D01*
X121660063Y-74860408D01*
X121680659Y-74625000D01*
X121660063Y-74389592D01*
X121598903Y-74161337D01*
X121499035Y-73947171D01*
X121363495Y-73753599D01*
X121196401Y-73586505D01*
X121002830Y-73450965D01*
X120788663Y-73351097D01*
X120727502Y-73334709D01*
X120560407Y-73289936D01*
X120325000Y-73269340D01*
X120089592Y-73289936D01*
X119861336Y-73351097D01*
X119647170Y-73450965D01*
X119453601Y-73586503D01*
X119331673Y-73708431D01*
X119278926Y-73739726D01*
X119217634Y-73741915D01*
X119162789Y-73714462D01*
X119127810Y-73664082D01*
X119120658Y-73644907D01*
X119078796Y-73532669D01*
X118992546Y-73417454D01*
X118877331Y-73331204D01*
X118742483Y-73280909D01*
X118682873Y-73274500D01*
X118682869Y-73274500D01*
X116887130Y-73274500D01*
X116827515Y-73280909D01*
X116692669Y-73331204D01*
X116577454Y-73417454D01*
X116491204Y-73532668D01*
X116440909Y-73667516D01*
X116434500Y-73727130D01*
X116434500Y-75522869D01*
X101813812Y-75522869D01*
X103493043Y-73843638D01*
X103505223Y-73832957D01*
X103530282Y-73813730D01*
X103626536Y-73688289D01*
X103687044Y-73542210D01*
X103702500Y-73424809D01*
X103707682Y-73385448D01*
X103703560Y-73354145D01*
X103702500Y-73337961D01*
X103702500Y-70268935D01*
X103721506Y-70202963D01*
X103772699Y-70157215D01*
X103840384Y-70145715D01*
X103925000Y-70155249D01*
X104093059Y-70136313D01*
X104252690Y-70080456D01*
X104395890Y-69990477D01*
X104424819Y-69961548D01*
X104480406Y-69929454D01*
X104544594Y-69929454D01*
X104600181Y-69961548D01*
X104629110Y-69990477D01*
X104772310Y-70080456D01*
X104931941Y-70136313D01*
X105100000Y-70155249D01*
X105268059Y-70136313D01*
X105427690Y-70080456D01*
X105570890Y-69990477D01*
X105690477Y-69870890D01*
X105780456Y-69727690D01*
X105836313Y-69568059D01*
X105845010Y-69490863D01*
X105856511Y-69450945D01*
X105880547Y-69417068D01*
X108997296Y-66300319D01*
X109037525Y-66273439D01*
X109084978Y-66264000D01*
X128275271Y-66264000D01*
X128331566Y-66277515D01*
X128375589Y-66315115D01*
X128397744Y-66368602D01*
X128393202Y-66426318D01*
X128362952Y-66475681D01*
X128319358Y-66519274D01*
X128229378Y-66662476D01*
X128173520Y-66822109D01*
X128154584Y-66990165D01*
X128173520Y-67158222D01*
X128173520Y-67158224D01*
X128173521Y-67158225D01*
X128229378Y-67317856D01*
X128319357Y-67461056D01*
X128438944Y-67580643D01*
X128582144Y-67670622D01*
X128741775Y-67726479D01*
X128808998Y-67734053D01*
X128909831Y-67745415D01*
X128909832Y-67745414D01*
X128909834Y-67745415D01*
X128956677Y-67740136D01*
X129011513Y-67746314D01*
X129058241Y-67775675D01*
X140000680Y-78718114D01*
X140027560Y-78758342D01*
X140036999Y-78805795D01*
X140036999Y-85982491D01*
X140021527Y-86042472D01*
X139978972Y-86087483D01*
X139931037Y-86117603D01*
X139904108Y-86134524D01*
X139784524Y-86254108D01*
X139694544Y-86397310D01*
X139638686Y-86556943D01*
X139632214Y-86614384D01*
X139611447Y-86670352D01*
X139566935Y-86710130D01*
X139508994Y-86724500D01*
X122862230Y-86724500D01*
X122814777Y-86715061D01*
X122774549Y-86688181D01*
X120974048Y-84887680D01*
X120941954Y-84832093D01*
X120941954Y-84767905D01*
X120974048Y-84712318D01*
X122493912Y-83192454D01*
X124035638Y-81650727D01*
X124049256Y-81638957D01*
X124068530Y-81624610D01*
X124100384Y-81586647D01*
X124107671Y-81578694D01*
X124111591Y-81574776D01*
X124130820Y-81550454D01*
X124133077Y-81547685D01*
X124181302Y-81490214D01*
X124181303Y-81490211D01*
X124182115Y-81489244D01*
X124192573Y-81472828D01*
X124193107Y-81471680D01*
X124193111Y-81471677D01*
X124224845Y-81403621D01*
X124226371Y-81400470D01*
X124260040Y-81333433D01*
X124260040Y-81333431D01*
X124260609Y-81332299D01*
X124267002Y-81313906D01*
X124282431Y-81239184D01*
X124283212Y-81235660D01*
X124300791Y-81161493D01*
X124302770Y-81142120D01*
X124302733Y-81140858D01*
X124302734Y-81140855D01*
X124300552Y-81065868D01*
X124300500Y-81062262D01*
X124300500Y-70599110D01*
X124301280Y-70585225D01*
X124305249Y-70549999D01*
X124301280Y-70514775D01*
X124301084Y-70511288D01*
X124300500Y-70506291D01*
X124295617Y-70464522D01*
X124286313Y-70381941D01*
X124286312Y-70381938D01*
X124285782Y-70377233D01*
X124285241Y-70375747D01*
X124285241Y-70375745D01*
X124257073Y-70298355D01*
X124256634Y-70297123D01*
X124230456Y-70222310D01*
X124230455Y-70222308D01*
X124227951Y-70215151D01*
X124227679Y-70214597D01*
X124225237Y-70210885D01*
X124225237Y-70210883D01*
X124182028Y-70145188D01*
X124180634Y-70143019D01*
X124138364Y-70075747D01*
X124129748Y-70065170D01*
X124074272Y-70012831D01*
X124071685Y-70010318D01*
X124020286Y-69958919D01*
X124002707Y-69945313D01*
X124001218Y-69943908D01*
X123982219Y-69932939D01*
X123939410Y-69908223D01*
X123935437Y-69905829D01*
X123877687Y-69869542D01*
X123875267Y-69868695D01*
X123854232Y-69859046D01*
X123849281Y-69856188D01*
X123784404Y-69836764D01*
X123779017Y-69835016D01*
X123718056Y-69813686D01*
X123711872Y-69812989D01*
X123690203Y-69808562D01*
X123681207Y-69805869D01*
X123617217Y-69802142D01*
X123610543Y-69801572D01*
X123550000Y-69794750D01*
X123540179Y-69795857D01*
X123519085Y-69796427D01*
X123506063Y-69795668D01*
X123446526Y-69806166D01*
X123438881Y-69807270D01*
X123381936Y-69813687D01*
X123369146Y-69818162D01*
X123349738Y-69823233D01*
X123333291Y-69826133D01*
X123281119Y-69848638D01*
X123272962Y-69851819D01*
X123222311Y-69869542D01*
X123207741Y-69878697D01*
X123190893Y-69887557D01*
X123172195Y-69895623D01*
X123129535Y-69927382D01*
X123121461Y-69932911D01*
X123079111Y-69959521D01*
X123064360Y-69974272D01*
X123050734Y-69986047D01*
X123031469Y-70000390D01*
X122999624Y-70038340D01*
X122992320Y-70046311D01*
X122959524Y-70079108D01*
X122946480Y-70099866D01*
X122936480Y-70113593D01*
X122918697Y-70134785D01*
X122898100Y-70175798D01*
X122892285Y-70186115D01*
X122869544Y-70222308D01*
X122860240Y-70248894D01*
X122854014Y-70263579D01*
X122839960Y-70291565D01*
X122830215Y-70332680D01*
X122826600Y-70345033D01*
X122813686Y-70381939D01*
X122810125Y-70413545D01*
X122807563Y-70428251D01*
X122799500Y-70462276D01*
X122799500Y-70500890D01*
X122798720Y-70514775D01*
X122794750Y-70549999D01*
X122798720Y-70585225D01*
X122799500Y-70599110D01*
X122799500Y-80712771D01*
X122790061Y-80760224D01*
X122763181Y-80800452D01*
X119312309Y-84251321D01*
X119307064Y-84256270D01*
X119260539Y-84297674D01*
X119254103Y-84306866D01*
X119240219Y-84323413D01*
X119234522Y-84329110D01*
X119214689Y-84360673D01*
X119206966Y-84371605D01*
X119181887Y-84403323D01*
X119177144Y-84413494D01*
X119166347Y-84432196D01*
X119159910Y-84441390D01*
X119157119Y-84448414D01*
X119146886Y-84468581D01*
X119144543Y-84472310D01*
X119131028Y-84510931D01*
X119126372Y-84522374D01*
X119107742Y-84562328D01*
X119105473Y-84573316D01*
X119099277Y-84594010D01*
X119095137Y-84604430D01*
X119094574Y-84608278D01*
X119088930Y-84631245D01*
X119088687Y-84631939D01*
X119083697Y-84676220D01*
X119081915Y-84687408D01*
X119072265Y-84734140D01*
X119072592Y-84745360D01*
X119071335Y-84766932D01*
X119069710Y-84778023D01*
X119069730Y-84778246D01*
X119069488Y-84797670D01*
X119075146Y-84847891D01*
X119075873Y-84858164D01*
X119077368Y-84909508D01*
X119080271Y-84920343D01*
X119084023Y-84941623D01*
X119085243Y-84955572D01*
X119086804Y-84962680D01*
X119105810Y-85016997D01*
X119108543Y-85025856D01*
X119122776Y-85078976D01*
X119128098Y-85088845D01*
X119136656Y-85108684D01*
X119141181Y-85122340D01*
X119174058Y-85174661D01*
X119178210Y-85181784D01*
X119206039Y-85233398D01*
X119206041Y-85233400D01*
X119213494Y-85241776D01*
X119226399Y-85259109D01*
X119232287Y-85268655D01*
X119276320Y-85312688D01*
X119281270Y-85317934D01*
X119322675Y-85364460D01*
X119331858Y-85370890D01*
X119348419Y-85384786D01*
X121924267Y-87960634D01*
X121936048Y-87974266D01*
X121950390Y-87993530D01*
X121988355Y-88025386D01*
X121996317Y-88032684D01*
X122000224Y-88036591D01*
X122024542Y-88055819D01*
X122027298Y-88058063D01*
X122084786Y-88106302D01*
X122084788Y-88106303D01*
X122085757Y-88107116D01*
X122102177Y-88117576D01*
X122103321Y-88118109D01*
X122103323Y-88118111D01*
X122171357Y-88149835D01*
X122174456Y-88151335D01*
X122240667Y-88184588D01*
X122242704Y-88185611D01*
X122261084Y-88191998D01*
X122262321Y-88192253D01*
X122262327Y-88192256D01*
X122335862Y-88207439D01*
X122339209Y-88208181D01*
X122412279Y-88225500D01*
X122412281Y-88225500D01*
X122413505Y-88225790D01*
X122432876Y-88227769D01*
X122434140Y-88227732D01*
X122434144Y-88227733D01*
X122509110Y-88225552D01*
X122512716Y-88225500D01*
X135495464Y-88225500D01*
X135555896Y-88241223D01*
X135601003Y-88284403D01*
X135619346Y-88344092D01*
X135606274Y-88405152D01*
X135595432Y-88426738D01*
X135555000Y-88597340D01*
X135555000Y-88710000D01*
X137055000Y-88710000D01*
X137055000Y-88641319D01*
X137039751Y-88510860D01*
X136996457Y-88391911D01*
X136990040Y-88333315D01*
X137011404Y-88278377D01*
X137055722Y-88239511D01*
X137112979Y-88225500D01*
X144135464Y-88225500D01*
X144195896Y-88241223D01*
X144241003Y-88284403D01*
X144259346Y-88344092D01*
X144246274Y-88405152D01*
X144235432Y-88426738D01*
X144195000Y-88597340D01*
X144195000Y-88710000D01*
X145695000Y-88710000D01*
X145695000Y-88641319D01*
X145679751Y-88510860D01*
X145636457Y-88391911D01*
X145630040Y-88333315D01*
X145651404Y-88278377D01*
X145695722Y-88239511D01*
X145752979Y-88225500D01*
X154736294Y-88225500D01*
X154754264Y-88226809D01*
X154758320Y-88227402D01*
X154778023Y-88230289D01*
X154827368Y-88225972D01*
X154838176Y-88225500D01*
X154843706Y-88225500D01*
X154843709Y-88225500D01*
X154874550Y-88221894D01*
X154878031Y-88221539D01*
X154952797Y-88214999D01*
X154952797Y-88214998D01*
X154954052Y-88214889D01*
X154973062Y-88210674D01*
X154974250Y-88210241D01*
X154974255Y-88210241D01*
X155044820Y-88184557D01*
X155048095Y-88183419D01*
X155119334Y-88159814D01*
X155119336Y-88159812D01*
X155120536Y-88159415D01*
X155138063Y-88150929D01*
X155139112Y-88150238D01*
X155139117Y-88150237D01*
X155201806Y-88109005D01*
X155204798Y-88107099D01*
X155268656Y-88067712D01*
X155268656Y-88067711D01*
X155269729Y-88067050D01*
X155284824Y-88054753D01*
X155285692Y-88053832D01*
X155285696Y-88053830D01*
X155337184Y-87999254D01*
X155339630Y-87996736D01*
X158435642Y-84900724D01*
X158449260Y-84888954D01*
X158468530Y-84874610D01*
X158500376Y-84836656D01*
X158507662Y-84828704D01*
X158511591Y-84824777D01*
X158530833Y-84800439D01*
X158533090Y-84797670D01*
X158558882Y-84766932D01*
X158581302Y-84740214D01*
X158581303Y-84740211D01*
X158582115Y-84739244D01*
X158592573Y-84722827D01*
X158593106Y-84721682D01*
X158593111Y-84721677D01*
X158624833Y-84653646D01*
X158626362Y-84650488D01*
X158660040Y-84583433D01*
X158660040Y-84583432D01*
X158660612Y-84582294D01*
X158667000Y-84563915D01*
X158667255Y-84562675D01*
X158667257Y-84562673D01*
X158682435Y-84489157D01*
X158683200Y-84485708D01*
X158700500Y-84412721D01*
X158700500Y-84412719D01*
X158700791Y-84411491D01*
X158702770Y-84392120D01*
X158702733Y-84390858D01*
X158702734Y-84390855D01*
X158700552Y-84315868D01*
X158700500Y-84312262D01*
X158700500Y-81699485D01*
X158718491Y-81635157D01*
X158767243Y-81589496D01*
X158832610Y-81575750D01*
X158895624Y-81597910D01*
X158903595Y-81603491D01*
X158903599Y-81603495D01*
X159097170Y-81739035D01*
X159311337Y-81838903D01*
X159539592Y-81900063D01*
X159775000Y-81920659D01*
X160010408Y-81900063D01*
X160238663Y-81838903D01*
X160452830Y-81739035D01*
X160646401Y-81603495D01*
X160813495Y-81436401D01*
X160949035Y-81242830D01*
X161048903Y-81028663D01*
X161110063Y-80800408D01*
X161130659Y-80565000D01*
X161110063Y-80329592D01*
X161048903Y-80101337D01*
X160949035Y-79887171D01*
X160813495Y-79693599D01*
X160646401Y-79526505D01*
X160460839Y-79396573D01*
X160421975Y-79352257D01*
X160407964Y-79295000D01*
X160421975Y-79237743D01*
X160460839Y-79193426D01*
X160646401Y-79063495D01*
X160813495Y-78896401D01*
X160949035Y-78702830D01*
X161048903Y-78488663D01*
X161110063Y-78260408D01*
X161130659Y-78025000D01*
X161110063Y-77789592D01*
X161048903Y-77561337D01*
X160949035Y-77347171D01*
X160813495Y-77153599D01*
X160691569Y-77031672D01*
X160660273Y-76978927D01*
X160658084Y-76917634D01*
X160685537Y-76862789D01*
X160735916Y-76827810D01*
X160867331Y-76778796D01*
X160982546Y-76692546D01*
X161068796Y-76577331D01*
X161119091Y-76442483D01*
X161125500Y-76382873D01*
X161125499Y-74587128D01*
X161119091Y-74527517D01*
X161068796Y-74392669D01*
X160982546Y-74277454D01*
X160867331Y-74191204D01*
X160732483Y-74140909D01*
X160672873Y-74134500D01*
X160672869Y-74134500D01*
X158877130Y-74134500D01*
X158817515Y-74140909D01*
X158682669Y-74191204D01*
X158567454Y-74277454D01*
X158481204Y-74392668D01*
X158430909Y-74527516D01*
X158424500Y-74587130D01*
X158424500Y-76382869D01*
X158430909Y-76442483D01*
X158481204Y-76577331D01*
X158567454Y-76692546D01*
X158682669Y-76778796D01*
X158794907Y-76820658D01*
X158814082Y-76827810D01*
X158864462Y-76862789D01*
X158891915Y-76917634D01*
X158889726Y-76978926D01*
X158858431Y-77031673D01*
X158736503Y-77153601D01*
X158600965Y-77347170D01*
X158501097Y-77561336D01*
X158439936Y-77789592D01*
X158419340Y-78025000D01*
X158439936Y-78260407D01*
X158501096Y-78488660D01*
X158527724Y-78545765D01*
X158539289Y-78594563D01*
X158530580Y-78643951D01*
X158503022Y-78685850D01*
X157464359Y-79724513D01*
X157450726Y-79736295D01*
X157431467Y-79750632D01*
X157399633Y-79788570D01*
X157392341Y-79796530D01*
X157388408Y-79800463D01*
X157369176Y-79824786D01*
X157366901Y-79827579D01*
X157315640Y-79888670D01*
X157270591Y-79922463D01*
X157215241Y-79932847D01*
X157161007Y-79917679D01*
X157119075Y-79880088D01*
X157081342Y-79826200D01*
X156988495Y-79693599D01*
X156821401Y-79526505D01*
X156635839Y-79396573D01*
X156596975Y-79352257D01*
X156582964Y-79295000D01*
X156596975Y-79237743D01*
X156635839Y-79193426D01*
X156821401Y-79063495D01*
X156988495Y-78896401D01*
X157124035Y-78702830D01*
X157223903Y-78488663D01*
X157285063Y-78260408D01*
X157305659Y-78025000D01*
X157285063Y-77789592D01*
X157223903Y-77561337D01*
X157124035Y-77347171D01*
X156988495Y-77153599D01*
X156866569Y-77031672D01*
X156835273Y-76978927D01*
X156833084Y-76917634D01*
X156860537Y-76862789D01*
X156910916Y-76827810D01*
X157042331Y-76778796D01*
X157157546Y-76692546D01*
X157243796Y-76577331D01*
X157294091Y-76442483D01*
X157300500Y-76382873D01*
X157300499Y-74587128D01*
X157294091Y-74527517D01*
X157243796Y-74392669D01*
X157157546Y-74277454D01*
X157042331Y-74191204D01*
X156907483Y-74140909D01*
X156847873Y-74134500D01*
X156847869Y-74134500D01*
X155052130Y-74134500D01*
X154992515Y-74140909D01*
X154857669Y-74191204D01*
X154742454Y-74277454D01*
X154656204Y-74392668D01*
X154605909Y-74527516D01*
X154599500Y-74587130D01*
X154599500Y-76382869D01*
X154605909Y-76442483D01*
X154656204Y-76577331D01*
X154742454Y-76692546D01*
X154857669Y-76778796D01*
X154969907Y-76820658D01*
X154989082Y-76827810D01*
X155039462Y-76862789D01*
X155066915Y-76917634D01*
X155064726Y-76978926D01*
X155033431Y-77031673D01*
X154911503Y-77153601D01*
X154775965Y-77347170D01*
X154676097Y-77561336D01*
X154614936Y-77789592D01*
X154594340Y-78025000D01*
X154614936Y-78260407D01*
X154630717Y-78319301D01*
X154676097Y-78488663D01*
X154775965Y-78702830D01*
X154911505Y-78896401D01*
X155078599Y-79063495D01*
X155264160Y-79193426D01*
X155303024Y-79237743D01*
X155317035Y-79295000D01*
X155303024Y-79352257D01*
X155264158Y-79396575D01*
X155147071Y-79478561D01*
X155078595Y-79526508D01*
X154911505Y-79693598D01*
X154775965Y-79887170D01*
X154676097Y-80101336D01*
X154614936Y-80329592D01*
X154594340Y-80564999D01*
X154614936Y-80800407D01*
X154659709Y-80967501D01*
X154676097Y-81028663D01*
X154775965Y-81242830D01*
X154911505Y-81436401D01*
X155078599Y-81603495D01*
X155272170Y-81739035D01*
X155486337Y-81838903D01*
X155714592Y-81900063D01*
X155950000Y-81920659D01*
X156185408Y-81900063D01*
X156413663Y-81838903D01*
X156627830Y-81739035D01*
X156821401Y-81603495D01*
X156987819Y-81437077D01*
X157037182Y-81406827D01*
X157094898Y-81402285D01*
X157148385Y-81424440D01*
X157185985Y-81468463D01*
X157199500Y-81524758D01*
X157199500Y-83962771D01*
X157190061Y-84010224D01*
X157163181Y-84050452D01*
X156677281Y-84536350D01*
X156616437Y-84569730D01*
X156547187Y-84565190D01*
X156491222Y-84524152D01*
X156466072Y-84459475D01*
X156464999Y-84447203D01*
X156464997Y-84447199D01*
X156464754Y-84444412D01*
X156463202Y-84437342D01*
X156461313Y-84431945D01*
X156461313Y-84431941D01*
X156435733Y-84358839D01*
X156435159Y-84357156D01*
X156409814Y-84280666D01*
X156408819Y-84277663D01*
X156405456Y-84272311D01*
X156405456Y-84272310D01*
X156362352Y-84203711D01*
X156361854Y-84202911D01*
X156317710Y-84131342D01*
X142897869Y-70711501D01*
X142869028Y-70666230D01*
X142862022Y-70613012D01*
X142863239Y-70599110D01*
X142880659Y-70400000D01*
X142860063Y-70164592D01*
X142837287Y-70079593D01*
X142835446Y-70023309D01*
X142858687Y-69972014D01*
X142902219Y-69936288D01*
X142957063Y-69923500D01*
X157997903Y-69923500D01*
X158045356Y-69932939D01*
X158085584Y-69959819D01*
X159701004Y-71575239D01*
X159725043Y-71609118D01*
X159736543Y-71649035D01*
X159738686Y-71668056D01*
X159738686Y-71668058D01*
X159738687Y-71668059D01*
X159794544Y-71827690D01*
X159884523Y-71970890D01*
X160004110Y-72090477D01*
X160147310Y-72180456D01*
X160306941Y-72236313D01*
X160475000Y-72255249D01*
X160643059Y-72236313D01*
X160806399Y-72179158D01*
X160861237Y-72172979D01*
X160913326Y-72191205D01*
X160952347Y-72230226D01*
X160970574Y-72282315D01*
X160988686Y-72443056D01*
X160988686Y-72443058D01*
X160988687Y-72443059D01*
X161044544Y-72602690D01*
X161134523Y-72745890D01*
X161254110Y-72865477D01*
X161397310Y-72955456D01*
X161556941Y-73011313D01*
X161725000Y-73030249D01*
X161893059Y-73011313D01*
X162052690Y-72955456D01*
X162195890Y-72865477D01*
X162315477Y-72745890D01*
X162405456Y-72602690D01*
X162461313Y-72443059D01*
X162480249Y-72275000D01*
X162461313Y-72106941D01*
X162405456Y-71947310D01*
X162315477Y-71804110D01*
X162315475Y-71804108D01*
X162308043Y-71792280D01*
X162310011Y-71791043D01*
X162298439Y-71773724D01*
X162289000Y-71726271D01*
X162289000Y-70720101D01*
X162290061Y-70703915D01*
X162290096Y-70703650D01*
X162293868Y-70675000D01*
X162274483Y-70527767D01*
X162233263Y-70428251D01*
X162217655Y-70390569D01*
X162217654Y-70390568D01*
X162217654Y-70390567D01*
X162149949Y-70302332D01*
X162149948Y-70302331D01*
X162127250Y-70272750D01*
X162104114Y-70254997D01*
X162091919Y-70244302D01*
X159159798Y-67312181D01*
X159129548Y-67262818D01*
X159125006Y-67205102D01*
X159147161Y-67151615D01*
X159191184Y-67114015D01*
X159247479Y-67100500D01*
X160309337Y-67100500D01*
X160375308Y-67119505D01*
X160472310Y-67180456D01*
X160631941Y-67236313D01*
X160800000Y-67255249D01*
X160968059Y-67236313D01*
X161127690Y-67180456D01*
X161270890Y-67090477D01*
X161390477Y-66970890D01*
X161480456Y-66827690D01*
X161536313Y-66668059D01*
X161555249Y-66500000D01*
X161536313Y-66331941D01*
X161480456Y-66172310D01*
X161390477Y-66029110D01*
X161270890Y-65909523D01*
X161127690Y-65819544D01*
X160968059Y-65763687D01*
X160968058Y-65763686D01*
X160968056Y-65763686D01*
X160800000Y-65744750D01*
X160631943Y-65763686D01*
X160472309Y-65819544D01*
X160375309Y-65880494D01*
X160309337Y-65899500D01*
X159674097Y-65899500D01*
X159617802Y-65885985D01*
X159573779Y-65848385D01*
X159551624Y-65794898D01*
X159556166Y-65737182D01*
X159586416Y-65687819D01*
X160787319Y-64486916D01*
X160842906Y-64454822D01*
X160907094Y-64454822D01*
X160962681Y-64486916D01*
X163113181Y-66637416D01*
X163140061Y-66677644D01*
X163149500Y-66725097D01*
X163149500Y-71084337D01*
X163130494Y-71150309D01*
X163069544Y-71247309D01*
X163013686Y-71406943D01*
X162994750Y-71575000D01*
X163013686Y-71743056D01*
X163013686Y-71743058D01*
X163013687Y-71743059D01*
X163069544Y-71902690D01*
X163159523Y-72045890D01*
X163279110Y-72165477D01*
X163422310Y-72255456D01*
X163581941Y-72311313D01*
X163750000Y-72330249D01*
X163918059Y-72311313D01*
X164077690Y-72255456D01*
X164220890Y-72165477D01*
X164340477Y-72045890D01*
X164430456Y-71902690D01*
X164486313Y-71743059D01*
X164505249Y-71575000D01*
X164486313Y-71406941D01*
X164430456Y-71247310D01*
X164369505Y-71150308D01*
X164350500Y-71084337D01*
X164350500Y-66472487D01*
X164351561Y-66456301D01*
X164355682Y-66424999D01*
X164348257Y-66368602D01*
X164335044Y-66268238D01*
X164274536Y-66122159D01*
X164252301Y-66093182D01*
X164241507Y-66079115D01*
X164178282Y-65996717D01*
X164153229Y-65977494D01*
X164141034Y-65966799D01*
X161648995Y-63474760D01*
X161624955Y-63440880D01*
X161613456Y-63400963D01*
X161611313Y-63381941D01*
X161555456Y-63222310D01*
X161465477Y-63079110D01*
X161345890Y-62959523D01*
X161202690Y-62869544D01*
X161043059Y-62813687D01*
X161043058Y-62813686D01*
X161043056Y-62813686D01*
X160875000Y-62794750D01*
X160706943Y-62813686D01*
X160547310Y-62869544D01*
X160404108Y-62959524D01*
X160284524Y-63079108D01*
X160194545Y-63222308D01*
X160138686Y-63381944D01*
X160136543Y-63400963D01*
X160125043Y-63440880D01*
X160101004Y-63474759D01*
X158039584Y-65536181D01*
X157999356Y-65563061D01*
X157951903Y-65572500D01*
X152929546Y-65572500D01*
X152872632Y-65558667D01*
X152828416Y-65520255D01*
X152806764Y-65465834D01*
X152812503Y-65407548D01*
X152861313Y-65268059D01*
X152869619Y-65194334D01*
X152884878Y-65147224D01*
X152917355Y-65109841D01*
X152927250Y-65102250D01*
X153017653Y-64984433D01*
X153074483Y-64847234D01*
X153089000Y-64736968D01*
X153089000Y-64736966D01*
X153093867Y-64700000D01*
X153090060Y-64671089D01*
X153089000Y-64654906D01*
X153089000Y-62373729D01*
X153098439Y-62326276D01*
X153110011Y-62308956D01*
X153108043Y-62307720D01*
X153115474Y-62295892D01*
X153115477Y-62295890D01*
X153205456Y-62152690D01*
X153261313Y-61993059D01*
X153280249Y-61825000D01*
X153261313Y-61656941D01*
X153205456Y-61497310D01*
X153115477Y-61354110D01*
X152995890Y-61234523D01*
X152946965Y-61203781D01*
X152907944Y-61164759D01*
X152889719Y-61112671D01*
X152895898Y-61057833D01*
X152925256Y-61011109D01*
X154085638Y-59850727D01*
X154099256Y-59838957D01*
X154118530Y-59824610D01*
X154150382Y-59786649D01*
X154157668Y-59778697D01*
X154161590Y-59774777D01*
X154180863Y-59750399D01*
X154183030Y-59747739D01*
X154231302Y-59690214D01*
X154231303Y-59690210D01*
X154232119Y-59689239D01*
X154242575Y-59672825D01*
X154243109Y-59671679D01*
X154243111Y-59671677D01*
X154274816Y-59603682D01*
X154276369Y-59600475D01*
X154310040Y-59533433D01*
X154310040Y-59533429D01*
X154310610Y-59532296D01*
X154316999Y-59513917D01*
X154317256Y-59512673D01*
X154332431Y-59439171D01*
X154333186Y-59435767D01*
X154350500Y-59362721D01*
X154350500Y-59362719D01*
X154350790Y-59361495D01*
X154352769Y-59342123D01*
X154352732Y-59340859D01*
X154352733Y-59340856D01*
X154350552Y-59265889D01*
X154350500Y-59262284D01*
X154350500Y-34649110D01*
X154351280Y-34635225D01*
X154355249Y-34600000D01*
X154351280Y-34564775D01*
X154351084Y-34561288D01*
X154350500Y-34556291D01*
X154345617Y-34514522D01*
X154336313Y-34431941D01*
X154336312Y-34431938D01*
X154335782Y-34427233D01*
X154335241Y-34425747D01*
X154335241Y-34425745D01*
X154307073Y-34348355D01*
X154306634Y-34347123D01*
X154280456Y-34272310D01*
X154280455Y-34272308D01*
X154277951Y-34265151D01*
X154277679Y-34264597D01*
X154275237Y-34260885D01*
X154275237Y-34260883D01*
X154232028Y-34195188D01*
X154230634Y-34193019D01*
X154188364Y-34125747D01*
X154179748Y-34115170D01*
X154124272Y-34062831D01*
X154121685Y-34060318D01*
X154070286Y-34008919D01*
X154052707Y-33995313D01*
X154051218Y-33993908D01*
X154039800Y-33987316D01*
X153989410Y-33958223D01*
X153985437Y-33955829D01*
X153927687Y-33919542D01*
X153925267Y-33918695D01*
X153904232Y-33909046D01*
X153899281Y-33906188D01*
X153834404Y-33886764D01*
X153829017Y-33885016D01*
X153768056Y-33863686D01*
X153761872Y-33862989D01*
X153740203Y-33858562D01*
X153731207Y-33855869D01*
X153667217Y-33852142D01*
X153660543Y-33851572D01*
X153600000Y-33844750D01*
X153590179Y-33845857D01*
X153569085Y-33846427D01*
X153556063Y-33845668D01*
X153496526Y-33856166D01*
X153488881Y-33857270D01*
X153431936Y-33863687D01*
X153419146Y-33868162D01*
X153399738Y-33873233D01*
X153383291Y-33876133D01*
X153331119Y-33898638D01*
X153322962Y-33901819D01*
X153272311Y-33919542D01*
X153257741Y-33928697D01*
X153240893Y-33937557D01*
X153222195Y-33945623D01*
X153179535Y-33977382D01*
X153171461Y-33982911D01*
X153129111Y-34009521D01*
X153114360Y-34024272D01*
X153100734Y-34036047D01*
X153081469Y-34050390D01*
X153049624Y-34088340D01*
X153042320Y-34096311D01*
X153009524Y-34129108D01*
X152996480Y-34149866D01*
X152986480Y-34163593D01*
X152968697Y-34184785D01*
X152948100Y-34225798D01*
X152942285Y-34236115D01*
X152919544Y-34272308D01*
X152910240Y-34298894D01*
X152904014Y-34313579D01*
X152889960Y-34341565D01*
X152880215Y-34382680D01*
X152876600Y-34395033D01*
X152863686Y-34431939D01*
X152860125Y-34463545D01*
X152857563Y-34478251D01*
X152849500Y-34512276D01*
X152849500Y-34550890D01*
X152848720Y-34564775D01*
X152844750Y-34600000D01*
X152848720Y-34635225D01*
X152849500Y-34649110D01*
X152849500Y-38527521D01*
X152835985Y-38583816D01*
X152798385Y-38627839D01*
X152744898Y-38649994D01*
X152687182Y-38645452D01*
X152637819Y-38615202D01*
X151730550Y-37707933D01*
X151706511Y-37674054D01*
X151695011Y-37634136D01*
X151686313Y-37556943D01*
X151686313Y-37556941D01*
X151630456Y-37397310D01*
X151540477Y-37254110D01*
X151420890Y-37134523D01*
X151277690Y-37044544D01*
X151118059Y-36988687D01*
X151118058Y-36988686D01*
X151118056Y-36988686D01*
X150950000Y-36969750D01*
X150781943Y-36988686D01*
X150622310Y-37044544D01*
X150479108Y-37134524D01*
X150359524Y-37254108D01*
X150269544Y-37397310D01*
X150213686Y-37556943D01*
X150194750Y-37724999D01*
X150213686Y-37893056D01*
X150213686Y-37893058D01*
X150213687Y-37893059D01*
X150269544Y-38052690D01*
X150359523Y-38195890D01*
X150479110Y-38315477D01*
X150622310Y-38405456D01*
X150781941Y-38461313D01*
X150838860Y-38467726D01*
X150859136Y-38470011D01*
X150899054Y-38481511D01*
X150932933Y-38505550D01*
X151899681Y-39472298D01*
X151926561Y-39512526D01*
X151936000Y-39559979D01*
X151936000Y-55701271D01*
X151926561Y-55748724D01*
X151914988Y-55766043D01*
X151916957Y-55767280D01*
X151909524Y-55779108D01*
X151909523Y-55779110D01*
X151819543Y-55922310D01*
X151819544Y-55922310D01*
X151763686Y-56081943D01*
X151744750Y-56250000D01*
X151763686Y-56418056D01*
X151763686Y-56418058D01*
X151763687Y-56418059D01*
X151819544Y-56577690D01*
X151909523Y-56720890D01*
X151909524Y-56720891D01*
X151916957Y-56732720D01*
X151914988Y-56733956D01*
X151926561Y-56751276D01*
X151936000Y-56798729D01*
X151936000Y-58751271D01*
X151926561Y-58798724D01*
X151914988Y-58816043D01*
X151916957Y-58817280D01*
X151909524Y-58829108D01*
X151909523Y-58829110D01*
X151840451Y-58939037D01*
X151819544Y-58972310D01*
X151763686Y-59131943D01*
X151744750Y-59299999D01*
X151763686Y-59468056D01*
X151819544Y-59627690D01*
X151908318Y-59768972D01*
X151926544Y-59821060D01*
X151920366Y-59875899D01*
X151891005Y-59922625D01*
X150889358Y-60924272D01*
X150875727Y-60936053D01*
X150856467Y-60950392D01*
X150824633Y-60988329D01*
X150817341Y-60996289D01*
X150813408Y-61000222D01*
X150794176Y-61024545D01*
X150791902Y-61027337D01*
X150742894Y-61085744D01*
X150732418Y-61102187D01*
X150700192Y-61171294D01*
X150698622Y-61174536D01*
X150664393Y-61242692D01*
X150657996Y-61261098D01*
X150642573Y-61335788D01*
X150641793Y-61339305D01*
X150624208Y-61413505D01*
X150622229Y-61432878D01*
X150624448Y-61509131D01*
X150624500Y-61512737D01*
X150624500Y-63450890D01*
X150623720Y-63464775D01*
X150619750Y-63500000D01*
X150623720Y-63535225D01*
X150623915Y-63538706D01*
X150629382Y-63585479D01*
X150629440Y-63585990D01*
X150639217Y-63672767D01*
X150667883Y-63751528D01*
X150668402Y-63752982D01*
X150697040Y-63834826D01*
X150697329Y-63835415D01*
X150699761Y-63839114D01*
X150699763Y-63839117D01*
X150742512Y-63904114D01*
X150742971Y-63904811D01*
X150744364Y-63906978D01*
X150786636Y-63974254D01*
X150795255Y-63984832D01*
X150796168Y-63985694D01*
X150796170Y-63985696D01*
X150819296Y-64007514D01*
X150850726Y-64037167D01*
X150853313Y-64039680D01*
X150904714Y-64091081D01*
X150922288Y-64104683D01*
X150923634Y-64105953D01*
X150923782Y-64106092D01*
X150985587Y-64141774D01*
X150989510Y-64144137D01*
X151047310Y-64180456D01*
X151049734Y-64181304D01*
X151070769Y-64190954D01*
X151075719Y-64193812D01*
X151075721Y-64193812D01*
X151075722Y-64193813D01*
X151140599Y-64213237D01*
X151145988Y-64214985D01*
X151206938Y-64236312D01*
X151206941Y-64236313D01*
X151213126Y-64237009D01*
X151234798Y-64241438D01*
X151243790Y-64244130D01*
X151300563Y-64247436D01*
X151307774Y-64247856D01*
X151314450Y-64248425D01*
X151375000Y-64255249D01*
X151384822Y-64254141D01*
X151405914Y-64253572D01*
X151418935Y-64254331D01*
X151478490Y-64243829D01*
X151486090Y-64242731D01*
X151543059Y-64236313D01*
X151555847Y-64231837D01*
X151575261Y-64226765D01*
X151591711Y-64223865D01*
X151643890Y-64201356D01*
X151652003Y-64198190D01*
X151702690Y-64180456D01*
X151717260Y-64171300D01*
X151734110Y-64162440D01*
X151752804Y-64154377D01*
X151756293Y-64151779D01*
X151762951Y-64146823D01*
X151826191Y-64122757D01*
X151892650Y-64135474D01*
X151942538Y-64181187D01*
X151961000Y-64246285D01*
X151961000Y-64274284D01*
X151950654Y-64323871D01*
X151921341Y-64365183D01*
X151877955Y-64391325D01*
X151837826Y-64405367D01*
X151797309Y-64419544D01*
X151654108Y-64509524D01*
X151534524Y-64629108D01*
X151444544Y-64772310D01*
X151388686Y-64931943D01*
X151369750Y-65100000D01*
X151389566Y-65275865D01*
X151381432Y-65335913D01*
X151345815Y-65384937D01*
X151291219Y-65411229D01*
X151230684Y-65408510D01*
X151178665Y-65377430D01*
X141086819Y-55285584D01*
X141059939Y-55245356D01*
X141050500Y-55197903D01*
X141050500Y-53686088D01*
X141069507Y-53620115D01*
X141080455Y-53602691D01*
X141080456Y-53602690D01*
X141136313Y-53443059D01*
X141138456Y-53424032D01*
X141149955Y-53384119D01*
X141173992Y-53350241D01*
X146691043Y-47833190D01*
X146703223Y-47822509D01*
X146728282Y-47803282D01*
X146824536Y-47677841D01*
X146885044Y-47531762D01*
X146900500Y-47414361D01*
X146905682Y-47375000D01*
X146901560Y-47343697D01*
X146900500Y-47327513D01*
X146900500Y-39540663D01*
X146919506Y-39474691D01*
X146921010Y-39472298D01*
X146980456Y-39377690D01*
X147036313Y-39218059D01*
X147055249Y-39050000D01*
X147036313Y-38881941D01*
X146980456Y-38722310D01*
X146919505Y-38625308D01*
X146900500Y-38559337D01*
X146900500Y-36882487D01*
X146901561Y-36866301D01*
X146905682Y-36834999D01*
X146894137Y-36747310D01*
X146885044Y-36678238D01*
X146824536Y-36532159D01*
X146808300Y-36511000D01*
X146792177Y-36489988D01*
X146728282Y-36406717D01*
X146703229Y-36387494D01*
X146691034Y-36376799D01*
X139586818Y-29272583D01*
X139559938Y-29232355D01*
X139550499Y-29184902D01*
X139550499Y-27837130D01*
X139550499Y-27837127D01*
X139544091Y-27777517D01*
X139493796Y-27642669D01*
X139407546Y-27527454D01*
X139292331Y-27441204D01*
X139157483Y-27390909D01*
X139097873Y-27384500D01*
X139097869Y-27384500D01*
X137302130Y-27384500D01*
X137242515Y-27390909D01*
X137107669Y-27441204D01*
X136992454Y-27527454D01*
X136906204Y-27642668D01*
X136855909Y-27777516D01*
X136849500Y-27837130D01*
X136849500Y-29632869D01*
X136855909Y-29692483D01*
X136906204Y-29827331D01*
X136992454Y-29942546D01*
X137107669Y-30028796D01*
X137219907Y-30070658D01*
X137239082Y-30077810D01*
X137289462Y-30112789D01*
X137316915Y-30167634D01*
X137314726Y-30228926D01*
X137283431Y-30281673D01*
X137161503Y-30403601D01*
X137025965Y-30597170D01*
X136926097Y-30811336D01*
X136864936Y-31039592D01*
X136844340Y-31275000D01*
X136864936Y-31510407D01*
X136910235Y-31679466D01*
X136910235Y-31743653D01*
X136878141Y-31799240D01*
X132202702Y-36474681D01*
X132162474Y-36501561D01*
X132115021Y-36511000D01*
X127673729Y-36511000D01*
X127626276Y-36501561D01*
X127608956Y-36489988D01*
X127607720Y-36491957D01*
X127595891Y-36484524D01*
X127595890Y-36484523D01*
X127452690Y-36394544D01*
X127293059Y-36338687D01*
X127293058Y-36338686D01*
X127293056Y-36338686D01*
X127125000Y-36319750D01*
X126956943Y-36338686D01*
X126797310Y-36394544D01*
X126654108Y-36484524D01*
X126534524Y-36604108D01*
X126444544Y-36747310D01*
X126388686Y-36906943D01*
X126369750Y-37074999D01*
X126388686Y-37243056D01*
X126388686Y-37243058D01*
X126388687Y-37243059D01*
X126442661Y-37397310D01*
X126444545Y-37402692D01*
X126459589Y-37426635D01*
X126478595Y-37492606D01*
X126459589Y-37558577D01*
X126419545Y-37622307D01*
X126363686Y-37781943D01*
X126344750Y-37949999D01*
X126363686Y-38118056D01*
X126363686Y-38118058D01*
X126363687Y-38118059D01*
X126419544Y-38277690D01*
X126509523Y-38420890D01*
X126629110Y-38540477D01*
X126772310Y-38630456D01*
X126931941Y-38686313D01*
X127100000Y-38705249D01*
X127268059Y-38686313D01*
X127427690Y-38630456D01*
X127570890Y-38540477D01*
X127570892Y-38540474D01*
X127582720Y-38533043D01*
X127583956Y-38535011D01*
X127601276Y-38523439D01*
X127648729Y-38514000D01*
X134019906Y-38514000D01*
X134036089Y-38515060D01*
X134065000Y-38518867D01*
X134212234Y-38499483D01*
X134349433Y-38442653D01*
X134437668Y-38374949D01*
X134437668Y-38374948D01*
X134467250Y-38352250D01*
X134485003Y-38329112D01*
X134495690Y-38316925D01*
X136082614Y-36730000D01*
X137163038Y-36730000D01*
X137169886Y-36754069D01*
X137260751Y-36936553D01*
X137383607Y-37099241D01*
X137534259Y-37236578D01*
X137707585Y-37343898D01*
X137825000Y-37389384D01*
X137825000Y-36730000D01*
X138575000Y-36730000D01*
X138575000Y-37389384D01*
X138692414Y-37343898D01*
X138865740Y-37236578D01*
X139016392Y-37099241D01*
X139139248Y-36936553D01*
X139230113Y-36754069D01*
X139236962Y-36730000D01*
X138575000Y-36730000D01*
X137825000Y-36730000D01*
X137163038Y-36730000D01*
X136082614Y-36730000D01*
X136956830Y-35855784D01*
X137012787Y-35823593D01*
X137077342Y-35823891D01*
X137132999Y-35856599D01*
X137164672Y-35912851D01*
X137163777Y-35977401D01*
X137163037Y-35979999D01*
X137163038Y-35980000D01*
X139236962Y-35980000D01*
X139236962Y-35979999D01*
X139230113Y-35955930D01*
X139139248Y-35773446D01*
X139016392Y-35610758D01*
X138865740Y-35473421D01*
X138692411Y-35366100D01*
X138611687Y-35334828D01*
X138561572Y-35299004D01*
X138534881Y-35243485D01*
X138538200Y-35181973D01*
X138570710Y-35129649D01*
X138624386Y-35099427D01*
X138663663Y-35088903D01*
X138877830Y-34989035D01*
X139071401Y-34853495D01*
X139238495Y-34686401D01*
X139374035Y-34492830D01*
X139473903Y-34278663D01*
X139535063Y-34050408D01*
X139555659Y-33815000D01*
X139535063Y-33579592D01*
X139473903Y-33351337D01*
X139374035Y-33137171D01*
X139238495Y-32943599D01*
X139071401Y-32776505D01*
X138885839Y-32646573D01*
X138846975Y-32602257D01*
X138832964Y-32545000D01*
X138846975Y-32487743D01*
X138885839Y-32443426D01*
X139071401Y-32313495D01*
X139238495Y-32146401D01*
X139374035Y-31952830D01*
X139473903Y-31738663D01*
X139535063Y-31510408D01*
X139555659Y-31275000D01*
X139553222Y-31247157D01*
X139562608Y-31187898D01*
X139598715Y-31139982D01*
X139653090Y-31114626D01*
X139713005Y-31117766D01*
X139764432Y-31148667D01*
X145663181Y-37047416D01*
X145690061Y-37087644D01*
X145699500Y-37135097D01*
X145699500Y-38559337D01*
X145680494Y-38625308D01*
X145677260Y-38630456D01*
X145619544Y-38722309D01*
X145563686Y-38881943D01*
X145544750Y-39050000D01*
X145563686Y-39218056D01*
X145619544Y-39377690D01*
X145680494Y-39474691D01*
X145699500Y-39540663D01*
X145699500Y-47074903D01*
X145690061Y-47122356D01*
X145663181Y-47162584D01*
X140324759Y-52501004D01*
X140290880Y-52525043D01*
X140250963Y-52536543D01*
X140231944Y-52538686D01*
X140231941Y-52538686D01*
X140231941Y-52538687D01*
X140072310Y-52594544D01*
X140072308Y-52594544D01*
X140072308Y-52594545D01*
X139929108Y-52684524D01*
X139809524Y-52804108D01*
X139719544Y-52947310D01*
X139663686Y-53106943D01*
X139644750Y-53275000D01*
X139663686Y-53443056D01*
X139663686Y-53443058D01*
X139663687Y-53443059D01*
X139719544Y-53602690D01*
X139809523Y-53745890D01*
X139809524Y-53745891D01*
X139813181Y-53749548D01*
X139840061Y-53789776D01*
X139849500Y-53837229D01*
X139849500Y-54530903D01*
X139835985Y-54587198D01*
X139798385Y-54631221D01*
X139744898Y-54653376D01*
X139687182Y-54648834D01*
X139637819Y-54618584D01*
X139447766Y-54428531D01*
X139415672Y-54372943D01*
X139415672Y-54308756D01*
X139450063Y-54180408D01*
X139470659Y-53945000D01*
X139450063Y-53709592D01*
X139388903Y-53481337D01*
X139289035Y-53267171D01*
X139153495Y-53073599D01*
X138986401Y-52906505D01*
X138800839Y-52776573D01*
X138761974Y-52732255D01*
X138747964Y-52674999D01*
X138761975Y-52617742D01*
X138800837Y-52573428D01*
X138986401Y-52443495D01*
X139153495Y-52276401D01*
X139289035Y-52082830D01*
X139388903Y-51868663D01*
X139450063Y-51640408D01*
X139470659Y-51405000D01*
X139450063Y-51169592D01*
X139388903Y-50941337D01*
X139289035Y-50727171D01*
X139153495Y-50533599D01*
X138986401Y-50366505D01*
X138800839Y-50236573D01*
X138761975Y-50192257D01*
X138747964Y-50135000D01*
X138761975Y-50077743D01*
X138800839Y-50033426D01*
X138986401Y-49903495D01*
X139153495Y-49736401D01*
X139289035Y-49542830D01*
X139388903Y-49328663D01*
X139450063Y-49100408D01*
X139470659Y-48865000D01*
X139458596Y-48727128D01*
X139450063Y-48629592D01*
X139432890Y-48565500D01*
X139388903Y-48401337D01*
X139289035Y-48187171D01*
X139153495Y-47993599D01*
X138986401Y-47826505D01*
X138800839Y-47696573D01*
X138761974Y-47652255D01*
X138747964Y-47594999D01*
X138761975Y-47537742D01*
X138800837Y-47493428D01*
X138986401Y-47363495D01*
X139153495Y-47196401D01*
X139289035Y-47002830D01*
X139388903Y-46788663D01*
X139450063Y-46560408D01*
X139470659Y-46325000D01*
X139450063Y-46089592D01*
X139388903Y-45861337D01*
X139289035Y-45647171D01*
X139153495Y-45453599D01*
X138986401Y-45286505D01*
X138800839Y-45156573D01*
X138761976Y-45112257D01*
X138747965Y-45055000D01*
X138761976Y-44997743D01*
X138800839Y-44953426D01*
X138986401Y-44823495D01*
X139153495Y-44656401D01*
X139289035Y-44462830D01*
X139388903Y-44248663D01*
X139450063Y-44020408D01*
X139470659Y-43785000D01*
X139450063Y-43549592D01*
X139388903Y-43321337D01*
X139289035Y-43107171D01*
X139153495Y-42913599D01*
X138986401Y-42746505D01*
X138800839Y-42616573D01*
X138761975Y-42572257D01*
X138747964Y-42515000D01*
X138761975Y-42457743D01*
X138800839Y-42413426D01*
X138986401Y-42283495D01*
X139153495Y-42116401D01*
X139289035Y-41922830D01*
X139388903Y-41708663D01*
X139450063Y-41480408D01*
X139470659Y-41245000D01*
X139450063Y-41009592D01*
X139388903Y-40781337D01*
X139289035Y-40567171D01*
X139153495Y-40373599D01*
X138986401Y-40206505D01*
X138792830Y-40070965D01*
X138578663Y-39971097D01*
X138517501Y-39954709D01*
X138350407Y-39909936D01*
X138114999Y-39889340D01*
X137879592Y-39909936D01*
X137651336Y-39971097D01*
X137437170Y-40070965D01*
X137243601Y-40206503D01*
X137121673Y-40328431D01*
X137068926Y-40359726D01*
X137007634Y-40361915D01*
X136952789Y-40334462D01*
X136917810Y-40284082D01*
X136910658Y-40264907D01*
X136868796Y-40152669D01*
X136782546Y-40037454D01*
X136667331Y-39951204D01*
X136532483Y-39900909D01*
X136472873Y-39894500D01*
X136472869Y-39894500D01*
X134677130Y-39894500D01*
X134617515Y-39900909D01*
X134482669Y-39951204D01*
X134367454Y-40037454D01*
X134281204Y-40152668D01*
X134230909Y-40287516D01*
X134224500Y-40347130D01*
X134224500Y-42142869D01*
X134230909Y-42202484D01*
X134256056Y-42269906D01*
X134281204Y-42337331D01*
X134367454Y-42452546D01*
X134482669Y-42538796D01*
X134572383Y-42572257D01*
X134614082Y-42587810D01*
X134664462Y-42622789D01*
X134691915Y-42677634D01*
X134689726Y-42738926D01*
X134658431Y-42791673D01*
X134536503Y-42913601D01*
X134400965Y-43107170D01*
X134301097Y-43321336D01*
X134239936Y-43549592D01*
X134219340Y-43785000D01*
X134239936Y-44020407D01*
X134266821Y-44120741D01*
X134301097Y-44248663D01*
X134400965Y-44462830D01*
X134536505Y-44656401D01*
X134703599Y-44823495D01*
X134889160Y-44953426D01*
X134928024Y-44997743D01*
X134942035Y-45055000D01*
X134928024Y-45112257D01*
X134889158Y-45156575D01*
X134761604Y-45245890D01*
X134703595Y-45286508D01*
X134536505Y-45453598D01*
X134400965Y-45647170D01*
X134301097Y-45861336D01*
X134239936Y-46089592D01*
X134219340Y-46324999D01*
X134239936Y-46560407D01*
X134284709Y-46727501D01*
X134301097Y-46788663D01*
X134400965Y-47002830D01*
X134536505Y-47196401D01*
X134703599Y-47363495D01*
X134889160Y-47493426D01*
X134928024Y-47537743D01*
X134942035Y-47595000D01*
X134928024Y-47652257D01*
X134889160Y-47696574D01*
X134736767Y-47803281D01*
X134703595Y-47826508D01*
X134536505Y-47993598D01*
X134400965Y-48187170D01*
X134301097Y-48401336D01*
X134239936Y-48629592D01*
X134219340Y-48864999D01*
X134239936Y-49100407D01*
X134284709Y-49267502D01*
X134301097Y-49328663D01*
X134400965Y-49542830D01*
X134536505Y-49736401D01*
X134703599Y-49903495D01*
X134889160Y-50033426D01*
X134928024Y-50077743D01*
X134942035Y-50135000D01*
X134928024Y-50192257D01*
X134889159Y-50236575D01*
X134703595Y-50366508D01*
X134536505Y-50533598D01*
X134400965Y-50727170D01*
X134301097Y-50941336D01*
X134239936Y-51169592D01*
X134219340Y-51405000D01*
X134239936Y-51640407D01*
X134284709Y-51807501D01*
X134301097Y-51868663D01*
X134400965Y-52082830D01*
X134536505Y-52276401D01*
X134703599Y-52443495D01*
X134889160Y-52573426D01*
X134928024Y-52617743D01*
X134942035Y-52675000D01*
X134928024Y-52732257D01*
X134889159Y-52776575D01*
X134703595Y-52906508D01*
X134536505Y-53073598D01*
X134400965Y-53267170D01*
X134301097Y-53481336D01*
X134239936Y-53709592D01*
X134219340Y-53945000D01*
X134239936Y-54180407D01*
X134274327Y-54308756D01*
X134301097Y-54408663D01*
X134400965Y-54622830D01*
X134536505Y-54816401D01*
X134703599Y-54983495D01*
X134889160Y-55113426D01*
X134928024Y-55157743D01*
X134942035Y-55215000D01*
X134928024Y-55272257D01*
X134889159Y-55316575D01*
X134703595Y-55446508D01*
X134536505Y-55613598D01*
X134400965Y-55807170D01*
X134301097Y-56021336D01*
X134239936Y-56249592D01*
X134219340Y-56485000D01*
X134239936Y-56720407D01*
X134284709Y-56887501D01*
X134301097Y-56948663D01*
X134400965Y-57162830D01*
X134536505Y-57356401D01*
X134703599Y-57523495D01*
X134897170Y-57659035D01*
X135111337Y-57758903D01*
X135339592Y-57820063D01*
X135575000Y-57840659D01*
X135810408Y-57820063D01*
X136038663Y-57758903D01*
X136252830Y-57659035D01*
X136446401Y-57523495D01*
X136613495Y-57356401D01*
X136743426Y-57170839D01*
X136787743Y-57131975D01*
X136845000Y-57117964D01*
X136902257Y-57131975D01*
X136946573Y-57170839D01*
X137076505Y-57356401D01*
X137243599Y-57523495D01*
X137437170Y-57659035D01*
X137651337Y-57758903D01*
X137879592Y-57820063D01*
X138115000Y-57840659D01*
X138350408Y-57820063D01*
X138578663Y-57758903D01*
X138792830Y-57659035D01*
X138986401Y-57523495D01*
X139153495Y-57356401D01*
X139289035Y-57162830D01*
X139308729Y-57120595D01*
X139354486Y-57068420D01*
X139421111Y-57049000D01*
X139959191Y-57049000D01*
X140006644Y-57058439D01*
X140046872Y-57085319D01*
X150118972Y-67157419D01*
X150129667Y-67169614D01*
X150147419Y-67192749D01*
X150170549Y-67210497D01*
X150170559Y-67210506D01*
X150265235Y-67283152D01*
X150265236Y-67283152D01*
X150265237Y-67283153D01*
X150402436Y-67339983D01*
X150549670Y-67359367D01*
X150578581Y-67355561D01*
X150594766Y-67354500D01*
X157555521Y-67354500D01*
X157602974Y-67363939D01*
X157643202Y-67390819D01*
X160832690Y-70580307D01*
X160865250Y-70637690D01*
X160863770Y-70703650D01*
X160828668Y-70759515D01*
X160769883Y-70789468D01*
X160704055Y-70785030D01*
X160643057Y-70763686D01*
X160624035Y-70761543D01*
X160584118Y-70750043D01*
X160550239Y-70726004D01*
X158756199Y-68931964D01*
X158745503Y-68919768D01*
X158726281Y-68894716D01*
X158600840Y-68798463D01*
X158454762Y-68737956D01*
X158298000Y-68717317D01*
X158270163Y-68720982D01*
X158266697Y-68721439D01*
X158250513Y-68722500D01*
X140109487Y-68722500D01*
X140093302Y-68721439D01*
X140089376Y-68720922D01*
X140061999Y-68717317D01*
X139865134Y-68743235D01*
X139823144Y-68771960D01*
X139759160Y-68798462D01*
X139679068Y-68859919D01*
X139633718Y-68894718D01*
X139633716Y-68894719D01*
X139633715Y-68894721D01*
X139614490Y-68919774D01*
X139603798Y-68931965D01*
X139522582Y-69013181D01*
X139482354Y-69040061D01*
X139434901Y-69049500D01*
X138087130Y-69049500D01*
X138027515Y-69055909D01*
X137892669Y-69106204D01*
X137777454Y-69192454D01*
X137691204Y-69307668D01*
X137640909Y-69442516D01*
X137634500Y-69502130D01*
X137634500Y-71297869D01*
X137640909Y-71357484D01*
X137659356Y-71406941D01*
X137691204Y-71492331D01*
X137777454Y-71607546D01*
X137892669Y-71693796D01*
X138027517Y-71744091D01*
X138087127Y-71750500D01*
X139882872Y-71750499D01*
X139942483Y-71744091D01*
X140077331Y-71693796D01*
X140192546Y-71607546D01*
X140278796Y-71492331D01*
X140327810Y-71360916D01*
X140362789Y-71310537D01*
X140417634Y-71283084D01*
X140478927Y-71285273D01*
X140531673Y-71316569D01*
X140653599Y-71438495D01*
X140847170Y-71574035D01*
X141061337Y-71673903D01*
X141259396Y-71726972D01*
X141289592Y-71735063D01*
X141524999Y-71755659D01*
X141524999Y-71755658D01*
X141525000Y-71755659D01*
X141738014Y-71737022D01*
X141791230Y-71744028D01*
X141836501Y-71772869D01*
X155134523Y-85070890D01*
X155254110Y-85190477D01*
X155285672Y-85210310D01*
X155296606Y-85218033D01*
X155328323Y-85243111D01*
X155358357Y-85257116D01*
X155371923Y-85264504D01*
X155397310Y-85280456D01*
X155435935Y-85293971D01*
X155447384Y-85298631D01*
X155487325Y-85317256D01*
X155487326Y-85317256D01*
X155487328Y-85317257D01*
X155516209Y-85323220D01*
X155532083Y-85327615D01*
X155538431Y-85329836D01*
X155556941Y-85336313D01*
X155589007Y-85339925D01*
X155652434Y-85366197D01*
X155692164Y-85422189D01*
X155696014Y-85490737D01*
X155662804Y-85550826D01*
X154525451Y-86688181D01*
X154485223Y-86715061D01*
X154437770Y-86724500D01*
X142216006Y-86724500D01*
X142158065Y-86710130D01*
X142113553Y-86670352D01*
X142092786Y-86614384D01*
X142086313Y-86556943D01*
X142086313Y-86556941D01*
X142030456Y-86397310D01*
X141940477Y-86254110D01*
X141820890Y-86134523D01*
X141746027Y-86087483D01*
X141703473Y-86042472D01*
X141688001Y-85982491D01*
X141688001Y-78366789D01*
X141689062Y-78350603D01*
X141693183Y-78319301D01*
X141683685Y-78247159D01*
X141672545Y-78162540D01*
X141612037Y-78016461D01*
X141572516Y-77964956D01*
X141539955Y-77922521D01*
X141539953Y-77922519D01*
X141539951Y-77922517D01*
X141515783Y-77891020D01*
X141490730Y-77871796D01*
X141478536Y-77861102D01*
X130225675Y-66608241D01*
X130196314Y-66561513D01*
X130190136Y-66506677D01*
X130195415Y-66459834D01*
X130191639Y-66426318D01*
X130188886Y-66401884D01*
X130200386Y-66334199D01*
X130246134Y-66283006D01*
X130312106Y-66264000D01*
X134800178Y-66264000D01*
X134857092Y-66277833D01*
X134901308Y-66316245D01*
X134922960Y-66370666D01*
X134917219Y-66428955D01*
X134863686Y-66581940D01*
X134844750Y-66749999D01*
X134863686Y-66918056D01*
X134863686Y-66918058D01*
X134863687Y-66918059D01*
X134919544Y-67077690D01*
X135009523Y-67220890D01*
X135129110Y-67340477D01*
X135272310Y-67430456D01*
X135431941Y-67486313D01*
X135600000Y-67505249D01*
X135768059Y-67486313D01*
X135927690Y-67430456D01*
X136070890Y-67340477D01*
X136190477Y-67220890D01*
X136280456Y-67077690D01*
X136292029Y-67044617D01*
X136330895Y-66933545D01*
X136357038Y-66890159D01*
X136398349Y-66860846D01*
X136447936Y-66850500D01*
X139084337Y-66850500D01*
X139150308Y-66869505D01*
X139247310Y-66930456D01*
X139406941Y-66986313D01*
X139575000Y-67005249D01*
X139743059Y-66986313D01*
X139902690Y-66930456D01*
X140045890Y-66840477D01*
X140165477Y-66720890D01*
X140255456Y-66577690D01*
X140311313Y-66418059D01*
X140316265Y-66374115D01*
X140337032Y-66318148D01*
X140381544Y-66278370D01*
X140439485Y-66264000D01*
X143754906Y-66264000D01*
X143771089Y-66265060D01*
X143800000Y-66268867D01*
X143947234Y-66249483D01*
X144084433Y-66192653D01*
X144172668Y-66124949D01*
X144172668Y-66124948D01*
X144172768Y-66124871D01*
X144173135Y-66124590D01*
X144195605Y-66107349D01*
X144195606Y-66107347D01*
X144202250Y-66102250D01*
X144220004Y-66079110D01*
X144230690Y-66066925D01*
X144492068Y-65805547D01*
X144525945Y-65781511D01*
X144565863Y-65770011D01*
X144574012Y-65769092D01*
X144643059Y-65761313D01*
X144802690Y-65705456D01*
X144945890Y-65615477D01*
X145065477Y-65495890D01*
X145155456Y-65352690D01*
X145211313Y-65193059D01*
X145230249Y-65025000D01*
X145211313Y-64856941D01*
X145155456Y-64697310D01*
X145065477Y-64554110D01*
X144945890Y-64434523D01*
X144802690Y-64344544D01*
X144643059Y-64288687D01*
X144643058Y-64288686D01*
X144643056Y-64288686D01*
X144475000Y-64269750D01*
X144306943Y-64288686D01*
X144147307Y-64344545D01*
X144080757Y-64386361D01*
X144014785Y-64405367D01*
X143948814Y-64386361D01*
X143945891Y-64384524D01*
X143945890Y-64384523D01*
X143802690Y-64294544D01*
X143643059Y-64238687D01*
X143643058Y-64238686D01*
X143643056Y-64238686D01*
X143475000Y-64219750D01*
X143306943Y-64238686D01*
X143147310Y-64294544D01*
X143004108Y-64384524D01*
X142884524Y-64504108D01*
X142884522Y-64504110D01*
X142884523Y-64504110D01*
X142794544Y-64647310D01*
X142763172Y-64736968D01*
X142741482Y-64798954D01*
X142715338Y-64842341D01*
X142674027Y-64871654D01*
X142624440Y-64882000D01*
X107924093Y-64882000D01*
X107907907Y-64880939D01*
X107879000Y-64877133D01*
X107878999Y-64877133D01*
X107850093Y-64880939D01*
X107850087Y-64880939D01*
X107731766Y-64896517D01*
X107594566Y-64953347D01*
X107476748Y-65043750D01*
X107458993Y-65066889D01*
X107448300Y-65079082D01*
X103914181Y-68613201D01*
X103864818Y-68643451D01*
X103807102Y-68647993D01*
X103753615Y-68625838D01*
X103716015Y-68581815D01*
X103702500Y-68525520D01*
X103702500Y-53260545D01*
X103711939Y-53213092D01*
X103738819Y-53172864D01*
X106012781Y-50898902D01*
X108378157Y-48533525D01*
X108436028Y-48500844D01*
X108502465Y-48502741D01*
X108558379Y-48538674D01*
X108587705Y-48598318D01*
X108582019Y-48664539D01*
X108580909Y-48667514D01*
X108574500Y-48727130D01*
X108574500Y-50522869D01*
X108580909Y-50582484D01*
X108606056Y-50649906D01*
X108631204Y-50717331D01*
X108717454Y-50832546D01*
X108832669Y-50918796D01*
X108967517Y-50969091D01*
X109027127Y-50975500D01*
X110822872Y-50975499D01*
X110882483Y-50969091D01*
X111017331Y-50918796D01*
X111132546Y-50832546D01*
X111218796Y-50717331D01*
X111267810Y-50585916D01*
X111302789Y-50535537D01*
X111357634Y-50508084D01*
X111418927Y-50510273D01*
X111471673Y-50541568D01*
X111593599Y-50663495D01*
X111787170Y-50799035D01*
X112001337Y-50898903D01*
X112229592Y-50960063D01*
X112465000Y-50980659D01*
X112700408Y-50960063D01*
X112928663Y-50898903D01*
X113142830Y-50799035D01*
X113336401Y-50663495D01*
X113503495Y-50496401D01*
X113633426Y-50310839D01*
X113677743Y-50271975D01*
X113735000Y-50257964D01*
X113792257Y-50271975D01*
X113836573Y-50310839D01*
X113966505Y-50496401D01*
X114133599Y-50663495D01*
X114327170Y-50799035D01*
X114541337Y-50898903D01*
X114769592Y-50960063D01*
X115005000Y-50980659D01*
X115240408Y-50960063D01*
X115468663Y-50898903D01*
X115682830Y-50799035D01*
X115876401Y-50663495D01*
X116043495Y-50496401D01*
X116173426Y-50310839D01*
X116217743Y-50271975D01*
X116275000Y-50257964D01*
X116332257Y-50271975D01*
X116376573Y-50310839D01*
X116506505Y-50496401D01*
X116673599Y-50663495D01*
X116867170Y-50799035D01*
X117081337Y-50898903D01*
X117309592Y-50960063D01*
X117545000Y-50980659D01*
X117780408Y-50960063D01*
X118008663Y-50898903D01*
X118222830Y-50799035D01*
X118416401Y-50663495D01*
X118583495Y-50496401D01*
X118713426Y-50310839D01*
X118757743Y-50271975D01*
X118815000Y-50257964D01*
X118872257Y-50271975D01*
X118916573Y-50310839D01*
X119046505Y-50496401D01*
X119213599Y-50663495D01*
X119407170Y-50799035D01*
X119621337Y-50898903D01*
X119849592Y-50960063D01*
X120085000Y-50980659D01*
X120320408Y-50960063D01*
X120548663Y-50898903D01*
X120762830Y-50799035D01*
X120956401Y-50663495D01*
X121123495Y-50496401D01*
X121259035Y-50302830D01*
X121358903Y-50088663D01*
X121420063Y-49860408D01*
X121440659Y-49625000D01*
X121420063Y-49389592D01*
X121358903Y-49161337D01*
X121259035Y-48947171D01*
X121123495Y-48753599D01*
X120956401Y-48586505D01*
X120762830Y-48450965D01*
X120548663Y-48351097D01*
X120487502Y-48334709D01*
X120320407Y-48289936D01*
X120085000Y-48269340D01*
X119849592Y-48289936D01*
X119621336Y-48351097D01*
X119407170Y-48450965D01*
X119213598Y-48586505D01*
X119046505Y-48753598D01*
X118916575Y-48939159D01*
X118872257Y-48978025D01*
X118815000Y-48992036D01*
X118757743Y-48978025D01*
X118713425Y-48939159D01*
X118661498Y-48864999D01*
X118583495Y-48753599D01*
X118416401Y-48586505D01*
X118222830Y-48450965D01*
X118008663Y-48351097D01*
X117947502Y-48334709D01*
X117780407Y-48289936D01*
X117545000Y-48269340D01*
X117309592Y-48289936D01*
X117081336Y-48351097D01*
X116867170Y-48450965D01*
X116673598Y-48586505D01*
X116506505Y-48753598D01*
X116376575Y-48939159D01*
X116332257Y-48978025D01*
X116275000Y-48992036D01*
X116217743Y-48978025D01*
X116173425Y-48939159D01*
X116121498Y-48864999D01*
X116043495Y-48753599D01*
X115876401Y-48586505D01*
X115682830Y-48450965D01*
X115468663Y-48351097D01*
X115407502Y-48334709D01*
X115240407Y-48289936D01*
X115005000Y-48269340D01*
X114769592Y-48289936D01*
X114541336Y-48351097D01*
X114327170Y-48450965D01*
X114133598Y-48586505D01*
X113966505Y-48753598D01*
X113836575Y-48939159D01*
X113792257Y-48978025D01*
X113735000Y-48992036D01*
X113677743Y-48978025D01*
X113633425Y-48939159D01*
X113581498Y-48864999D01*
X113503495Y-48753599D01*
X113336401Y-48586505D01*
X113142830Y-48450965D01*
X112928663Y-48351097D01*
X112867502Y-48334709D01*
X112700407Y-48289936D01*
X112465000Y-48269340D01*
X112229592Y-48289936D01*
X112001336Y-48351097D01*
X111787170Y-48450965D01*
X111593601Y-48586503D01*
X111471673Y-48708431D01*
X111418926Y-48739726D01*
X111357634Y-48741915D01*
X111302789Y-48714462D01*
X111267810Y-48664082D01*
X111243281Y-48598318D01*
X111218796Y-48532669D01*
X111132546Y-48417454D01*
X111017331Y-48331204D01*
X110882483Y-48280909D01*
X110822873Y-48274500D01*
X110822869Y-48274500D01*
X109027130Y-48274500D01*
X108967513Y-48280909D01*
X108964536Y-48282020D01*
X108898316Y-48287705D01*
X108838673Y-48258378D01*
X108802741Y-48202464D01*
X108800844Y-48136028D01*
X108833525Y-48078157D01*
X110481139Y-46430543D01*
X110521368Y-46403663D01*
X110568821Y-46394224D01*
X114908789Y-46394224D01*
X114924973Y-46395284D01*
X114956276Y-46399406D01*
X115113038Y-46378768D01*
X115259117Y-46318260D01*
X115294850Y-46290841D01*
X115384558Y-46222006D01*
X115403785Y-46196947D01*
X115414466Y-46184767D01*
X116050241Y-45548992D01*
X116084119Y-45524955D01*
X116124032Y-45513456D01*
X116143059Y-45511313D01*
X116302690Y-45455456D01*
X116445890Y-45365477D01*
X116565477Y-45245890D01*
X116655456Y-45102690D01*
X116711313Y-44943059D01*
X116730249Y-44775000D01*
X116711313Y-44606941D01*
X116655456Y-44447310D01*
X116565477Y-44304110D01*
X116445890Y-44184523D01*
X116302690Y-44094544D01*
X116143059Y-44038687D01*
X116143058Y-44038686D01*
X116143056Y-44038686D01*
X115975000Y-44019750D01*
X115806943Y-44038686D01*
X115647307Y-44094545D01*
X115635863Y-44101736D01*
X115569892Y-44120741D01*
X115503921Y-44101735D01*
X115492478Y-44094545D01*
X115452690Y-44069544D01*
X115293059Y-44013687D01*
X115293058Y-44013686D01*
X115293056Y-44013686D01*
X115125000Y-43994750D01*
X114956943Y-44013686D01*
X114797309Y-44069544D01*
X114700309Y-44130494D01*
X114634337Y-44149500D01*
X110897494Y-44149500D01*
X110881308Y-44148439D01*
X110850000Y-44144317D01*
X110849999Y-44144317D01*
X110653130Y-44170236D01*
X110611144Y-44198960D01*
X110547160Y-44225463D01*
X110547158Y-44225464D01*
X110547159Y-44225464D01*
X110421718Y-44321718D01*
X110421716Y-44321719D01*
X110421715Y-44321721D01*
X110402490Y-44346774D01*
X110391798Y-44358965D01*
X107037180Y-47713584D01*
X106987817Y-47743834D01*
X106930101Y-47748376D01*
X106876614Y-47726221D01*
X106839014Y-47682198D01*
X106825499Y-47625903D01*
X106825499Y-46317130D01*
X106822673Y-46290841D01*
X106819091Y-46257517D01*
X106768796Y-46122669D01*
X106682546Y-46007454D01*
X106567331Y-45921204D01*
X106505898Y-45898291D01*
X106435916Y-45872189D01*
X106385537Y-45837209D01*
X106358084Y-45782365D01*
X106360273Y-45721072D01*
X106391566Y-45668329D01*
X106513495Y-45546401D01*
X106649035Y-45352830D01*
X106748903Y-45138663D01*
X106810063Y-44910408D01*
X106830659Y-44675000D01*
X106810063Y-44439592D01*
X106748903Y-44211337D01*
X106649035Y-43997171D01*
X106513495Y-43803599D01*
X106346401Y-43636505D01*
X106152830Y-43500965D01*
X105938663Y-43401097D01*
X105877501Y-43384709D01*
X105710407Y-43339936D01*
X105474999Y-43319340D01*
X105239592Y-43339936D01*
X105011336Y-43401097D01*
X104797170Y-43500965D01*
X104603598Y-43636505D01*
X104436505Y-43803598D01*
X104300965Y-43997170D01*
X104201097Y-44211336D01*
X104139936Y-44439592D01*
X104119340Y-44675000D01*
X104139936Y-44910407D01*
X104178680Y-45055000D01*
X104201097Y-45138663D01*
X104300965Y-45352830D01*
X104436505Y-45546401D01*
X104436508Y-45546404D01*
X104558430Y-45668326D01*
X104589726Y-45721072D01*
X104591915Y-45782365D01*
X104564462Y-45837209D01*
X104514083Y-45872189D01*
X104382669Y-45921204D01*
X104267454Y-46007454D01*
X104181204Y-46122668D01*
X104130909Y-46257516D01*
X104124500Y-46317130D01*
X104124500Y-48112869D01*
X104126990Y-48136028D01*
X104130909Y-48172483D01*
X104181204Y-48307331D01*
X104267454Y-48422546D01*
X104382669Y-48508796D01*
X104517517Y-48559091D01*
X104577127Y-48565500D01*
X105885902Y-48565499D01*
X105942197Y-48579014D01*
X105986220Y-48616614D01*
X106008375Y-48670101D01*
X106003833Y-48727817D01*
X105973583Y-48777180D01*
X102383965Y-52366798D01*
X102371773Y-52377491D01*
X102346718Y-52396717D01*
X102319177Y-52432610D01*
X102310825Y-52443495D01*
X102273249Y-52492464D01*
X102250462Y-52522161D01*
X102189956Y-52668237D01*
X102169317Y-52824999D01*
X102173439Y-52856301D01*
X102174500Y-52872487D01*
X102174500Y-72949903D01*
X102165061Y-72997356D01*
X102138181Y-73037584D01*
X97286681Y-77889084D01*
X97237318Y-77919334D01*
X97179602Y-77923876D01*
X97126115Y-77901721D01*
X97088515Y-77857698D01*
X97075000Y-77801403D01*
X97075000Y-71825000D01*
X99125000Y-71825000D01*
X99150000Y-71800000D01*
X99150000Y-61900000D01*
X97075000Y-61900000D01*
X97075000Y-59026718D01*
X97084439Y-58979265D01*
X97111319Y-58939037D01*
X97299085Y-58751271D01*
X98041924Y-58008431D01*
X98054114Y-57997742D01*
X98077250Y-57979990D01*
X98167653Y-57862173D01*
X98224483Y-57724974D01*
X98239000Y-57614708D01*
X98243867Y-57577740D01*
X98240061Y-57548829D01*
X98239000Y-57532644D01*
X98239000Y-39323729D01*
X98248439Y-39276276D01*
X98260011Y-39258956D01*
X98258043Y-39257720D01*
X98265474Y-39245892D01*
X98265477Y-39245890D01*
X98355456Y-39102690D01*
X98411313Y-38943059D01*
X98430249Y-38775000D01*
X98411313Y-38606941D01*
X98355456Y-38447310D01*
X98265477Y-38304110D01*
X98145890Y-38184523D01*
X98002690Y-38094544D01*
X97843059Y-38038687D01*
X97843058Y-38038686D01*
X97843056Y-38038686D01*
X97675000Y-38019750D01*
X97506941Y-38038686D01*
X97432148Y-38064857D01*
X97370423Y-38070063D01*
X97313881Y-38044761D01*
X97276633Y-37995267D01*
X97267975Y-37933930D01*
X97280249Y-37824999D01*
X97273937Y-37768980D01*
X97261313Y-37656941D01*
X97205456Y-37497310D01*
X97115477Y-37354110D01*
X97111319Y-37349952D01*
X97084439Y-37309724D01*
X97075000Y-37262271D01*
X97075000Y-35658635D01*
X97094006Y-35592663D01*
X97145198Y-35546915D01*
X97212884Y-35535415D01*
X97276313Y-35561688D01*
X97316040Y-35617678D01*
X97319544Y-35627690D01*
X97409523Y-35770890D01*
X97529110Y-35890477D01*
X97672310Y-35980456D01*
X97831941Y-36036313D01*
X97943980Y-36048937D01*
X97999999Y-36055249D01*
X97999999Y-36055248D01*
X98000000Y-36055249D01*
X98168059Y-36036313D01*
X98327690Y-35980456D01*
X98470890Y-35890477D01*
X98590477Y-35770890D01*
X98680456Y-35627690D01*
X98736313Y-35468059D01*
X98738456Y-35449032D01*
X98749955Y-35409119D01*
X98773992Y-35375241D01*
X99312415Y-34836819D01*
X99352644Y-34809939D01*
X99400097Y-34800500D01*
X103009337Y-34800500D01*
X103075308Y-34819505D01*
X103172310Y-34880456D01*
X103331941Y-34936313D01*
X103500000Y-34955249D01*
X103668059Y-34936313D01*
X103827690Y-34880456D01*
X103970890Y-34790477D01*
X104090477Y-34670890D01*
X104180456Y-34527690D01*
X104190145Y-34499999D01*
X107844750Y-34499999D01*
X107863686Y-34668056D01*
X107863686Y-34668058D01*
X107863687Y-34668059D01*
X107919544Y-34827690D01*
X108009523Y-34970890D01*
X108129110Y-35090477D01*
X108272310Y-35180456D01*
X108431941Y-35236313D01*
X108600000Y-35255249D01*
X108768059Y-35236313D01*
X108927690Y-35180456D01*
X109024691Y-35119505D01*
X109090663Y-35100500D01*
X125452513Y-35100500D01*
X125468697Y-35101560D01*
X125500000Y-35105682D01*
X125656762Y-35085044D01*
X125802841Y-35024536D01*
X125838519Y-34997159D01*
X125928282Y-34928282D01*
X125947509Y-34903223D01*
X125958190Y-34891043D01*
X126075241Y-34773992D01*
X126109119Y-34749955D01*
X126149032Y-34738456D01*
X126168059Y-34736313D01*
X126327690Y-34680456D01*
X126470890Y-34590477D01*
X126590477Y-34470890D01*
X126680456Y-34327690D01*
X126736313Y-34168059D01*
X126755249Y-34000000D01*
X126736313Y-33831941D01*
X126680456Y-33672310D01*
X126590477Y-33529110D01*
X126470890Y-33409523D01*
X126327690Y-33319544D01*
X126168059Y-33263687D01*
X126168058Y-33263686D01*
X126168056Y-33263686D01*
X126000000Y-33244750D01*
X125831943Y-33263686D01*
X125672310Y-33319544D01*
X125529108Y-33409524D01*
X125409524Y-33529108D01*
X125319542Y-33672312D01*
X125269105Y-33816455D01*
X125242962Y-33859841D01*
X125201651Y-33889154D01*
X125152064Y-33899500D01*
X109090663Y-33899500D01*
X109024691Y-33880494D01*
X108979260Y-33851948D01*
X108927690Y-33819544D01*
X108768059Y-33763687D01*
X108768058Y-33763686D01*
X108768056Y-33763686D01*
X108600000Y-33744750D01*
X108431943Y-33763686D01*
X108272310Y-33819544D01*
X108129108Y-33909524D01*
X108009524Y-34029108D01*
X107919544Y-34172310D01*
X107863686Y-34331943D01*
X107844750Y-34499999D01*
X104190145Y-34499999D01*
X104236313Y-34368059D01*
X104255249Y-34200000D01*
X104254462Y-34193019D01*
X104242668Y-34088340D01*
X104236313Y-34031941D01*
X104180456Y-33872310D01*
X104090477Y-33729110D01*
X103970890Y-33609523D01*
X103827690Y-33519544D01*
X103668059Y-33463687D01*
X103668058Y-33463686D01*
X103668056Y-33463686D01*
X103500000Y-33444750D01*
X103331943Y-33463686D01*
X103172309Y-33519544D01*
X103090281Y-33571086D01*
X103076745Y-33579592D01*
X103075309Y-33580494D01*
X103009337Y-33599500D01*
X99147487Y-33599500D01*
X99131302Y-33598439D01*
X99127376Y-33597922D01*
X99099999Y-33594317D01*
X99075000Y-33597608D01*
X99075000Y-25025500D01*
X103776000Y-25025500D01*
X103838000Y-25042113D01*
G37*
%TD.AperFunction*%
%TA.AperFunction,Conductor*%
G36*
X97529108Y-34709524D02*
G01*
X97409524Y-34829108D01*
X97320435Y-34970891D01*
X97319544Y-34972310D01*
X97316040Y-34982321D01*
X97276313Y-35038312D01*
X97212884Y-35064585D01*
X97145198Y-35053085D01*
X97094006Y-35007337D01*
X97075000Y-34941365D01*
X97075000Y-34675000D01*
X97584052Y-34675000D01*
X97529108Y-34709524D01*
G37*
%TD.AperFunction*%
%TD*%
M02*
