%TF.GenerationSoftware,KiCad,Pcbnew,7.0.1*%
%TF.CreationDate,2024-05-02T17:31:47-06:00*%
%TF.ProjectId,Neural_Interface,4e657572-616c-45f4-996e-746572666163,1*%
%TF.SameCoordinates,Original*%
%TF.FileFunction,Soldermask,Bot*%
%TF.FilePolarity,Negative*%
%FSLAX46Y46*%
G04 Gerber Fmt 4.6, Leading zero omitted, Abs format (unit mm)*
G04 Created by KiCad (PCBNEW 7.0.1) date 2024-05-02 17:31:47*
%MOMM*%
%LPD*%
G01*
G04 APERTURE LIST*
%ADD10R,1.700000X1.700000*%
%ADD11O,1.700000X1.700000*%
%ADD12C,0.600000*%
%ADD13O,1.000000X1.800000*%
G04 APERTURE END LIST*
D10*
%TO.C,J5*%
X155950000Y-75485000D03*
D11*
X155950000Y-78025000D03*
X155950000Y-80565000D03*
%TD*%
D10*
%TO.C,J10*%
X159775000Y-75485000D03*
D11*
X159775000Y-78025000D03*
X159775000Y-80565000D03*
%TD*%
D10*
%TO.C,J11*%
X110055000Y-84400000D03*
D11*
X107515000Y-84400000D03*
%TD*%
D10*
%TO.C,J12*%
X110080000Y-88350000D03*
D11*
X107540000Y-88350000D03*
%TD*%
D10*
%TO.C,J1*%
X135575000Y-41245000D03*
D11*
X138115000Y-41245000D03*
X135575000Y-43785000D03*
X138115000Y-43785000D03*
X135575000Y-46325000D03*
X138115000Y-46325000D03*
X135575000Y-48865000D03*
X138115000Y-48865000D03*
X135575000Y-51405000D03*
X138115000Y-51405000D03*
X135575000Y-53945000D03*
X138115000Y-53945000D03*
X135575000Y-56485000D03*
X138115000Y-56485000D03*
%TD*%
D10*
%TO.C,J6*%
X138985000Y-70400000D03*
D11*
X141525000Y-70400000D03*
%TD*%
D10*
%TO.C,J3*%
X109925000Y-49625000D03*
D11*
X112465000Y-49625000D03*
X115005000Y-49625000D03*
X117545000Y-49625000D03*
X120085000Y-49625000D03*
%TD*%
D10*
%TO.C,J2*%
X86265000Y-57356250D03*
D11*
X83725000Y-57356250D03*
X86265000Y-59896250D03*
X83725000Y-59896250D03*
X86265000Y-62436250D03*
X83725000Y-62436250D03*
X86265000Y-64976250D03*
X83725000Y-64976250D03*
X86265000Y-67516250D03*
X83725000Y-67516250D03*
X86265000Y-70056250D03*
X83725000Y-70056250D03*
%TD*%
D10*
%TO.C,J22*%
X105475000Y-47215000D03*
D11*
X105475000Y-44675000D03*
%TD*%
D10*
%TO.C,J19*%
X82250000Y-44231250D03*
D11*
X84790000Y-44231250D03*
X87330000Y-44231250D03*
%TD*%
D10*
%TO.C,J21*%
X82250000Y-52181250D03*
D11*
X84790000Y-52181250D03*
X87330000Y-52181250D03*
%TD*%
D10*
%TO.C,J14*%
X65625000Y-85950000D03*
D11*
X68165000Y-85950000D03*
%TD*%
D10*
%TO.C,J4*%
X138200000Y-28735000D03*
D11*
X138200000Y-31275000D03*
X138200000Y-33815000D03*
X138200000Y-36355000D03*
%TD*%
D10*
%TO.C,J20*%
X82250000Y-49525000D03*
D11*
X84790000Y-49525000D03*
X87330000Y-49525000D03*
%TD*%
D10*
%TO.C,J15*%
X65600000Y-81875000D03*
D11*
X68140000Y-81875000D03*
%TD*%
D10*
%TO.C,J13*%
X117785000Y-74625000D03*
D11*
X120325000Y-74625000D03*
%TD*%
D10*
%TO.C,J18*%
X82250000Y-46881250D03*
D11*
X84790000Y-46881250D03*
X87330000Y-46881250D03*
%TD*%
D12*
%TO.C,U3*%
X137735000Y-89585000D03*
X143515000Y-89585000D03*
D13*
X136305000Y-89085000D03*
X136305000Y-93265000D03*
X144945000Y-89085000D03*
X144945000Y-93265000D03*
%TD*%
D10*
%TO.C,J16*%
X21750000Y-56171112D03*
D11*
X21750000Y-58711112D03*
X21750000Y-61251112D03*
X21750000Y-63791112D03*
X21750000Y-66331112D03*
X21750000Y-68871112D03*
X21750000Y-71411112D03*
X21750000Y-73951112D03*
X21750000Y-76491112D03*
X21750000Y-79031112D03*
%TD*%
M02*
