%TF.GenerationSoftware,KiCad,Pcbnew,7.0.1*%
%TF.CreationDate,2024-04-01T21:03:33-06:00*%
%TF.ProjectId,Neural_Interface,4e657572-616c-45f4-996e-746572666163,1*%
%TF.SameCoordinates,Original*%
%TF.FileFunction,Soldermask,Top*%
%TF.FilePolarity,Negative*%
%FSLAX46Y46*%
G04 Gerber Fmt 4.6, Leading zero omitted, Abs format (unit mm)*
G04 Created by KiCad (PCBNEW 7.0.1) date 2024-04-01 21:03:33*
%MOMM*%
%LPD*%
G01*
G04 APERTURE LIST*
G04 Aperture macros list*
%AMRoundRect*
0 Rectangle with rounded corners*
0 $1 Rounding radius*
0 $2 $3 $4 $5 $6 $7 $8 $9 X,Y pos of 4 corners*
0 Add a 4 corners polygon primitive as box body*
4,1,4,$2,$3,$4,$5,$6,$7,$8,$9,$2,$3,0*
0 Add four circle primitives for the rounded corners*
1,1,$1+$1,$2,$3*
1,1,$1+$1,$4,$5*
1,1,$1+$1,$6,$7*
1,1,$1+$1,$8,$9*
0 Add four rect primitives between the rounded corners*
20,1,$1+$1,$2,$3,$4,$5,0*
20,1,$1+$1,$4,$5,$6,$7,0*
20,1,$1+$1,$6,$7,$8,$9,0*
20,1,$1+$1,$8,$9,$2,$3,0*%
G04 Aperture macros list end*
%ADD10R,0.800000X0.400000*%
%ADD11R,0.400000X0.800000*%
%ADD12R,1.200000X1.200000*%
%ADD13R,0.800000X0.800000*%
%ADD14R,3.505200X0.990600*%
%ADD15R,3.403600X1.498600*%
%ADD16RoundRect,0.135000X-0.185000X0.135000X-0.185000X-0.135000X0.185000X-0.135000X0.185000X0.135000X0*%
%ADD17R,1.700000X1.700000*%
%ADD18O,1.700000X1.700000*%
%ADD19RoundRect,0.140000X0.170000X-0.140000X0.170000X0.140000X-0.170000X0.140000X-0.170000X-0.140000X0*%
%ADD20RoundRect,0.140000X0.140000X0.170000X-0.140000X0.170000X-0.140000X-0.170000X0.140000X-0.170000X0*%
%ADD21RoundRect,0.135000X-0.135000X-0.185000X0.135000X-0.185000X0.135000X0.185000X-0.135000X0.185000X0*%
%ADD22RoundRect,0.250000X-0.250000X-0.475000X0.250000X-0.475000X0.250000X0.475000X-0.250000X0.475000X0*%
%ADD23R,1.000000X1.000000*%
%ADD24RoundRect,0.135000X0.185000X-0.135000X0.185000X0.135000X-0.185000X0.135000X-0.185000X-0.135000X0*%
%ADD25RoundRect,0.250000X0.250000X0.475000X-0.250000X0.475000X-0.250000X-0.475000X0.250000X-0.475000X0*%
%ADD26R,1.400000X0.450000*%
%ADD27RoundRect,0.140000X-0.140000X-0.170000X0.140000X-0.170000X0.140000X0.170000X-0.140000X0.170000X0*%
%ADD28RoundRect,0.225000X0.250000X-0.225000X0.250000X0.225000X-0.250000X0.225000X-0.250000X-0.225000X0*%
%ADD29R,0.800000X0.200000*%
%ADD30R,0.200000X0.800000*%
%ADD31R,1.800000X1.800000*%
%ADD32R,0.200000X0.750000*%
%ADD33R,1.600000X1.000000*%
%ADD34RoundRect,0.250000X-0.475000X0.250000X-0.475000X-0.250000X0.475000X-0.250000X0.475000X0.250000X0*%
%ADD35RoundRect,0.225000X-0.225000X-0.250000X0.225000X-0.250000X0.225000X0.250000X-0.225000X0.250000X0*%
%ADD36R,1.000000X0.300000*%
%ADD37R,1.300000X2.000000*%
%ADD38RoundRect,0.135000X0.135000X0.185000X-0.135000X0.185000X-0.135000X-0.185000X0.135000X-0.185000X0*%
%ADD39R,0.800000X0.300000*%
%ADD40R,1.750000X2.500000*%
%ADD41RoundRect,0.218750X-0.256250X0.218750X-0.256250X-0.218750X0.256250X-0.218750X0.256250X0.218750X0*%
%ADD42RoundRect,0.225000X0.225000X0.250000X-0.225000X0.250000X-0.225000X-0.250000X0.225000X-0.250000X0*%
%ADD43R,4.000000X4.000000*%
%ADD44RoundRect,0.218750X0.218750X0.256250X-0.218750X0.256250X-0.218750X-0.256250X0.218750X-0.256250X0*%
%ADD45RoundRect,0.250000X0.475000X-0.250000X0.475000X0.250000X-0.475000X0.250000X-0.475000X-0.250000X0*%
%ADD46R,1.200000X0.600000*%
%ADD47C,0.290000*%
%ADD48RoundRect,0.140000X-0.170000X0.140000X-0.170000X-0.140000X0.170000X-0.140000X0.170000X0.140000X0*%
%ADD49RoundRect,0.200000X0.200000X0.275000X-0.200000X0.275000X-0.200000X-0.275000X0.200000X-0.275000X0*%
%ADD50R,0.980000X3.400000*%
%ADD51R,0.558800X1.371600*%
%ADD52R,1.000000X1.500000*%
%ADD53R,0.300000X1.075000*%
%ADD54RoundRect,0.200000X-0.200000X-0.275000X0.200000X-0.275000X0.200000X0.275000X-0.200000X0.275000X0*%
%ADD55RoundRect,0.225000X-0.375000X0.225000X-0.375000X-0.225000X0.375000X-0.225000X0.375000X0.225000X0*%
%ADD56R,0.700000X1.000000*%
%ADD57RoundRect,0.225000X-0.225000X-0.375000X0.225000X-0.375000X0.225000X0.375000X-0.225000X0.375000X0*%
%ADD58RoundRect,0.225000X-0.250000X0.225000X-0.250000X-0.225000X0.250000X-0.225000X0.250000X0.225000X0*%
%ADD59R,2.410000X3.098000*%
%ADD60R,1.525000X0.650000*%
%ADD61RoundRect,0.218750X-0.218750X-0.256250X0.218750X-0.256250X0.218750X0.256250X-0.218750X0.256250X0*%
%ADD62RoundRect,0.200000X0.275000X-0.200000X0.275000X0.200000X-0.275000X0.200000X-0.275000X-0.200000X0*%
%ADD63R,0.475000X0.300000*%
%ADD64RoundRect,0.250000X0.325000X0.650000X-0.325000X0.650000X-0.325000X-0.650000X0.325000X-0.650000X0*%
%ADD65C,0.600000*%
%ADD66R,0.600000X1.150000*%
%ADD67R,0.300000X1.150000*%
%ADD68O,1.000000X1.800000*%
%ADD69C,0.200000*%
%ADD70C,0.350000*%
%ADD71C,0.298000*%
%ADD72R,0.600000X0.240000*%
%ADD73R,0.240000X0.600000*%
%ADD74R,3.050000X2.050000*%
G04 APERTURE END LIST*
D10*
%TO.C,U2*%
X109825000Y-32800000D03*
X109825000Y-33650000D03*
X109825000Y-34500000D03*
X109825000Y-35350000D03*
X109825000Y-36200000D03*
X109825000Y-37050000D03*
X109825000Y-37900000D03*
X109825000Y-38750000D03*
X109825000Y-39600000D03*
X109825000Y-40450000D03*
X109825000Y-41300000D03*
X109825000Y-42150000D03*
X109825000Y-43000000D03*
X109825000Y-43850000D03*
X109825000Y-44700000D03*
D11*
X110875000Y-45750000D03*
X111725000Y-45750000D03*
X112575000Y-45750000D03*
X113425000Y-45750000D03*
X114275000Y-45750000D03*
X115125000Y-45750000D03*
X115975000Y-45750000D03*
X116825000Y-45750000D03*
X117675000Y-45750000D03*
X118525000Y-45750000D03*
X119375000Y-45750000D03*
X120225000Y-45750000D03*
X121075000Y-45750000D03*
X121925000Y-45750000D03*
X122775000Y-45750000D03*
D10*
X123825000Y-44700000D03*
X123825000Y-43850000D03*
X123825000Y-43000000D03*
X123825000Y-42150000D03*
X123825000Y-41300000D03*
X123825000Y-40450000D03*
X123825000Y-39600000D03*
X123825000Y-38750000D03*
X123825000Y-37900000D03*
X123825000Y-37050000D03*
X123825000Y-36200000D03*
X123825000Y-35350000D03*
X123825000Y-34500000D03*
X123825000Y-33650000D03*
X123825000Y-32800000D03*
D11*
X122775000Y-31750000D03*
X121925000Y-31750000D03*
X121075000Y-31750000D03*
X120225000Y-31750000D03*
X119375000Y-31750000D03*
X118525000Y-31750000D03*
X117675000Y-31750000D03*
X116825000Y-31750000D03*
X115975000Y-31750000D03*
X115125000Y-31750000D03*
X114275000Y-31750000D03*
X113425000Y-31750000D03*
X112575000Y-31750000D03*
X111725000Y-31750000D03*
X110875000Y-31750000D03*
D12*
X116825000Y-38750000D03*
D13*
X109825000Y-31750000D03*
X109825000Y-45750000D03*
X123825000Y-45750000D03*
X123825000Y-31750000D03*
D12*
X115175000Y-37100000D03*
X115175000Y-38750000D03*
X115175000Y-40400000D03*
X116825000Y-40400000D03*
X118475000Y-40400000D03*
X118475000Y-38750000D03*
X118475000Y-37100000D03*
X116825000Y-37100000D03*
%TD*%
D14*
%TO.C,J7*%
X157769700Y-91500001D03*
X157769700Y-89499999D03*
D15*
X163519701Y-93850001D03*
X163519701Y-87149999D03*
%TD*%
D16*
%TO.C,R21*%
X126912500Y-86805000D03*
X126912500Y-87825000D03*
%TD*%
D17*
%TO.C,J5*%
X155950000Y-75485000D03*
D18*
X155950000Y-78025000D03*
X155950000Y-80565000D03*
%TD*%
D19*
%TO.C,C87*%
X85393333Y-32477500D03*
X85393333Y-31517500D03*
%TD*%
D20*
%TO.C,C56*%
X46495000Y-41010000D03*
X45535000Y-41010000D03*
%TD*%
D21*
%TO.C,R40*%
X38390000Y-42311000D03*
X39410000Y-42311000D03*
%TD*%
D22*
%TO.C,C72*%
X46699000Y-91915000D03*
X48599000Y-91915000D03*
%TD*%
D23*
%TO.C,TP4*%
X81875000Y-85175000D03*
%TD*%
D24*
%TO.C,R3*%
X105025000Y-68260000D03*
X105025000Y-67240000D03*
%TD*%
D19*
%TO.C,C71*%
X45224000Y-86190000D03*
X45224000Y-85230000D03*
%TD*%
D24*
%TO.C,R11*%
X147225000Y-39060000D03*
X147225000Y-38040000D03*
%TD*%
D25*
%TO.C,C24*%
X119775000Y-81225000D03*
X117875000Y-81225000D03*
%TD*%
D16*
%TO.C,R61*%
X82620000Y-30392500D03*
X82620000Y-31412500D03*
%TD*%
D26*
%TO.C,IC8*%
X41550000Y-30245000D03*
X41550000Y-30895000D03*
X41550000Y-31545000D03*
X41550000Y-32195000D03*
X45950000Y-32195000D03*
X45950000Y-31545000D03*
X45950000Y-30895000D03*
X45950000Y-30245000D03*
%TD*%
D17*
%TO.C,J10*%
X159775000Y-75485000D03*
D18*
X159775000Y-78025000D03*
X159775000Y-80565000D03*
%TD*%
D27*
%TO.C,C9*%
X154570000Y-36375000D03*
X155530000Y-36375000D03*
%TD*%
D28*
%TO.C,C89*%
X87870000Y-32202500D03*
X87870000Y-30652500D03*
%TD*%
D29*
%TO.C,IC17*%
X84425000Y-34475000D03*
X84425000Y-34875000D03*
X84425000Y-35275000D03*
X84425000Y-35675000D03*
X84425000Y-36075000D03*
D30*
X85125000Y-36775000D03*
X85525000Y-36775000D03*
X85925000Y-36775000D03*
X86325000Y-36775000D03*
X86725000Y-36775000D03*
D29*
X87425000Y-36075000D03*
X87425000Y-35675000D03*
X87425000Y-35275000D03*
X87425000Y-34875000D03*
X87425000Y-34475000D03*
D30*
X86725000Y-33775000D03*
X86325000Y-33775000D03*
X85925000Y-33775000D03*
X85525000Y-33775000D03*
X85125000Y-33775000D03*
D31*
X85925000Y-35275000D03*
%TD*%
D20*
%TO.C,C5*%
X153605000Y-35300000D03*
X152645000Y-35300000D03*
%TD*%
D19*
%TO.C,C31*%
X125137500Y-89860000D03*
X125137500Y-88900000D03*
%TD*%
D32*
%TO.C,IC3*%
X160887500Y-70075000D03*
X161287500Y-70075000D03*
X161687500Y-70075000D03*
X162087500Y-70075000D03*
X162487500Y-70075000D03*
X162487500Y-67875000D03*
X162087500Y-67875000D03*
X161687500Y-67875000D03*
X161287500Y-67875000D03*
X160887500Y-67875000D03*
D33*
X161687500Y-68975000D03*
%TD*%
D34*
%TO.C,C77*%
X41475000Y-80145000D03*
X41475000Y-82045000D03*
%TD*%
D22*
%TO.C,C14*%
X155795000Y-45530000D03*
X157695000Y-45530000D03*
%TD*%
D35*
%TO.C,C43*%
X41305000Y-34970000D03*
X42855000Y-34970000D03*
%TD*%
D36*
%TO.C,J17*%
X24650000Y-40850000D03*
X24650000Y-41350000D03*
X24650000Y-41850000D03*
X24650000Y-42350000D03*
X24650000Y-42850000D03*
X24650000Y-43350000D03*
X24650000Y-43850000D03*
X24650000Y-44350000D03*
X24650000Y-44850000D03*
X24650000Y-45350000D03*
D37*
X21950000Y-38550000D03*
X21950000Y-47650000D03*
%TD*%
D38*
%TO.C,R39*%
X39410000Y-41020000D03*
X38390000Y-41020000D03*
%TD*%
D20*
%TO.C,C85*%
X82675000Y-34652500D03*
X81715000Y-34652500D03*
%TD*%
D25*
%TO.C,C84*%
X82320000Y-33002500D03*
X80420000Y-33002500D03*
%TD*%
D35*
%TO.C,C78*%
X37800000Y-83925000D03*
X39350000Y-83925000D03*
%TD*%
D38*
%TO.C,R41*%
X39435000Y-52970000D03*
X38415000Y-52970000D03*
%TD*%
%TO.C,R64*%
X90230000Y-36662500D03*
X89210000Y-36662500D03*
%TD*%
D17*
%TO.C,J11*%
X110055000Y-84400000D03*
D18*
X107515000Y-84400000D03*
%TD*%
D21*
%TO.C,R58*%
X45015000Y-78607000D03*
X46035000Y-78607000D03*
%TD*%
D28*
%TO.C,C67*%
X59600000Y-49507000D03*
X59600000Y-47957000D03*
%TD*%
D20*
%TO.C,C41*%
X39425000Y-55552000D03*
X38465000Y-55552000D03*
%TD*%
D17*
%TO.C,J12*%
X110080000Y-88350000D03*
D18*
X107540000Y-88350000D03*
%TD*%
D20*
%TO.C,C37*%
X39425000Y-59420000D03*
X38465000Y-59420000D03*
%TD*%
D26*
%TO.C,IC11*%
X41600000Y-66220000D03*
X41600000Y-66870000D03*
X41600000Y-67520000D03*
X41600000Y-68170000D03*
X46000000Y-68170000D03*
X46000000Y-67520000D03*
X46000000Y-66870000D03*
X46000000Y-66220000D03*
%TD*%
D39*
%TO.C,IC5*%
X79175000Y-85072500D03*
X79175000Y-84572500D03*
X79175000Y-84072500D03*
X79175000Y-83572500D03*
X79175000Y-83072500D03*
X76175000Y-83072500D03*
X76175000Y-83572500D03*
X76175000Y-84072500D03*
X76175000Y-84572500D03*
X76175000Y-85072500D03*
D40*
X77675000Y-84072500D03*
%TD*%
D21*
%TO.C,R14*%
X140450000Y-66000000D03*
X141470000Y-66000000D03*
%TD*%
D35*
%TO.C,C44*%
X41330000Y-47170000D03*
X42880000Y-47170000D03*
%TD*%
D21*
%TO.C,R32*%
X38390000Y-46164000D03*
X39410000Y-46164000D03*
%TD*%
D25*
%TO.C,C34*%
X119800000Y-83525000D03*
X117900000Y-83525000D03*
%TD*%
D38*
%TO.C,R31*%
X39410000Y-44873000D03*
X38390000Y-44873000D03*
%TD*%
D19*
%TO.C,C28*%
X73675000Y-82430000D03*
X73675000Y-81470000D03*
%TD*%
D41*
%TO.C,L3*%
X120550000Y-86325000D03*
X120550000Y-87900000D03*
%TD*%
D42*
%TO.C,C53*%
X46250000Y-51645000D03*
X44700000Y-51645000D03*
%TD*%
D38*
%TO.C,R26*%
X74610000Y-84585000D03*
X73590000Y-84585000D03*
%TD*%
D24*
%TO.C,R55*%
X44099000Y-86225000D03*
X44099000Y-85205000D03*
%TD*%
D16*
%TO.C,R22*%
X126912500Y-88905000D03*
X126912500Y-89925000D03*
%TD*%
D42*
%TO.C,C51*%
X46195000Y-27470000D03*
X44645000Y-27470000D03*
%TD*%
D20*
%TO.C,C81*%
X53004000Y-83690000D03*
X52044000Y-83690000D03*
%TD*%
D16*
%TO.C,R52*%
X64175000Y-55372000D03*
X64175000Y-56392000D03*
%TD*%
D27*
%TO.C,C62*%
X64135000Y-54289500D03*
X65095000Y-54289500D03*
%TD*%
D16*
%TO.C,R8*%
X148325000Y-43575000D03*
X148325000Y-44595000D03*
%TD*%
D24*
%TO.C,R16*%
X163987500Y-65600000D03*
X163987500Y-64580000D03*
%TD*%
D23*
%TO.C,TP1*%
X152125000Y-66100000D03*
%TD*%
D17*
%TO.C,J1*%
X135575000Y-41245000D03*
D18*
X138115000Y-41245000D03*
X135575000Y-43785000D03*
X138115000Y-43785000D03*
X135575000Y-46325000D03*
X138115000Y-46325000D03*
X135575000Y-48865000D03*
X138115000Y-48865000D03*
X135575000Y-51405000D03*
X138115000Y-51405000D03*
X135575000Y-53945000D03*
X138115000Y-53945000D03*
X135575000Y-56485000D03*
X138115000Y-56485000D03*
%TD*%
D22*
%TO.C,C26*%
X117825000Y-64075000D03*
X119725000Y-64075000D03*
%TD*%
D20*
%TO.C,C38*%
X39400000Y-71225000D03*
X38440000Y-71225000D03*
%TD*%
D38*
%TO.C,R37*%
X39360000Y-28795000D03*
X38340000Y-28795000D03*
%TD*%
D20*
%TO.C,C55*%
X46470000Y-28810000D03*
X45510000Y-28810000D03*
%TD*%
D43*
%TO.C,TP3*%
X163275000Y-51475000D03*
%TD*%
D20*
%TO.C,C42*%
X39400000Y-67357000D03*
X38440000Y-67357000D03*
%TD*%
D25*
%TO.C,C79*%
X52699000Y-82040000D03*
X50799000Y-82040000D03*
%TD*%
D42*
%TO.C,C54*%
X46230000Y-63430000D03*
X44680000Y-63430000D03*
%TD*%
D38*
%TO.C,R67*%
X90230000Y-35617500D03*
X89210000Y-35617500D03*
%TD*%
D44*
%TO.C,D5*%
X61362500Y-52857000D03*
X59787500Y-52857000D03*
%TD*%
D21*
%TO.C,R34*%
X38415000Y-58134000D03*
X39435000Y-58134000D03*
%TD*%
D45*
%TO.C,C33*%
X115925000Y-89550000D03*
X115925000Y-87650000D03*
%TD*%
D26*
%TO.C,IC9*%
X41575000Y-42445000D03*
X41575000Y-43095000D03*
X41575000Y-43745000D03*
X41575000Y-44395000D03*
X45975000Y-44395000D03*
X45975000Y-43745000D03*
X45975000Y-43095000D03*
X45975000Y-42445000D03*
%TD*%
D20*
%TO.C,C83*%
X67005000Y-64633750D03*
X66045000Y-64633750D03*
%TD*%
D46*
%TO.C,IC12*%
X60400000Y-30895000D03*
X60400000Y-31845000D03*
X60400000Y-32795000D03*
X62900000Y-32795000D03*
X62900000Y-31845000D03*
X62900000Y-30895000D03*
%TD*%
D20*
%TO.C,C60*%
X61665000Y-44899500D03*
X60705000Y-44899500D03*
%TD*%
%TO.C,C64*%
X63320000Y-29413334D03*
X62360000Y-29413334D03*
%TD*%
D16*
%TO.C,R51*%
X61625000Y-55372000D03*
X61625000Y-56392000D03*
%TD*%
D21*
%TO.C,R44*%
X38390000Y-66071000D03*
X39410000Y-66071000D03*
%TD*%
D17*
%TO.C,J6*%
X138985000Y-70400000D03*
D18*
X141525000Y-70400000D03*
%TD*%
D17*
%TO.C,J3*%
X109925000Y-49625000D03*
D18*
X112465000Y-49625000D03*
X115005000Y-49625000D03*
X117545000Y-49625000D03*
X120085000Y-49625000D03*
%TD*%
D21*
%TO.C,R5*%
X148265000Y-42600000D03*
X149285000Y-42600000D03*
%TD*%
D38*
%TO.C,R43*%
X39410000Y-64775000D03*
X38390000Y-64775000D03*
%TD*%
%TO.C,R45*%
X42040000Y-28800000D03*
X41020000Y-28800000D03*
%TD*%
D24*
%TO.C,R24*%
X74750000Y-82460000D03*
X74750000Y-81440000D03*
%TD*%
D20*
%TO.C,C36*%
X39400000Y-47445000D03*
X38440000Y-47445000D03*
%TD*%
D45*
%TO.C,C29*%
X76525000Y-81385000D03*
X76525000Y-79485000D03*
%TD*%
D47*
%TO.C,IC4*%
X143460000Y-65925000D03*
X143960000Y-65925000D03*
X144460000Y-65925000D03*
X143460000Y-66425000D03*
X143960000Y-66425000D03*
X144460000Y-66425000D03*
X143460000Y-66925000D03*
X143960000Y-66925000D03*
X144460000Y-66925000D03*
%TD*%
D48*
%TO.C,C18*%
X157875000Y-39345000D03*
X157875000Y-40305000D03*
%TD*%
D16*
%TO.C,R7*%
X150375000Y-43575000D03*
X150375000Y-44595000D03*
%TD*%
D38*
%TO.C,R29*%
X39360000Y-32663000D03*
X38340000Y-32663000D03*
%TD*%
D24*
%TO.C,R18*%
X161937500Y-65600000D03*
X161937500Y-64580000D03*
%TD*%
D19*
%TO.C,C70*%
X47150000Y-82595000D03*
X47150000Y-81635000D03*
%TD*%
D38*
%TO.C,R68*%
X90230000Y-37707500D03*
X89210000Y-37707500D03*
%TD*%
D48*
%TO.C,C80*%
X43075000Y-79840000D03*
X43075000Y-80800000D03*
%TD*%
D49*
%TO.C,R60*%
X42725000Y-83900000D03*
X41075000Y-83900000D03*
%TD*%
D35*
%TO.C,C16*%
X155750000Y-43750000D03*
X157300000Y-43750000D03*
%TD*%
D17*
%TO.C,J2*%
X86265000Y-57356250D03*
D18*
X83725000Y-57356250D03*
X86265000Y-59896250D03*
X83725000Y-59896250D03*
X86265000Y-62436250D03*
X83725000Y-62436250D03*
X86265000Y-64976250D03*
X83725000Y-64976250D03*
X86265000Y-67516250D03*
X83725000Y-67516250D03*
X86265000Y-70056250D03*
X83725000Y-70056250D03*
%TD*%
D50*
%TO.C,L1*%
X118290000Y-67825000D03*
X120660000Y-67825000D03*
%TD*%
D51*
%TO.C,IC15*%
X44180200Y-82357000D03*
X45120000Y-82357000D03*
X46059800Y-82357000D03*
X46059800Y-80071000D03*
X44180200Y-80071000D03*
%TD*%
D20*
%TO.C,C58*%
X46505000Y-64770000D03*
X45545000Y-64770000D03*
%TD*%
%TO.C,C57*%
X46530000Y-52985000D03*
X45570000Y-52985000D03*
%TD*%
D24*
%TO.C,R49*%
X64175000Y-43792000D03*
X64175000Y-42772000D03*
%TD*%
D19*
%TO.C,C4*%
X107175000Y-34455000D03*
X107175000Y-33495000D03*
%TD*%
D38*
%TO.C,R13*%
X162747500Y-71575000D03*
X161727500Y-71575000D03*
%TD*%
D17*
%TO.C,J22*%
X105475000Y-47215000D03*
D18*
X105475000Y-44675000D03*
%TD*%
D38*
%TO.C,R63*%
X90230000Y-34572500D03*
X89210000Y-34572500D03*
%TD*%
D52*
%TO.C,J8*%
X164075000Y-84635000D03*
X162775000Y-84635000D03*
X161475000Y-84635000D03*
%TD*%
D53*
%TO.C,IC13*%
X64425000Y-48032000D03*
X63925000Y-48032000D03*
X63425000Y-48032000D03*
X62925000Y-48032000D03*
X62425000Y-48032000D03*
X61925000Y-48032000D03*
X61425000Y-48032000D03*
X61425000Y-51108000D03*
X61925000Y-51108000D03*
X62425000Y-51108000D03*
X62925000Y-51108000D03*
X63425000Y-51108000D03*
X63925000Y-51108000D03*
X64425000Y-51108000D03*
%TD*%
D16*
%TO.C,R10*%
X146700000Y-88415000D03*
X146700000Y-89435000D03*
%TD*%
D54*
%TO.C,R54*%
X41075000Y-87160000D03*
X42725000Y-87160000D03*
%TD*%
D21*
%TO.C,R20*%
X125230000Y-64900000D03*
X126250000Y-64900000D03*
%TD*%
D44*
%TO.C,D4*%
X61362500Y-46332000D03*
X59787500Y-46332000D03*
%TD*%
D55*
%TO.C,D2*%
X118400000Y-86325000D03*
X118400000Y-89625000D03*
%TD*%
D19*
%TO.C,C2*%
X107175000Y-36730000D03*
X107175000Y-35770000D03*
%TD*%
D35*
%TO.C,C75*%
X61855000Y-70812500D03*
X63405000Y-70812500D03*
%TD*%
D24*
%TO.C,R1*%
X126800000Y-33985000D03*
X126800000Y-32965000D03*
%TD*%
D56*
%TO.C,SW2*%
X102275000Y-28550000D03*
X102275000Y-33050000D03*
X100125000Y-28550000D03*
X100125000Y-33050000D03*
%TD*%
D20*
%TO.C,C6*%
X153605000Y-36350000D03*
X152645000Y-36350000D03*
%TD*%
D57*
%TO.C,D1*%
X121500000Y-81375000D03*
X124800000Y-81375000D03*
%TD*%
D38*
%TO.C,R66*%
X90230000Y-33527500D03*
X89210000Y-33527500D03*
%TD*%
D28*
%TO.C,C86*%
X84020000Y-32202500D03*
X84020000Y-30652500D03*
%TD*%
D34*
%TO.C,C22*%
X146860000Y-69375000D03*
X146860000Y-71275000D03*
%TD*%
D38*
%TO.C,R47*%
X42090000Y-52975000D03*
X41070000Y-52975000D03*
%TD*%
%TO.C,R33*%
X39435000Y-56838000D03*
X38415000Y-56838000D03*
%TD*%
D21*
%TO.C,R62*%
X89210000Y-32427500D03*
X90230000Y-32427500D03*
%TD*%
D38*
%TO.C,R23*%
X74610000Y-83485000D03*
X73590000Y-83485000D03*
%TD*%
D19*
%TO.C,C68*%
X62950000Y-46587000D03*
X62950000Y-45627000D03*
%TD*%
D28*
%TO.C,C1*%
X126775000Y-31275000D03*
X126775000Y-29725000D03*
%TD*%
D42*
%TO.C,C52*%
X46220000Y-39670000D03*
X44670000Y-39670000D03*
%TD*%
D17*
%TO.C,J19*%
X82250000Y-44231250D03*
D18*
X84790000Y-44231250D03*
X87330000Y-44231250D03*
%TD*%
D17*
%TO.C,J21*%
X82250000Y-52181250D03*
D18*
X84790000Y-52181250D03*
X87330000Y-52181250D03*
%TD*%
D38*
%TO.C,R12*%
X141495000Y-67275000D03*
X140475000Y-67275000D03*
%TD*%
D21*
%TO.C,R38*%
X38340000Y-30091000D03*
X39360000Y-30091000D03*
%TD*%
D17*
%TO.C,J14*%
X65625000Y-85950000D03*
D18*
X68165000Y-85950000D03*
%TD*%
D22*
%TO.C,C15*%
X155795000Y-47575000D03*
X157695000Y-47575000D03*
%TD*%
D21*
%TO.C,R19*%
X123230000Y-64900000D03*
X124250000Y-64900000D03*
%TD*%
D54*
%TO.C,R53*%
X41075000Y-85530000D03*
X42725000Y-85530000D03*
%TD*%
D56*
%TO.C,SW1*%
X131875000Y-28500000D03*
X131875000Y-33000000D03*
X129725000Y-28500000D03*
X129725000Y-33000000D03*
%TD*%
D34*
%TO.C,C23*%
X78800000Y-86835000D03*
X78800000Y-88735000D03*
%TD*%
D27*
%TO.C,C76*%
X61580000Y-69466250D03*
X62540000Y-69466250D03*
%TD*%
D58*
%TO.C,C74*%
X60100000Y-65955000D03*
X60100000Y-67505000D03*
%TD*%
D17*
%TO.C,J4*%
X138200000Y-28735000D03*
D18*
X138200000Y-31275000D03*
X138200000Y-33815000D03*
X138200000Y-36355000D03*
%TD*%
D24*
%TO.C,R50*%
X61625000Y-43817000D03*
X61625000Y-42797000D03*
%TD*%
D42*
%TO.C,C82*%
X66700000Y-63287500D03*
X65150000Y-63287500D03*
%TD*%
D20*
%TO.C,C35*%
X39350000Y-35245000D03*
X38390000Y-35245000D03*
%TD*%
D58*
%TO.C,C10*%
X148900000Y-38300000D03*
X148900000Y-39850000D03*
%TD*%
D59*
%TO.C,IC14*%
X49737000Y-87030000D03*
D60*
X52449000Y-85125000D03*
X52449000Y-86395000D03*
X52449000Y-87665000D03*
X52449000Y-88935000D03*
X47025000Y-88935000D03*
X47025000Y-87665000D03*
X47025000Y-86395000D03*
X47025000Y-85125000D03*
%TD*%
D25*
%TO.C,C65*%
X63000000Y-27776668D03*
X61100000Y-27776668D03*
%TD*%
D38*
%TO.C,R65*%
X90230000Y-38752500D03*
X89210000Y-38752500D03*
%TD*%
%TO.C,R48*%
X42090000Y-64775000D03*
X41070000Y-64775000D03*
%TD*%
D16*
%TO.C,R6*%
X149350000Y-43575000D03*
X149350000Y-44595000D03*
%TD*%
D34*
%TO.C,C32*%
X76525000Y-86835000D03*
X76525000Y-88735000D03*
%TD*%
D61*
%TO.C,D6*%
X64437500Y-52857000D03*
X66012500Y-52857000D03*
%TD*%
D35*
%TO.C,C45*%
X41355000Y-59145000D03*
X42905000Y-59145000D03*
%TD*%
D62*
%TO.C,R56*%
X21700000Y-83825000D03*
X21700000Y-82175000D03*
%TD*%
D58*
%TO.C,C7*%
X151400000Y-34550000D03*
X151400000Y-36100000D03*
%TD*%
D38*
%TO.C,R57*%
X55460000Y-87675000D03*
X54440000Y-87675000D03*
%TD*%
D61*
%TO.C,D3*%
X64437500Y-46307000D03*
X66012500Y-46307000D03*
%TD*%
D19*
%TO.C,C88*%
X86496666Y-32477500D03*
X86496666Y-31517500D03*
%TD*%
D21*
%TO.C,R36*%
X38390000Y-69939000D03*
X39410000Y-69939000D03*
%TD*%
D28*
%TO.C,C12*%
X153000000Y-45300000D03*
X153000000Y-43750000D03*
%TD*%
D20*
%TO.C,C39*%
X39350000Y-31377000D03*
X38390000Y-31377000D03*
%TD*%
D22*
%TO.C,C27*%
X123550000Y-69250000D03*
X125450000Y-69250000D03*
%TD*%
D16*
%TO.C,R28*%
X124062500Y-88880000D03*
X124062500Y-89900000D03*
%TD*%
D27*
%TO.C,C73*%
X46419000Y-90340000D03*
X47379000Y-90340000D03*
%TD*%
D63*
%TO.C,IC6*%
X123212000Y-66370000D03*
X123212000Y-66870000D03*
X123212000Y-67370000D03*
X124888000Y-67370000D03*
X124888000Y-66870000D03*
X124888000Y-66370000D03*
%TD*%
D24*
%TO.C,R9*%
X134075000Y-89635000D03*
X134075000Y-88615000D03*
%TD*%
D27*
%TO.C,C50*%
X41080000Y-69605000D03*
X42040000Y-69605000D03*
%TD*%
D48*
%TO.C,C8*%
X150125000Y-35395000D03*
X150125000Y-36355000D03*
%TD*%
D26*
%TO.C,IC10*%
X41600000Y-54420000D03*
X41600000Y-55070000D03*
X41600000Y-55720000D03*
X41600000Y-56370000D03*
X46000000Y-56370000D03*
X46000000Y-55720000D03*
X46000000Y-55070000D03*
X46000000Y-54420000D03*
%TD*%
D27*
%TO.C,C48*%
X41055000Y-45830000D03*
X42015000Y-45830000D03*
%TD*%
D24*
%TO.C,R25*%
X73675000Y-86645000D03*
X73675000Y-85625000D03*
%TD*%
D38*
%TO.C,R35*%
X39410000Y-68643000D03*
X38390000Y-68643000D03*
%TD*%
%TO.C,R46*%
X42065000Y-41020000D03*
X41045000Y-41020000D03*
%TD*%
D17*
%TO.C,J20*%
X82250000Y-49525000D03*
D18*
X84790000Y-49525000D03*
X87330000Y-49525000D03*
%TD*%
D19*
%TO.C,C30*%
X74775000Y-86620000D03*
X74775000Y-85660000D03*
%TD*%
D43*
%TO.C,TP2*%
X163325000Y-31300000D03*
%TD*%
D27*
%TO.C,C59*%
X64135000Y-44874500D03*
X65095000Y-44874500D03*
%TD*%
D28*
%TO.C,C21*%
X159537500Y-66400000D03*
X159537500Y-64850000D03*
%TD*%
D17*
%TO.C,J15*%
X65600000Y-81875000D03*
D18*
X68140000Y-81875000D03*
%TD*%
D64*
%TO.C,C17*%
X161175000Y-37050000D03*
X158225000Y-37050000D03*
%TD*%
D17*
%TO.C,J13*%
X117785000Y-74625000D03*
D18*
X120325000Y-74625000D03*
%TD*%
D45*
%TO.C,C19*%
X159262500Y-69950000D03*
X159262500Y-68050000D03*
%TD*%
D38*
%TO.C,R2*%
X105035000Y-72900000D03*
X104015000Y-72900000D03*
%TD*%
D27*
%TO.C,C49*%
X41080000Y-57805000D03*
X42040000Y-57805000D03*
%TD*%
D17*
%TO.C,J18*%
X82250000Y-46881250D03*
D18*
X84790000Y-46881250D03*
X87330000Y-46881250D03*
%TD*%
D58*
%TO.C,C20*%
X144585000Y-69325000D03*
X144585000Y-70875000D03*
%TD*%
D65*
%TO.C,U3*%
X137735000Y-89585000D03*
X143515000Y-89585000D03*
D66*
X137425000Y-88510000D03*
X138225000Y-88510000D03*
D67*
X138875000Y-88510000D03*
X139375000Y-88510000D03*
X139875000Y-88510000D03*
X140375000Y-88510000D03*
X140875000Y-88510000D03*
X141375000Y-88510000D03*
X141875000Y-88510000D03*
X142375000Y-88510000D03*
D66*
X143025000Y-88510000D03*
X143825000Y-88510000D03*
D68*
X136305000Y-89085000D03*
X136305000Y-93265000D03*
X144945000Y-89085000D03*
X144945000Y-93265000D03*
%TD*%
D69*
%TO.C,IC7*%
X123400000Y-85975000D03*
X123800000Y-85975000D03*
X124200000Y-85975000D03*
X124600000Y-85975000D03*
X123400000Y-86375000D03*
X124200000Y-86375000D03*
X124600000Y-86375000D03*
X123400000Y-86775000D03*
X123800000Y-86775000D03*
X124200000Y-86775000D03*
X124600000Y-86775000D03*
%TD*%
D45*
%TO.C,C69*%
X48775000Y-82285000D03*
X48775000Y-80385000D03*
%TD*%
D48*
%TO.C,C13*%
X154275000Y-44045000D03*
X154275000Y-45005000D03*
%TD*%
D70*
%TO.C,U1*%
X104700000Y-70175000D03*
X105100000Y-70175000D03*
X104700000Y-70575000D03*
X105100000Y-70575000D03*
X104700000Y-70975000D03*
X105100000Y-70975000D03*
%TD*%
D58*
%TO.C,C63*%
X64725000Y-32476668D03*
X64725000Y-34026668D03*
%TD*%
D24*
%TO.C,R4*%
X103925000Y-68260000D03*
X103925000Y-67240000D03*
%TD*%
%TO.C,R17*%
X162937500Y-65600000D03*
X162937500Y-64580000D03*
%TD*%
D71*
%TO.C,IC2*%
X153025000Y-62500000D03*
X153025000Y-63000000D03*
X153025000Y-63500000D03*
X152525000Y-62500000D03*
X152525000Y-63000000D03*
X152525000Y-63500000D03*
X152025000Y-62500000D03*
X152025000Y-63000000D03*
X152025000Y-63500000D03*
%TD*%
D20*
%TO.C,C40*%
X39400000Y-43592000D03*
X38440000Y-43592000D03*
%TD*%
D21*
%TO.C,R42*%
X38415000Y-54266000D03*
X39435000Y-54266000D03*
%TD*%
%TO.C,R30*%
X38340000Y-33959000D03*
X39360000Y-33959000D03*
%TD*%
D45*
%TO.C,C3*%
X105200000Y-34175000D03*
X105200000Y-32275000D03*
%TD*%
D72*
%TO.C,IC1*%
X155500000Y-39125000D03*
D73*
X155100000Y-38225000D03*
X154600000Y-38225000D03*
X154100000Y-38225000D03*
X153600000Y-38225000D03*
X153100000Y-38225000D03*
X152600000Y-38225000D03*
X152100000Y-38225000D03*
X151600000Y-38225000D03*
D72*
X151200000Y-39125000D03*
X151200000Y-40625000D03*
D73*
X151600000Y-41525000D03*
X152100000Y-41525000D03*
X152600000Y-41525000D03*
X153100000Y-41525000D03*
X153600000Y-41525000D03*
X154100000Y-41525000D03*
X154600000Y-41525000D03*
X155100000Y-41525000D03*
D72*
X155500000Y-40625000D03*
D74*
X153350000Y-39875000D03*
%TD*%
D44*
%TO.C,L2*%
X124812500Y-83675000D03*
X123237500Y-83675000D03*
%TD*%
D45*
%TO.C,C25*%
X78800000Y-81385000D03*
X78800000Y-79485000D03*
%TD*%
D52*
%TO.C,J9*%
X156800000Y-84625000D03*
X158100000Y-84625000D03*
X159400000Y-84625000D03*
%TD*%
D16*
%TO.C,R15*%
X160887500Y-64580000D03*
X160887500Y-65600000D03*
%TD*%
D19*
%TO.C,C11*%
X151675000Y-45030000D03*
X151675000Y-44070000D03*
%TD*%
D38*
%TO.C,R59*%
X62585000Y-64637500D03*
X61565000Y-64637500D03*
%TD*%
D35*
%TO.C,C46*%
X41355000Y-70945000D03*
X42905000Y-70945000D03*
%TD*%
D20*
%TO.C,C61*%
X61665000Y-54289500D03*
X60705000Y-54289500D03*
%TD*%
D17*
%TO.C,J16*%
X21750000Y-56171112D03*
D18*
X21750000Y-58711112D03*
X21750000Y-61251112D03*
X21750000Y-63791112D03*
X21750000Y-66331112D03*
X21750000Y-68871112D03*
X21750000Y-71411112D03*
X21750000Y-73951112D03*
X21750000Y-76491112D03*
X21750000Y-79031112D03*
%TD*%
D27*
%TO.C,C47*%
X41030000Y-33630000D03*
X41990000Y-33630000D03*
%TD*%
D24*
%TO.C,R27*%
X122962500Y-89890000D03*
X122962500Y-88870000D03*
%TD*%
D20*
%TO.C,C66*%
X63320000Y-34276668D03*
X62360000Y-34276668D03*
%TD*%
D26*
%TO.C,IC16*%
X62100000Y-66075000D03*
X62100000Y-66725000D03*
X62100000Y-67375000D03*
X62100000Y-68025000D03*
X66500000Y-68025000D03*
X66500000Y-67375000D03*
X66500000Y-66725000D03*
X66500000Y-66075000D03*
%TD*%
M02*
